G04*
G04 #@! TF.GenerationSoftware,Altium Limited,Altium Designer,21.2.0 (30)*
G04*
G04 Layer_Physical_Order=2*
G04 Layer_Color=36540*
%FSLAX25Y25*%
%MOIN*%
G70*
G04*
G04 #@! TF.SameCoordinates,586DA71B-A414-44C7-A424-215A95C81ED1*
G04*
G04*
G04 #@! TF.FilePolarity,Positive*
G04*
G01*
G75*
%ADD10C,0.01000*%
%ADD111C,0.02165*%
%ADD112O,0.06890X0.06102*%
%ADD115C,0.08268*%
%ADD118R,0.07087X0.07087*%
%ADD121C,0.02441*%
%ADD123R,0.19685X0.19685*%
G36*
X135875Y152014D02*
X248350Y151874D01*
X248927Y150873D01*
X248923Y150867D01*
X248701Y150036D01*
Y149176D01*
X248923Y148345D01*
X249354Y147600D01*
X249962Y146991D01*
X250707Y146561D01*
X251538Y146338D01*
X252399D01*
X253230Y146561D01*
X253350Y146630D01*
X254350Y146053D01*
Y134832D01*
X254349Y133832D01*
X254192Y132911D01*
X253670Y132130D01*
X252889Y131608D01*
X252033Y131438D01*
X251969Y131451D01*
X239173D01*
Y131458D01*
X236917Y131310D01*
X234700Y130869D01*
X232558Y130142D01*
X230531Y129142D01*
X228651Y127886D01*
X226951Y126396D01*
X225460Y124696D01*
X224204Y122816D01*
X223204Y120788D01*
X222477Y118647D01*
X222036Y116429D01*
X221888Y114173D01*
X222036Y111917D01*
X222477Y109699D01*
X223204Y107559D01*
X224204Y105531D01*
X225460Y103651D01*
X226951Y101951D01*
X228651Y100460D01*
X230531Y99204D01*
X232558Y98204D01*
X234700Y97477D01*
X236917Y97036D01*
X239173Y96888D01*
Y96888D01*
X240173Y96896D01*
X252461Y96896D01*
X252530Y96909D01*
X254276Y96738D01*
X256068Y96194D01*
X257720Y95311D01*
X259168Y94123D01*
X259644Y93542D01*
X260247Y92782D01*
X260263Y92756D01*
X260838Y91981D01*
X262310Y89997D01*
X264617Y87451D01*
X266581Y85671D01*
Y35039D01*
X266697Y34456D01*
Y-34849D01*
X266581Y-35433D01*
Y-85671D01*
X264617Y-87451D01*
X262310Y-89997D01*
X260838Y-91981D01*
X260263Y-92756D01*
X260247Y-92782D01*
X259644Y-93542D01*
X259168Y-94123D01*
X257720Y-95311D01*
X256068Y-96194D01*
X254276Y-96738D01*
X252530Y-96909D01*
X252461Y-96896D01*
X240173Y-96896D01*
X239173Y-96888D01*
Y-96888D01*
X236917Y-97036D01*
X234700Y-97477D01*
X232558Y-98204D01*
X230531Y-99204D01*
X228651Y-100460D01*
X226951Y-101951D01*
X225460Y-103651D01*
X224204Y-105531D01*
X223204Y-107559D01*
X222477Y-109699D01*
X222036Y-111917D01*
X221888Y-114173D01*
X222036Y-116429D01*
X222477Y-118647D01*
X223204Y-120788D01*
X224204Y-122816D01*
X225460Y-124696D01*
X226951Y-126396D01*
X228651Y-127886D01*
X230531Y-129142D01*
X232558Y-130142D01*
X234700Y-130869D01*
X236917Y-131310D01*
X239173Y-131458D01*
Y-131451D01*
X251969D01*
X252033Y-131438D01*
X252889Y-131608D01*
X253670Y-132130D01*
X254192Y-132911D01*
X254349Y-133832D01*
X254349Y-133832D01*
X254350Y-134832D01*
Y-146053D01*
X253350Y-146630D01*
X253230Y-146561D01*
X252399Y-146339D01*
X251538D01*
X250707Y-146561D01*
X249962Y-146992D01*
X249354Y-147600D01*
X248923Y-148345D01*
X248701Y-149176D01*
Y-150037D01*
X248892Y-150752D01*
X248784Y-151002D01*
X248739Y-151046D01*
X247895Y-151464D01*
X247884Y-151460D01*
X247355Y-151244D01*
X247333Y-151235D01*
Y-151235D01*
X245859Y-150788D01*
X244193Y-150624D01*
Y-150636D01*
X136138Y-150636D01*
X135138Y-150636D01*
X134179Y-150536D01*
X133715Y-150475D01*
X132748Y-150075D01*
X132051Y-149667D01*
X132040Y-149658D01*
D01*
X131813Y-149505D01*
X131813Y-149505D01*
X131056Y-149100D01*
X130336Y-148715D01*
X128734Y-148229D01*
X127067Y-148065D01*
Y-148077D01*
X111218D01*
X111218Y-148077D01*
Y-148065D01*
X109551Y-148229D01*
X107949Y-148715D01*
X106472Y-149505D01*
X105177Y-150567D01*
X105179Y-150569D01*
X105178Y-150575D01*
X102751Y-153003D01*
X102737Y-153024D01*
X102062Y-153542D01*
X101330Y-153845D01*
X100387Y-153982D01*
X100387Y-153982D01*
X100387Y-153982D01*
X99387Y-153982D01*
X62992D01*
X62992Y-46842D01*
X62969Y-46174D01*
X62824Y-44844D01*
X62550Y-43536D01*
X62149Y-42260D01*
X61624Y-41030D01*
X60982Y-39858D01*
X60228Y-38754D01*
X59579Y-37980D01*
X59369Y-37729D01*
X58903Y-37249D01*
X58903Y-37249D01*
X53150Y-31496D01*
X52644Y-31030D01*
X51566Y-30176D01*
X50411Y-29431D01*
X49187Y-28804D01*
X47909Y-28299D01*
X46586Y-27922D01*
X45234Y-27676D01*
X44107Y-27584D01*
X43863Y-27565D01*
X43184Y-27559D01*
X43176Y-27559D01*
X43176Y-27559D01*
X43176Y-27559D01*
X32423D01*
X32224Y-26559D01*
X32676Y-26372D01*
X33262Y-25786D01*
X33579Y-25021D01*
Y-24192D01*
X33262Y-23427D01*
X33126Y-23291D01*
X32783Y-22638D01*
X33126Y-21984D01*
X33262Y-21849D01*
X33579Y-21084D01*
Y-20255D01*
X33262Y-19489D01*
X32676Y-18904D01*
X31910Y-18587D01*
X31082D01*
X30316Y-18904D01*
X30181Y-19039D01*
X29528Y-19383D01*
X28874Y-19039D01*
X28739Y-18904D01*
X27973Y-18587D01*
X27145D01*
X26379Y-18904D01*
X26244Y-19039D01*
X25591Y-19383D01*
X24937Y-19039D01*
X24802Y-18904D01*
X24036Y-18587D01*
X23208D01*
X22442Y-18904D01*
X21857Y-19489D01*
X21539Y-20255D01*
Y-21084D01*
X21857Y-21849D01*
X21920Y-21913D01*
X21838Y-22329D01*
X21685Y-22670D01*
X21344Y-22822D01*
X20929Y-22905D01*
X20865Y-22841D01*
X20099Y-22524D01*
X19271D01*
X18505Y-22841D01*
X18370Y-22976D01*
X17717Y-23320D01*
X17063Y-22976D01*
X16928Y-22841D01*
X16162Y-22524D01*
X15334D01*
X14568Y-22841D01*
X14433Y-22976D01*
X13780Y-23320D01*
X13126Y-22976D01*
X12991Y-22841D01*
X12225Y-22524D01*
X11397D01*
X10631Y-22841D01*
X10496Y-22976D01*
X9843Y-23320D01*
X9189Y-22976D01*
X9054Y-22841D01*
X8288Y-22524D01*
X7460D01*
X6694Y-22841D01*
X6559Y-22976D01*
X5906Y-23320D01*
X5252Y-22976D01*
X5117Y-22841D01*
X4351Y-22524D01*
X3523D01*
X2757Y-22841D01*
X2622Y-22976D01*
X1969Y-23320D01*
X1315Y-22976D01*
X1180Y-22841D01*
X414Y-22524D01*
X-414D01*
X-1180Y-22841D01*
X-1766Y-23427D01*
X-2083Y-24192D01*
Y-25021D01*
X-1766Y-25786D01*
X-1180Y-26372D01*
X-728Y-26559D01*
X-927Y-27559D01*
X-60802Y-27559D01*
X-61491Y-27561D01*
X-62865Y-27665D01*
X-64221Y-27903D01*
X-65548Y-28273D01*
X-66832Y-28772D01*
X-68061Y-29394D01*
X-69223Y-30133D01*
X-70069Y-30796D01*
X-70082Y-30806D01*
X-70082Y-30806D01*
X-70307Y-30983D01*
X-70816Y-31446D01*
X-70817Y-31446D01*
Y-31446D01*
X-71511Y-32141D01*
X-76819Y-37449D01*
X-77267Y-37918D01*
X-78092Y-38920D01*
X-78816Y-39998D01*
X-79429Y-41142D01*
X-79928Y-42341D01*
X-80307Y-43582D01*
X-80562Y-44855D01*
X-80692Y-46147D01*
X-80709Y-46796D01*
Y-52003D01*
X-80806Y-52068D01*
X-81137Y-52564D01*
X-81254Y-53150D01*
X-81137Y-53735D01*
X-80806Y-54231D01*
X-80709Y-54296D01*
Y-153982D01*
X-100401D01*
X-100422Y-153987D01*
X-101261Y-153876D01*
X-102069Y-153542D01*
X-102744Y-153024D01*
X-102758Y-153003D01*
X-105185Y-150575D01*
X-105177Y-150567D01*
X-106472Y-149505D01*
X-107949Y-148715D01*
X-109551Y-148229D01*
X-111218Y-148065D01*
Y-148077D01*
X-111218Y-148077D01*
X-127071D01*
X-127071Y-148065D01*
X-128738Y-148229D01*
X-130340Y-148715D01*
X-131817Y-149505D01*
X-133111Y-150567D01*
X-133112Y-150567D01*
X-133827Y-151254D01*
X-134262Y-151588D01*
X-135041Y-151911D01*
X-135854Y-152018D01*
X-135875Y-152014D01*
X-253053Y-151868D01*
X-253435Y-151868D01*
X-254124Y-151643D01*
X-254282Y-151159D01*
X-254349Y-150953D01*
Y-133832D01*
X-254362Y-133767D01*
X-254192Y-132911D01*
X-253670Y-132130D01*
X-252889Y-131608D01*
X-252033Y-131438D01*
X-251968Y-131451D01*
X-239173D01*
Y-131458D01*
X-236917Y-131310D01*
X-234700Y-130869D01*
X-232558Y-130142D01*
X-230531Y-129142D01*
X-228651Y-127886D01*
X-226951Y-126396D01*
X-225460Y-124696D01*
X-224204Y-122816D01*
X-223204Y-120788D01*
X-222477Y-118647D01*
X-222036Y-116429D01*
X-221888Y-114173D01*
X-221896D01*
X-221896Y-114173D01*
Y-102378D01*
X-221896Y-101378D01*
X-221738Y-100457D01*
X-221217Y-99676D01*
X-220436Y-99155D01*
X-219515Y-98997D01*
X-218515Y-98997D01*
X-216535D01*
X-216489Y-98988D01*
X-213507Y-98792D01*
X-210530Y-98200D01*
X-207656Y-97224D01*
X-204934Y-95882D01*
X-202410Y-94196D01*
X-200128Y-92195D01*
X-198127Y-89913D01*
X-196441Y-87389D01*
X-195098Y-84667D01*
X-194123Y-81793D01*
X-193531Y-78816D01*
X-193332Y-75787D01*
X-193332D01*
X-193352Y-75767D01*
X-193352Y-0D01*
X-193352Y67206D01*
X-192645Y67913D01*
X-91142Y67913D01*
X-90459Y67936D01*
X-89106Y68114D01*
X-87788Y68467D01*
X-86528Y68989D01*
X-85346Y69672D01*
X-84263Y70502D01*
X-83298Y71467D01*
X-82467Y72550D01*
X-81785Y73732D01*
X-81263Y74993D01*
X-80910Y76311D01*
X-80731Y77664D01*
X-80709Y78346D01*
X-80709Y78346D01*
X-80709Y152014D01*
X-66913D01*
X-66498Y151014D01*
X-66773Y150739D01*
X-67090Y149973D01*
Y149145D01*
X-66773Y148379D01*
X-66188Y147793D01*
X-65422Y147476D01*
X-64593D01*
X-63828Y147793D01*
X-63242Y148379D01*
X-62925Y149145D01*
Y149973D01*
X-63242Y150739D01*
X-63517Y151014D01*
X-63103Y152014D01*
X102412D01*
Y152014D01*
X103352Y151868D01*
X104027Y151588D01*
X104462Y151254D01*
X105177Y150567D01*
X105177Y150567D01*
X106472Y149505D01*
X107949Y148715D01*
X109551Y148229D01*
X111218Y148065D01*
Y148077D01*
X111218Y148077D01*
X127071D01*
X127071Y148077D01*
Y148065D01*
X128738Y148229D01*
X130340Y148715D01*
X131817Y149505D01*
X133111Y150567D01*
X133112Y150567D01*
X133827Y151254D01*
X134262Y151588D01*
X135041Y151911D01*
X135854Y152018D01*
X135875Y152014D01*
D02*
G37*
G36*
X-135041Y151911D02*
X-134262Y151588D01*
X-133827Y151254D01*
X-133112Y150567D01*
X-133111Y150567D01*
X-131817Y149505D01*
X-130340Y148715D01*
X-128738Y148229D01*
X-127071Y148065D01*
X-127071Y148077D01*
X-111218D01*
X-111218Y148065D01*
X-109551Y148229D01*
X-107949Y148715D01*
X-106472Y149505D01*
X-105177Y150567D01*
X-105177Y150567D01*
X-104462Y151254D01*
X-104027Y151588D01*
X-103352Y151868D01*
X-102412Y152014D01*
Y152014D01*
X-92520D01*
Y79724D01*
X-193711D01*
X-194123Y81793D01*
X-195098Y84667D01*
X-196441Y87389D01*
X-198127Y89913D01*
X-200128Y92195D01*
X-202410Y94196D01*
X-204934Y95882D01*
X-207656Y97224D01*
X-210530Y98200D01*
X-213507Y98792D01*
X-216488Y98988D01*
X-216535Y98997D01*
X-218515D01*
X-219515Y98997D01*
X-220436Y99155D01*
X-221217Y99676D01*
X-221738Y100457D01*
X-221896Y101378D01*
X-221896Y101378D01*
X-221896Y102378D01*
Y114173D01*
X-221896Y114173D01*
X-221888D01*
X-222036Y116429D01*
X-222477Y118647D01*
X-223204Y120788D01*
X-224204Y122816D01*
X-225460Y124696D01*
X-226951Y126396D01*
X-228651Y127886D01*
X-230531Y129142D01*
X-232558Y130142D01*
X-234700Y130869D01*
X-236917Y131310D01*
X-239173Y131458D01*
Y131451D01*
X-251968D01*
X-252033Y131438D01*
X-252889Y131608D01*
X-253670Y132130D01*
X-254192Y132911D01*
X-254362Y133767D01*
X-254349Y133832D01*
Y146053D01*
X-253349Y146630D01*
X-253230Y146561D01*
X-252399Y146339D01*
X-251538D01*
X-250707Y146561D01*
X-249962Y146992D01*
X-249354Y147600D01*
X-248923Y148345D01*
X-248701Y149176D01*
Y150037D01*
X-248923Y150868D01*
X-248927Y150873D01*
X-248350Y151874D01*
X-198089Y151936D01*
X-197674Y150937D01*
X-197840Y150771D01*
X-198301Y149973D01*
X-198539Y149083D01*
Y148161D01*
X-198301Y147271D01*
X-197840Y146473D01*
X-197188Y145821D01*
X-196390Y145361D01*
X-195500Y145122D01*
X-194579D01*
X-193688Y145361D01*
X-192890Y145821D01*
X-192239Y146473D01*
X-191778Y147271D01*
X-191539Y148161D01*
Y149083D01*
X-191778Y149973D01*
X-192239Y150771D01*
X-192411Y150944D01*
X-191997Y151944D01*
X-135875Y152014D01*
X-135854Y152018D01*
X-135041Y151911D01*
D02*
G37*
G36*
X43880Y-39499D02*
X44491Y-39753D01*
X45042Y-40120D01*
X45276Y-40354D01*
X45276Y-40354D01*
X50346Y-45425D01*
X50545Y-45623D01*
X50857Y-46090D01*
X51072Y-46609D01*
X51181Y-47160D01*
Y-47441D01*
Y-123375D01*
X50181Y-123848D01*
X49845Y-123572D01*
X48729Y-122976D01*
X47519Y-122609D01*
X46260Y-122485D01*
Y-122486D01*
X24606D01*
Y-122485D01*
X23347Y-122609D01*
X22137Y-122976D01*
X21022Y-123572D01*
X20044Y-124374D01*
X19241Y-125352D01*
X18645Y-126468D01*
X18278Y-127678D01*
X18154Y-128937D01*
X18156D01*
X18156Y-128937D01*
Y-153154D01*
X17869Y-153695D01*
X17327Y-153982D01*
X-0D01*
X-15694D01*
X-16271Y-152982D01*
X-16225Y-152902D01*
X-15949Y-151872D01*
Y-150805D01*
X-16225Y-149775D01*
X-16758Y-148851D01*
X-17513Y-148097D01*
X-18436Y-147563D01*
X-19467Y-147287D01*
X-20533D01*
X-21564Y-147563D01*
X-22488Y-148097D01*
X-23242Y-148851D01*
X-23775Y-149775D01*
X-24051Y-150805D01*
Y-151872D01*
X-23775Y-152902D01*
X-23729Y-152982D01*
X-24306Y-153982D01*
X-68898Y-153982D01*
Y-47652D01*
Y-47321D01*
X-68769Y-46672D01*
X-68515Y-46060D01*
X-68147Y-45510D01*
X-67913Y-45276D01*
Y-45276D01*
X-62751Y-40113D01*
X-62206Y-39749D01*
X-61600Y-39498D01*
X-60958Y-39370D01*
X43230D01*
X43880Y-39499D01*
D02*
G37*
%LPC*%
G36*
X148868Y137520D02*
X148039D01*
X147274Y137203D01*
X146688Y136617D01*
X146371Y135851D01*
Y135023D01*
X146688Y134257D01*
X147274Y133671D01*
X148039Y133354D01*
X148868D01*
X149633Y133671D01*
X150219Y134257D01*
X150536Y135023D01*
Y135851D01*
X150219Y136617D01*
X149633Y137203D01*
X148868Y137520D01*
D02*
G37*
G36*
X148872Y112909D02*
X148043D01*
X147278Y112592D01*
X146692Y112006D01*
X146375Y111241D01*
Y110413D01*
X146692Y109647D01*
X147278Y109061D01*
X148043Y108744D01*
X148872D01*
X149637Y109061D01*
X150223Y109647D01*
X150540Y110413D01*
Y111241D01*
X150223Y112006D01*
X149637Y112592D01*
X148872Y112909D01*
D02*
G37*
G36*
X0Y131458D02*
X-2256Y131311D01*
X-4474Y130869D01*
X-6615Y130143D01*
X-8642Y129143D01*
X-10522Y127887D01*
X-12222Y126396D01*
X-13713Y124696D01*
X-14969Y122816D01*
X-15969Y120788D01*
X-16696Y118647D01*
X-17137Y116430D01*
X-17285Y114173D01*
X-17137Y111917D01*
X-16696Y109700D01*
X-15969Y107559D01*
X-14969Y105531D01*
X-13713Y103651D01*
X-12222Y101951D01*
X-10522Y100460D01*
X-8642Y99204D01*
X-6615Y98204D01*
X-4474Y97477D01*
X-2256Y97036D01*
X0Y96888D01*
X2256Y97036D01*
X4474Y97477D01*
X6615Y98204D01*
X8642Y99204D01*
X10522Y100460D01*
X12222Y101951D01*
X13713Y103651D01*
X14969Y105531D01*
X15969Y107559D01*
X16696Y109700D01*
X17137Y111917D01*
X17285Y114173D01*
X17137Y116430D01*
X16696Y118647D01*
X15969Y120788D01*
X14969Y122816D01*
X13713Y124696D01*
X12222Y126396D01*
X10522Y127887D01*
X8642Y129143D01*
X6615Y130143D01*
X4474Y130869D01*
X2256Y131311D01*
X0Y131458D01*
D02*
G37*
G36*
X254351Y73638D02*
X253523D01*
X252757Y73321D01*
X252171Y72735D01*
X251854Y71969D01*
Y71141D01*
X252171Y70375D01*
X252757Y69789D01*
X253523Y69472D01*
X254351D01*
X255117Y69789D01*
X255703Y70375D01*
X256020Y71141D01*
Y71969D01*
X255703Y72735D01*
X255117Y73321D01*
X254351Y73638D01*
D02*
G37*
G36*
X107698Y67043D02*
X106869D01*
X106104Y66726D01*
X105518Y66140D01*
X105201Y65375D01*
Y64546D01*
X105518Y63781D01*
X106104Y63195D01*
X106869Y62878D01*
X107698D01*
X108463Y63195D01*
X109049Y63781D01*
X109366Y64546D01*
Y65375D01*
X109049Y66140D01*
X108463Y66726D01*
X107698Y67043D01*
D02*
G37*
G36*
X116556Y63106D02*
X115727D01*
X114962Y62789D01*
X114376Y62203D01*
X114059Y61438D01*
Y60609D01*
X114376Y59844D01*
X114962Y59258D01*
X115727Y58941D01*
X116556D01*
X117322Y59258D01*
X117907Y59844D01*
X118224Y60609D01*
Y61438D01*
X117907Y62203D01*
X117322Y62789D01*
X116556Y63106D01*
D02*
G37*
G36*
X-123601Y60154D02*
X-124430D01*
X-125196Y59837D01*
X-125781Y59251D01*
X-126099Y58485D01*
Y57657D01*
X-125781Y56891D01*
X-125196Y56305D01*
X-124430Y55988D01*
X-123601D01*
X-122836Y56305D01*
X-122250Y56891D01*
X-121933Y57657D01*
Y58485D01*
X-122250Y59251D01*
X-122836Y59837D01*
X-123601Y60154D01*
D02*
G37*
G36*
X259371Y59268D02*
X258542D01*
X257777Y58951D01*
X257191Y58365D01*
X256874Y57599D01*
Y56771D01*
X257191Y56005D01*
X257777Y55419D01*
X258542Y55102D01*
X259371D01*
X260136Y55419D01*
X260722Y56005D01*
X261039Y56771D01*
Y57599D01*
X260722Y58365D01*
X260136Y58951D01*
X259371Y59268D01*
D02*
G37*
G36*
X249331D02*
X248503D01*
X247738Y58951D01*
X247152Y58365D01*
X246835Y57599D01*
Y56771D01*
X247152Y56005D01*
X247738Y55419D01*
X248503Y55102D01*
X249331D01*
X250097Y55419D01*
X250683Y56005D01*
X251000Y56771D01*
Y57599D01*
X250683Y58365D01*
X250097Y58951D01*
X249331Y59268D01*
D02*
G37*
G36*
X-130491Y58185D02*
X-131320D01*
X-132085Y57868D01*
X-132671Y57282D01*
X-132988Y56517D01*
Y55688D01*
X-132671Y54923D01*
X-132085Y54337D01*
X-131320Y54020D01*
X-130491D01*
X-129726Y54337D01*
X-129140Y54923D01*
X-128823Y55688D01*
Y56517D01*
X-129140Y57282D01*
X-129726Y57868D01*
X-130491Y58185D01*
D02*
G37*
G36*
X-136987Y56020D02*
X-137816D01*
X-138581Y55703D01*
X-139167Y55117D01*
X-139484Y54351D01*
Y53523D01*
X-139167Y52757D01*
X-138581Y52171D01*
X-137816Y51854D01*
X-136987D01*
X-136222Y52171D01*
X-135636Y52757D01*
X-135319Y53523D01*
Y54351D01*
X-135636Y55117D01*
X-136222Y55703D01*
X-136987Y56020D01*
D02*
G37*
G36*
X133288Y50311D02*
X132460D01*
X131694Y49994D01*
X131108Y49408D01*
X130791Y48643D01*
Y47814D01*
X131108Y47049D01*
X131694Y46463D01*
X132460Y46146D01*
X133288D01*
X134054Y46463D01*
X134640Y47049D01*
X134957Y47814D01*
Y48643D01*
X134640Y49408D01*
X134054Y49994D01*
X133288Y50311D01*
D02*
G37*
G36*
X83091D02*
X82263D01*
X81497Y49994D01*
X80912Y49408D01*
X80594Y48643D01*
Y47814D01*
X80912Y47049D01*
X81497Y46463D01*
X82263Y46146D01*
X83091D01*
X83857Y46463D01*
X84443Y47049D01*
X84760Y47814D01*
Y48643D01*
X84443Y49408D01*
X83857Y49994D01*
X83091Y50311D01*
D02*
G37*
G36*
Y43421D02*
X82263D01*
X81497Y43104D01*
X80912Y42518D01*
X80594Y41753D01*
Y40924D01*
X80912Y40159D01*
X81497Y39573D01*
X82263Y39256D01*
X83091D01*
X83857Y39573D01*
X84443Y40159D01*
X84760Y40924D01*
Y41753D01*
X84443Y42518D01*
X83857Y43104D01*
X83091Y43421D01*
D02*
G37*
G36*
X251595Y42240D02*
X250767D01*
X250001Y41923D01*
X249415Y41337D01*
X249098Y40572D01*
Y39743D01*
X249415Y38978D01*
X250001Y38392D01*
X250767Y38075D01*
X251595D01*
X252361Y38392D01*
X252947Y38978D01*
X253264Y39743D01*
Y40572D01*
X252947Y41337D01*
X252361Y41923D01*
X251595Y42240D01*
D02*
G37*
G36*
X257501Y41059D02*
X256672D01*
X255907Y40742D01*
X255321Y40156D01*
X255004Y39391D01*
Y38562D01*
X255321Y37797D01*
X255907Y37211D01*
X256672Y36894D01*
X257501D01*
X258266Y37211D01*
X258852Y37797D01*
X259169Y38562D01*
Y39391D01*
X258852Y40156D01*
X258266Y40742D01*
X257501Y41059D01*
D02*
G37*
G36*
X133288Y39976D02*
X132460D01*
X131694Y39659D01*
X131108Y39073D01*
X130791Y38308D01*
Y37479D01*
X131108Y36714D01*
X131694Y36128D01*
X132460Y35811D01*
X133288D01*
X134054Y36128D01*
X134640Y36714D01*
X134957Y37479D01*
Y38308D01*
X134640Y39073D01*
X134054Y39659D01*
X133288Y39976D01*
D02*
G37*
G36*
X-36003Y35547D02*
X-36832D01*
X-37597Y35230D01*
X-37732Y35095D01*
X-38386Y34751D01*
X-39039Y35095D01*
X-39175Y35230D01*
X-39940Y35547D01*
X-40769D01*
X-41534Y35230D01*
X-42120Y34644D01*
X-42437Y33879D01*
Y33050D01*
X-42120Y32285D01*
X-41984Y32149D01*
X-41641Y31496D01*
X-41984Y30843D01*
X-42120Y30707D01*
X-42437Y29942D01*
Y29113D01*
X-42120Y28348D01*
X-41534Y27762D01*
X-40769Y27445D01*
X-39940D01*
X-39175Y27762D01*
X-39039Y27897D01*
X-38386Y28241D01*
X-37732Y27897D01*
X-37597Y27762D01*
X-36832Y27445D01*
X-36003D01*
X-35238Y27762D01*
X-34652Y28348D01*
X-34335Y29113D01*
Y29942D01*
X-34652Y30707D01*
X-34787Y30843D01*
X-35131Y31496D01*
X-34787Y32149D01*
X-34652Y32285D01*
X-34335Y33050D01*
Y33879D01*
X-34652Y34644D01*
X-35238Y35230D01*
X-36003Y35547D01*
D02*
G37*
G36*
X-127539Y53264D02*
X-128367D01*
X-129132Y52947D01*
X-129718Y52361D01*
X-130035Y51595D01*
Y50767D01*
X-129718Y50001D01*
X-129132Y49415D01*
X-128874Y49308D01*
X-128067Y48643D01*
Y47814D01*
X-127750Y47049D01*
X-127164Y46463D01*
X-126905Y46356D01*
X-126098Y45690D01*
Y44861D01*
X-125781Y44096D01*
X-125196Y43510D01*
X-124937Y43403D01*
X-124130Y42737D01*
Y41909D01*
X-123813Y41143D01*
X-123227Y40557D01*
X-122968Y40450D01*
X-122161Y39784D01*
Y38956D01*
X-121844Y38190D01*
X-121258Y37604D01*
X-121000Y37497D01*
X-120193Y36832D01*
Y36003D01*
X-119876Y35238D01*
X-119290Y34652D01*
X-118525Y34335D01*
X-117696D01*
X-116930Y34652D01*
X-116345Y35238D01*
X-116028Y36003D01*
Y36832D01*
X-116345Y37597D01*
X-116930Y38183D01*
X-117189Y38290D01*
X-117996Y38956D01*
Y39784D01*
X-118313Y40550D01*
X-118899Y41136D01*
X-119158Y41243D01*
X-119965Y41909D01*
Y42737D01*
X-120282Y43503D01*
X-120868Y44088D01*
X-121126Y44196D01*
X-121933Y44861D01*
Y45690D01*
X-122250Y46455D01*
X-122836Y47041D01*
X-123095Y47148D01*
X-123902Y47814D01*
Y48643D01*
X-124219Y49408D01*
X-124804Y49994D01*
X-125063Y50101D01*
X-125870Y50767D01*
Y51595D01*
X-126187Y52361D01*
X-126773Y52947D01*
X-127539Y53264D01*
D02*
G37*
G36*
X83091Y36531D02*
X82263D01*
X81497Y36214D01*
X80912Y35629D01*
X80594Y34863D01*
Y34035D01*
X80912Y33269D01*
X81497Y32683D01*
X82263Y32366D01*
X83091D01*
X83857Y32683D01*
X84443Y33269D01*
X84760Y34035D01*
Y34863D01*
X84443Y35629D01*
X83857Y36214D01*
X83091Y36531D01*
D02*
G37*
G36*
X192540Y30429D02*
X191712D01*
X190946Y30112D01*
X190360Y29526D01*
X190043Y28761D01*
Y27932D01*
X190360Y27167D01*
X190946Y26581D01*
X191712Y26264D01*
X192540D01*
X193306Y26581D01*
X193892Y27167D01*
X194209Y27932D01*
Y28761D01*
X193892Y29526D01*
X193306Y30112D01*
X192540Y30429D01*
D02*
G37*
G36*
X83091Y29642D02*
X82263D01*
X81497Y29325D01*
X80912Y28739D01*
X80594Y27973D01*
Y27145D01*
X80912Y26379D01*
X81497Y25793D01*
X82263Y25476D01*
X83091D01*
X83857Y25793D01*
X84443Y26379D01*
X84760Y27145D01*
Y27973D01*
X84443Y28739D01*
X83857Y29325D01*
X83091Y29642D01*
D02*
G37*
G36*
X182698Y28067D02*
X181869D01*
X181104Y27750D01*
X180518Y27164D01*
X180201Y26399D01*
Y25570D01*
X180518Y24805D01*
X181104Y24219D01*
X181869Y23902D01*
X182698D01*
X183463Y24219D01*
X184049Y24805D01*
X184366Y25570D01*
Y26399D01*
X184049Y27164D01*
X183463Y27750D01*
X182698Y28067D01*
D02*
G37*
G36*
X190178Y25705D02*
X189349D01*
X188584Y25388D01*
X187998Y24802D01*
X187681Y24036D01*
Y23208D01*
X187998Y22442D01*
X188584Y21857D01*
X189349Y21539D01*
X190178D01*
X190944Y21857D01*
X191529Y22442D01*
X191847Y23208D01*
Y24036D01*
X191529Y24802D01*
X190944Y25388D01*
X190178Y25705D01*
D02*
G37*
G36*
X83091Y22752D02*
X82263D01*
X81497Y22435D01*
X80912Y21849D01*
X80594Y21084D01*
Y20255D01*
X80912Y19489D01*
X81497Y18904D01*
X82263Y18587D01*
X83091D01*
X83857Y18904D01*
X84443Y19489D01*
X84760Y20255D01*
Y21084D01*
X84443Y21849D01*
X83857Y22435D01*
X83091Y22752D01*
D02*
G37*
G36*
X113603Y13894D02*
X112775D01*
X112009Y13577D01*
X111874Y13441D01*
X111221Y13097D01*
X110567Y13441D01*
X110432Y13577D01*
X109666Y13894D01*
X108838D01*
X108072Y13577D01*
X107486Y12991D01*
X107169Y12225D01*
Y11397D01*
X107486Y10631D01*
X108072Y10045D01*
X108838Y9728D01*
X109666D01*
X110432Y10045D01*
X110567Y10181D01*
X111221Y10525D01*
X111874Y10181D01*
X112009Y10045D01*
X112775Y9728D01*
X113603D01*
X114369Y10045D01*
X114955Y10631D01*
X115272Y11397D01*
Y12225D01*
X114955Y12991D01*
X114369Y13577D01*
X113603Y13894D01*
D02*
G37*
G36*
X83091Y15862D02*
X82263D01*
X81497Y15545D01*
X80912Y14959D01*
X80594Y14194D01*
Y13365D01*
X80912Y12600D01*
X81497Y12014D01*
X82263Y11697D01*
X83091D01*
X83857Y12014D01*
X84443Y12600D01*
X84760Y13365D01*
Y14194D01*
X84443Y14959D01*
X83857Y15545D01*
X83091Y15862D01*
D02*
G37*
G36*
X234752Y12638D02*
Y10590D01*
X233752D01*
Y12638D01*
X233072Y12356D01*
X232486Y11770D01*
X232169Y11005D01*
Y10711D01*
X231420Y10009D01*
X230582Y10315D01*
X230429Y10614D01*
Y11005D01*
X230112Y11770D01*
X229526Y12356D01*
X228846Y12638D01*
Y10590D01*
X227846D01*
Y12638D01*
X227167Y12356D01*
X226581Y11770D01*
X226264Y11005D01*
Y10614D01*
X225962Y10022D01*
X225370Y9720D01*
X224979D01*
X224214Y9403D01*
X223628Y8817D01*
X223347Y8138D01*
X225394D01*
Y7138D01*
X223347D01*
X223628Y6458D01*
X224214Y5872D01*
X224979Y5555D01*
X225370D01*
X225962Y5253D01*
X226252Y4685D01*
X225962Y4117D01*
X225370Y3815D01*
X224979D01*
X224214Y3498D01*
X223628Y2912D01*
X223347Y2232D01*
X225394D01*
Y1232D01*
X223347D01*
X223628Y553D01*
X224214Y-33D01*
X224979Y-350D01*
X225370D01*
X225962Y-652D01*
X226264Y-1244D01*
Y-1635D01*
X226581Y-2400D01*
X227167Y-2986D01*
X227846Y-3268D01*
Y-1221D01*
X228846D01*
Y-3268D01*
X229526Y-2986D01*
X230112Y-2400D01*
X230429Y-1635D01*
Y-1244D01*
X230582Y-945D01*
X231420Y-639D01*
X232169Y-1341D01*
Y-1635D01*
X232486Y-2400D01*
X233072Y-2986D01*
X233752Y-3268D01*
Y-1221D01*
X234752D01*
Y-3268D01*
X235432Y-2986D01*
X236018Y-2400D01*
X236335Y-1635D01*
Y-1244D01*
X236636Y-652D01*
X237228Y-350D01*
X237619D01*
X238385Y-33D01*
X238970Y553D01*
X239252Y1232D01*
X237205D01*
Y2232D01*
X239252D01*
X238970Y2912D01*
X238385Y3498D01*
X237619Y3815D01*
X237228D01*
X236929Y3968D01*
X236667Y4685D01*
X236929Y5403D01*
X237228Y5555D01*
X237619D01*
X238385Y5872D01*
X238970Y6458D01*
X239252Y7138D01*
X237205D01*
Y8138D01*
X239252D01*
X238970Y8817D01*
X238385Y9403D01*
X237619Y9720D01*
X237228D01*
X236636Y10022D01*
X236335Y10614D01*
Y11005D01*
X236018Y11770D01*
X235432Y12356D01*
X234752Y12638D01*
D02*
G37*
G36*
X-97588Y9396D02*
X-98416D01*
X-99182Y9079D01*
X-99768Y8493D01*
X-100085Y7727D01*
Y6899D01*
X-99768Y6133D01*
X-99182Y5547D01*
X-98416Y5230D01*
X-97588D01*
X-96822Y5547D01*
X-96236Y6133D01*
X-95919Y6899D01*
Y7727D01*
X-96236Y8493D01*
X-96822Y9079D01*
X-97588Y9396D01*
D02*
G37*
G36*
X100808Y5035D02*
X99979D01*
X99214Y4718D01*
X98628Y4132D01*
X98311Y3367D01*
Y2538D01*
X98628Y1773D01*
X99214Y1187D01*
X99979Y870D01*
X100808D01*
X101573Y1187D01*
X102159Y1773D01*
X102476Y2538D01*
Y3367D01*
X102159Y4132D01*
X101573Y4718D01*
X100808Y5035D01*
D02*
G37*
G36*
X151202Y4051D02*
X150373D01*
X149608Y3734D01*
X149022Y3148D01*
X148705Y2383D01*
Y1554D01*
X149022Y789D01*
X149608Y203D01*
X150373Y-114D01*
X151202D01*
X151967Y203D01*
X152553Y789D01*
X152870Y1554D01*
Y2383D01*
X152553Y3148D01*
X151967Y3734D01*
X151202Y4051D01*
D02*
G37*
G36*
X83288D02*
X82460D01*
X81694Y3734D01*
X81108Y3148D01*
X80791Y2383D01*
Y1554D01*
X81108Y789D01*
X81694Y203D01*
X82460Y-114D01*
X83288D01*
X84054Y203D01*
X84640Y789D01*
X84957Y1554D01*
Y2383D01*
X84640Y3148D01*
X84054Y3734D01*
X83288Y4051D01*
D02*
G37*
G36*
X-136200Y6906D02*
X-137029D01*
X-137794Y6588D01*
X-138380Y6003D01*
X-138697Y5237D01*
Y4409D01*
X-138380Y3643D01*
X-137935Y3199D01*
X-138380Y2754D01*
X-138697Y1989D01*
Y1160D01*
X-138380Y395D01*
X-137794Y-191D01*
X-137029Y-508D01*
X-136200D01*
X-135434Y-191D01*
X-134849Y395D01*
X-134531Y1160D01*
Y1989D01*
X-134849Y2754D01*
X-135293Y3199D01*
X-134849Y3643D01*
X-134531Y4409D01*
Y5237D01*
X-134849Y6003D01*
X-135434Y6588D01*
X-136200Y6906D01*
D02*
G37*
G36*
X-148995Y3657D02*
X-149824D01*
X-150589Y3340D01*
X-151175Y2754D01*
X-151492Y1989D01*
Y1160D01*
X-151175Y395D01*
X-150589Y-191D01*
X-149824Y-508D01*
X-148995D01*
X-148230Y-191D01*
X-147644Y395D01*
X-147327Y1160D01*
Y1989D01*
X-147644Y2754D01*
X-148230Y3340D01*
X-148995Y3657D01*
D02*
G37*
G36*
X-114812Y-2770D02*
X-115641D01*
X-116406Y-3087D01*
X-116992Y-3672D01*
X-117309Y-4438D01*
Y-5267D01*
X-116992Y-6032D01*
X-116406Y-6618D01*
X-115641Y-6935D01*
X-114812D01*
X-114047Y-6618D01*
X-113461Y-6032D01*
X-113144Y-5267D01*
Y-4438D01*
X-113461Y-3672D01*
X-114047Y-3087D01*
X-114812Y-2770D01*
D02*
G37*
G36*
X-106967Y-2642D02*
X-107796D01*
X-108562Y-2959D01*
X-109147Y-3545D01*
X-109465Y-4310D01*
Y-5139D01*
X-109147Y-5904D01*
X-108562Y-6490D01*
X-107796Y-6807D01*
X-106967D01*
X-106202Y-6490D01*
X-105978Y-6266D01*
X-104834Y-6422D01*
X-104830Y-6425D01*
X-104766Y-6580D01*
X-104180Y-7166D01*
X-103414Y-7483D01*
X-102586D01*
X-101820Y-7166D01*
X-101234Y-6580D01*
X-100917Y-5814D01*
Y-4986D01*
X-101234Y-4220D01*
X-101820Y-3634D01*
X-102586Y-3317D01*
X-103414D01*
X-104180Y-3634D01*
X-104404Y-3858D01*
X-105548Y-3703D01*
X-105552Y-3700D01*
X-105616Y-3545D01*
X-106202Y-2959D01*
X-106967Y-2642D01*
D02*
G37*
G36*
X132304Y-5791D02*
X131475D01*
X130710Y-6108D01*
X130124Y-6694D01*
X129807Y-7460D01*
Y-8288D01*
X130124Y-9054D01*
X130710Y-9640D01*
X131475Y-9957D01*
X132304D01*
X133070Y-9640D01*
X133655Y-9054D01*
X133972Y-8288D01*
Y-7460D01*
X133655Y-6694D01*
X133070Y-6108D01*
X132304Y-5791D01*
D02*
G37*
G36*
X-96786Y-5317D02*
X-97614D01*
X-98380Y-5634D01*
X-98966Y-6220D01*
X-99283Y-6986D01*
Y-7814D01*
X-98966Y-8580D01*
X-98380Y-9166D01*
X-97614Y-9483D01*
X-96786D01*
X-96698Y-9541D01*
X-95988Y-10235D01*
Y-10840D01*
X-95671Y-11605D01*
X-95085Y-12191D01*
X-94320Y-12508D01*
X-93491D01*
X-92726Y-12191D01*
X-92140Y-11605D01*
X-91823Y-10840D01*
Y-10011D01*
X-92140Y-9246D01*
X-92726Y-8660D01*
X-93491Y-8343D01*
X-94320D01*
X-94408Y-8284D01*
X-95117Y-7591D01*
Y-6986D01*
X-95434Y-6220D01*
X-96020Y-5634D01*
X-96786Y-5317D01*
D02*
G37*
G36*
X166950Y-12878D02*
X166121D01*
X165356Y-13195D01*
X165220Y-13331D01*
X164567Y-13674D01*
X163914Y-13331D01*
X163778Y-13195D01*
X163013Y-12878D01*
X162184D01*
X161419Y-13195D01*
X160833Y-13781D01*
X160516Y-14546D01*
Y-15375D01*
X160833Y-16140D01*
X161419Y-16726D01*
X162184Y-17043D01*
X163013D01*
X163778Y-16726D01*
X163914Y-16591D01*
X164567Y-16247D01*
X165220Y-16591D01*
X165356Y-16726D01*
X166121Y-17043D01*
X166950D01*
X167715Y-16726D01*
X168301Y-16140D01*
X168618Y-15375D01*
Y-14546D01*
X168301Y-13781D01*
X167715Y-13195D01*
X166950Y-12878D01*
D02*
G37*
G36*
X144509Y-12484D02*
X143680D01*
X142915Y-12801D01*
X142329Y-13387D01*
X142012Y-14153D01*
Y-14981D01*
X142329Y-15747D01*
X142915Y-16332D01*
X143680Y-16650D01*
X144509D01*
X145274Y-16332D01*
X145860Y-15747D01*
X146177Y-14981D01*
Y-14153D01*
X145860Y-13387D01*
X145274Y-12801D01*
X144509Y-12484D01*
D02*
G37*
G36*
X-82952Y-15142D02*
X-83780D01*
X-84546Y-15459D01*
X-85132Y-16045D01*
X-85449Y-16810D01*
Y-17639D01*
X-85132Y-18404D01*
X-84546Y-18990D01*
X-83780Y-19307D01*
X-82952D01*
X-82186Y-18990D01*
X-81600Y-18404D01*
X-81283Y-17639D01*
Y-16810D01*
X-81600Y-16045D01*
X-82186Y-15459D01*
X-82952Y-15142D01*
D02*
G37*
G36*
X-136389Y-14248D02*
X-137217D01*
X-137983Y-14565D01*
X-138569Y-15151D01*
X-138886Y-15916D01*
Y-16745D01*
X-138569Y-17510D01*
X-137983Y-18096D01*
X-137217Y-18413D01*
X-136506D01*
X-136389Y-18413D01*
X-136318Y-18416D01*
X-135697Y-19436D01*
X-135722Y-19489D01*
X-135757Y-19574D01*
X-136039Y-20255D01*
Y-21084D01*
X-135722Y-21849D01*
X-135136Y-22435D01*
X-134371Y-22752D01*
X-133542D01*
X-132777Y-22435D01*
X-132191Y-21849D01*
X-131874Y-21084D01*
Y-20255D01*
X-132191Y-19489D01*
X-132777Y-18904D01*
X-133542Y-18587D01*
X-134254D01*
X-134371Y-18587D01*
X-134442Y-18584D01*
X-135063Y-17564D01*
X-135038Y-17510D01*
X-135003Y-17426D01*
X-134721Y-16745D01*
Y-15916D01*
X-135038Y-15151D01*
X-135624Y-14565D01*
X-136389Y-14248D01*
D02*
G37*
G36*
X-148798Y-18587D02*
X-149627D01*
X-150392Y-18904D01*
X-150978Y-19489D01*
X-151295Y-20255D01*
Y-21084D01*
X-150978Y-21849D01*
X-150392Y-22435D01*
X-149627Y-22752D01*
X-148798D01*
X-148033Y-22435D01*
X-147447Y-21849D01*
X-147130Y-21084D01*
Y-20255D01*
X-147447Y-19489D01*
X-148033Y-18904D01*
X-148798Y-18587D01*
D02*
G37*
G36*
X186635Y-19571D02*
X185806D01*
X185041Y-19888D01*
X184455Y-20474D01*
X184138Y-21239D01*
Y-22068D01*
X184455Y-22833D01*
X185041Y-23419D01*
X185806Y-23736D01*
X186635D01*
X187400Y-23419D01*
X187986Y-22833D01*
X188303Y-22068D01*
Y-21239D01*
X187986Y-20474D01*
X187400Y-19888D01*
X186635Y-19571D01*
D02*
G37*
G36*
X-73995Y-23508D02*
X-74824D01*
X-75589Y-23825D01*
X-76175Y-24411D01*
X-76492Y-25176D01*
Y-26005D01*
X-76175Y-26770D01*
X-75589Y-27356D01*
X-74824Y-27673D01*
X-73995D01*
X-73230Y-27356D01*
X-72644Y-26770D01*
X-72327Y-26005D01*
Y-25176D01*
X-72644Y-24411D01*
X-73230Y-23825D01*
X-73995Y-23508D01*
D02*
G37*
G36*
X180729Y-25083D02*
X179901D01*
X179135Y-25400D01*
X178549Y-25986D01*
X178232Y-26751D01*
Y-27580D01*
X178549Y-28345D01*
X179135Y-28931D01*
X179901Y-29248D01*
X180729D01*
X181495Y-28931D01*
X182081Y-28345D01*
X182398Y-27580D01*
Y-26751D01*
X182081Y-25986D01*
X181495Y-25400D01*
X180729Y-25083D01*
D02*
G37*
G36*
X198446Y-26264D02*
X197617D01*
X196852Y-26581D01*
X196266Y-27167D01*
X195949Y-27932D01*
Y-28761D01*
X196266Y-29526D01*
X196852Y-30112D01*
X197617Y-30429D01*
X198446D01*
X199211Y-30112D01*
X199797Y-29526D01*
X200114Y-28761D01*
Y-27932D01*
X199797Y-27167D01*
X199211Y-26581D01*
X198446Y-26264D01*
D02*
G37*
G36*
X192540Y-26657D02*
X191712D01*
X190946Y-26974D01*
X190360Y-27560D01*
X190043Y-28326D01*
Y-29154D01*
X190360Y-29920D01*
X190946Y-30506D01*
X191712Y-30823D01*
X192540D01*
X193306Y-30506D01*
X193892Y-29920D01*
X194209Y-29154D01*
Y-28326D01*
X193892Y-27560D01*
X193306Y-26974D01*
X192540Y-26657D01*
D02*
G37*
G36*
X151005Y-29413D02*
X150176D01*
X149411Y-29730D01*
X148825Y-30316D01*
X148508Y-31082D01*
Y-31910D01*
X148825Y-32676D01*
X149411Y-33262D01*
X150176Y-33579D01*
X151005D01*
X151770Y-33262D01*
X152356Y-32676D01*
X152673Y-31910D01*
Y-31082D01*
X152356Y-30316D01*
X151770Y-29730D01*
X151005Y-29413D01*
D02*
G37*
G36*
X-147223Y-29413D02*
X-148052D01*
X-148818Y-29730D01*
X-149403Y-30316D01*
X-149721Y-31082D01*
Y-31910D01*
X-149403Y-32676D01*
X-148818Y-33262D01*
X-148052Y-33579D01*
X-147223D01*
X-146458Y-33262D01*
X-145872Y-32676D01*
X-145555Y-31910D01*
Y-31082D01*
X-145872Y-30316D01*
X-146458Y-29730D01*
X-147223Y-29413D01*
D02*
G37*
G36*
X-127243Y-29512D02*
X-128072D01*
X-128837Y-29829D01*
X-129423Y-30415D01*
X-129740Y-31180D01*
Y-32009D01*
X-129423Y-32774D01*
X-128837Y-33360D01*
X-128072Y-33677D01*
X-127243D01*
X-126478Y-33360D01*
X-125892Y-32774D01*
X-125575Y-32009D01*
Y-31180D01*
X-125892Y-30415D01*
X-126478Y-29829D01*
X-127243Y-29512D01*
D02*
G37*
G36*
X-155098Y-30398D02*
X-155926D01*
X-156692Y-30715D01*
X-157278Y-31301D01*
X-157595Y-32066D01*
Y-32895D01*
X-157278Y-33660D01*
X-156692Y-34246D01*
X-155926Y-34563D01*
X-155098D01*
X-154332Y-34246D01*
X-153746Y-33660D01*
X-153429Y-32895D01*
Y-32066D01*
X-153746Y-31301D01*
X-154332Y-30715D01*
X-155098Y-30398D01*
D02*
G37*
G36*
X-122027Y-31382D02*
X-122855D01*
X-123621Y-31699D01*
X-124207Y-32285D01*
X-124524Y-33050D01*
Y-33879D01*
X-124207Y-34644D01*
X-123621Y-35230D01*
X-122855Y-35547D01*
X-122027D01*
X-121261Y-35230D01*
X-120675Y-34644D01*
X-120358Y-33879D01*
Y-33050D01*
X-120675Y-32285D01*
X-121261Y-31699D01*
X-122027Y-31382D01*
D02*
G37*
G36*
X-102342Y-34532D02*
X-103170D01*
X-103936Y-34849D01*
X-104522Y-35434D01*
X-104839Y-36200D01*
Y-37028D01*
X-104522Y-37794D01*
X-103936Y-38380D01*
X-103170Y-38697D01*
X-102342D01*
X-101576Y-38380D01*
X-100990Y-37794D01*
X-100673Y-37028D01*
Y-36200D01*
X-100990Y-35434D01*
X-101576Y-34849D01*
X-102342Y-34532D01*
D02*
G37*
G36*
X-89350Y-36500D02*
X-90178D01*
X-90943Y-36817D01*
X-91529Y-37403D01*
X-91847Y-38168D01*
Y-38997D01*
X-91529Y-39762D01*
X-90943Y-40348D01*
X-90178Y-40665D01*
X-89350D01*
X-88584Y-40348D01*
X-87998Y-39762D01*
X-87681Y-38997D01*
Y-38168D01*
X-87998Y-37403D01*
X-88584Y-36817D01*
X-89350Y-36500D01*
D02*
G37*
G36*
X227973Y-38075D02*
X227145D01*
X226379Y-38392D01*
X225793Y-38978D01*
X225476Y-39743D01*
Y-40572D01*
X225793Y-41337D01*
X226379Y-41923D01*
X227145Y-42240D01*
X227973D01*
X228739Y-41923D01*
X229325Y-41337D01*
X229642Y-40572D01*
Y-39743D01*
X229325Y-38978D01*
X228739Y-38392D01*
X227973Y-38075D01*
D02*
G37*
G36*
X-110216Y-35319D02*
X-111044D01*
X-111810Y-35636D01*
X-112396Y-36222D01*
X-112713Y-36987D01*
Y-37816D01*
X-113337Y-38636D01*
X-113923Y-39222D01*
X-114240Y-39987D01*
Y-40816D01*
X-113923Y-41581D01*
X-113337Y-42167D01*
X-112572Y-42484D01*
X-111743D01*
X-110978Y-42167D01*
X-110392Y-41581D01*
X-110075Y-40816D01*
Y-40687D01*
X-109075Y-40488D01*
X-109049Y-40550D01*
X-108463Y-41136D01*
X-107698Y-41453D01*
X-107307D01*
X-106715Y-41755D01*
X-106413Y-42346D01*
Y-42737D01*
X-106096Y-43503D01*
X-105510Y-44089D01*
X-104745Y-44406D01*
X-103916D01*
X-103151Y-44089D01*
X-102565Y-43503D01*
X-102248Y-42737D01*
Y-41909D01*
X-102565Y-41143D01*
X-103151Y-40557D01*
X-103916Y-40240D01*
X-104307D01*
X-104899Y-39938D01*
X-105201Y-39347D01*
Y-38956D01*
X-105518Y-38190D01*
X-106104Y-37604D01*
X-106869Y-37287D01*
X-107698D01*
X-108547Y-36987D01*
X-108864Y-36222D01*
X-109450Y-35636D01*
X-110216Y-35319D01*
D02*
G37*
G36*
X250414Y-45949D02*
X249586D01*
X248820Y-46266D01*
X248234Y-46852D01*
X247917Y-47617D01*
Y-48446D01*
X248234Y-49211D01*
X248820Y-49797D01*
X249586Y-50114D01*
X250414D01*
X251180Y-49797D01*
X251766Y-49211D01*
X252083Y-48446D01*
Y-47617D01*
X251766Y-46852D01*
X251180Y-46266D01*
X250414Y-45949D01*
D02*
G37*
G36*
X-127145Y-47031D02*
X-127973D01*
X-128739Y-47348D01*
X-129325Y-47934D01*
X-129642Y-48700D01*
Y-49528D01*
X-129325Y-50294D01*
X-128739Y-50880D01*
X-127973Y-51197D01*
X-127145D01*
X-126379Y-50880D01*
X-125793Y-50294D01*
X-125476Y-49528D01*
Y-48700D01*
X-125793Y-47934D01*
X-126379Y-47348D01*
X-127145Y-47031D01*
D02*
G37*
G36*
X-173831Y-44145D02*
X-174659D01*
X-175425Y-44462D01*
X-176011Y-45048D01*
X-176328Y-45813D01*
Y-46642D01*
X-176011Y-47407D01*
X-175875Y-47543D01*
X-175532Y-48196D01*
X-175875Y-48849D01*
X-176011Y-48985D01*
X-176328Y-49750D01*
Y-50579D01*
X-176011Y-51344D01*
X-175425Y-51930D01*
X-174659Y-52247D01*
X-173831D01*
X-173065Y-51930D01*
X-172479Y-51344D01*
X-172162Y-50579D01*
Y-49750D01*
X-172479Y-48985D01*
X-172615Y-48849D01*
X-172959Y-48196D01*
X-172615Y-47543D01*
X-172479Y-47407D01*
X-172162Y-46642D01*
Y-45813D01*
X-172479Y-45048D01*
X-173065Y-44462D01*
X-173831Y-44145D01*
D02*
G37*
G36*
X-179736D02*
X-180565D01*
X-181330Y-44462D01*
X-181916Y-45048D01*
X-182233Y-45813D01*
Y-46642D01*
X-181916Y-47407D01*
X-181781Y-47543D01*
X-181437Y-48196D01*
X-181781Y-48849D01*
X-181916Y-48985D01*
X-182233Y-49750D01*
Y-50579D01*
X-181916Y-51344D01*
X-181330Y-51930D01*
X-180565Y-52247D01*
X-179736D01*
X-178971Y-51930D01*
X-178385Y-51344D01*
X-178068Y-50579D01*
Y-49750D01*
X-178385Y-48985D01*
X-178521Y-48849D01*
X-178864Y-48196D01*
X-178521Y-47543D01*
X-178385Y-47407D01*
X-178068Y-46642D01*
Y-45813D01*
X-178385Y-45048D01*
X-178971Y-44462D01*
X-179736Y-44145D01*
D02*
G37*
G36*
X184715Y-53085D02*
X183887D01*
X183122Y-53402D01*
X182536Y-53987D01*
X182219Y-54753D01*
Y-55582D01*
X182536Y-56347D01*
X183122Y-56933D01*
X183887Y-57250D01*
X184715D01*
X185481Y-56933D01*
X186067Y-56347D01*
X186384Y-55582D01*
Y-54753D01*
X186067Y-53987D01*
X185481Y-53402D01*
X184715Y-53085D01*
D02*
G37*
G36*
X-121239Y-53429D02*
X-122068D01*
X-122833Y-53746D01*
X-123419Y-54332D01*
X-123736Y-55098D01*
Y-55926D01*
X-123419Y-56691D01*
X-122833Y-57277D01*
X-122068Y-57595D01*
X-121239D01*
X-120474Y-57277D01*
X-119888Y-56691D01*
X-119571Y-55926D01*
Y-55098D01*
X-119888Y-54332D01*
X-120474Y-53746D01*
X-121239Y-53429D01*
D02*
G37*
G36*
X224430Y-54610D02*
X223602D01*
X222836Y-54927D01*
X222250Y-55513D01*
X221933Y-56279D01*
Y-57107D01*
X222250Y-57873D01*
X222836Y-58459D01*
X223602Y-58776D01*
X224430D01*
X225196Y-58459D01*
X225781Y-57873D01*
X226098Y-57107D01*
Y-56279D01*
X225781Y-55513D01*
X225196Y-54927D01*
X224430Y-54610D01*
D02*
G37*
G36*
X207107Y-61697D02*
X206279D01*
X205513Y-62014D01*
X204927Y-62600D01*
X204610Y-63365D01*
Y-64194D01*
X204927Y-64959D01*
X205513Y-65545D01*
X206279Y-65862D01*
X207107D01*
X207873Y-65545D01*
X208459Y-64959D01*
X208776Y-64194D01*
Y-63365D01*
X208459Y-62600D01*
X207873Y-62014D01*
X207107Y-61697D01*
D02*
G37*
G36*
X-117696Y-69965D02*
X-118525D01*
X-119290Y-70282D01*
X-119876Y-70868D01*
X-120193Y-71633D01*
Y-72461D01*
X-119876Y-73227D01*
X-119290Y-73813D01*
X-118525Y-74130D01*
X-117696D01*
X-116930Y-73813D01*
X-116345Y-73227D01*
X-116028Y-72461D01*
Y-71633D01*
X-116345Y-70868D01*
X-116930Y-70282D01*
X-117696Y-69965D01*
D02*
G37*
G36*
X181517Y-70358D02*
X180688D01*
X179923Y-70675D01*
X179337Y-71261D01*
X179020Y-72027D01*
Y-72855D01*
X179337Y-73621D01*
X179923Y-74207D01*
X180688Y-74524D01*
X181517D01*
X182282Y-74207D01*
X182868Y-73621D01*
X183185Y-72855D01*
Y-72027D01*
X182868Y-71261D01*
X182282Y-70675D01*
X181517Y-70358D01*
D02*
G37*
G36*
X-103916Y-75673D02*
X-104745D01*
X-105510Y-75990D01*
X-106096Y-76576D01*
X-106413Y-77342D01*
Y-78170D01*
X-106096Y-78936D01*
X-105510Y-79522D01*
X-104745Y-79839D01*
X-103916D01*
X-103151Y-79522D01*
X-102565Y-78936D01*
X-102248Y-78170D01*
Y-77342D01*
X-102565Y-76576D01*
X-103151Y-75990D01*
X-103916Y-75673D01*
D02*
G37*
G36*
X230414Y-79335D02*
X229586D01*
X228820Y-79652D01*
X228234Y-80238D01*
X227917Y-81003D01*
Y-81832D01*
X228234Y-82597D01*
X228820Y-83183D01*
X229586Y-83500D01*
X230414D01*
X231180Y-83183D01*
X231766Y-82597D01*
X232083Y-81832D01*
Y-81003D01*
X231766Y-80238D01*
X231180Y-79652D01*
X230414Y-79335D01*
D02*
G37*
G36*
X-106869Y-94374D02*
X-107698D01*
X-108463Y-94691D01*
X-109049Y-95277D01*
X-109366Y-96042D01*
Y-96871D01*
X-109049Y-97636D01*
X-108463Y-98222D01*
X-107698Y-98539D01*
X-106869D01*
X-106104Y-98222D01*
X-105518Y-97636D01*
X-105201Y-96871D01*
Y-96042D01*
X-105518Y-95277D01*
X-106104Y-94691D01*
X-106869Y-94374D01*
D02*
G37*
G36*
X-99586Y-103017D02*
X-100414D01*
X-101180Y-103334D01*
X-101766Y-103920D01*
X-102083Y-104686D01*
Y-105514D01*
X-101766Y-106280D01*
X-101180Y-106866D01*
X-100414Y-107183D01*
X-99783D01*
Y-107914D01*
X-99466Y-108680D01*
X-98880Y-109266D01*
X-98114Y-109583D01*
X-97286D01*
X-96520Y-109266D01*
X-95934Y-108680D01*
X-95617Y-107914D01*
Y-107086D01*
X-95934Y-106320D01*
X-96520Y-105734D01*
X-97286Y-105417D01*
X-97917D01*
Y-104686D01*
X-98234Y-103920D01*
X-98820Y-103334D01*
X-99586Y-103017D01*
D02*
G37*
G36*
X187422Y-108153D02*
X186594D01*
X185828Y-108471D01*
X185242Y-109056D01*
X184925Y-109822D01*
Y-110651D01*
X184998Y-110826D01*
X184206Y-111527D01*
X183538Y-111250D01*
X182480Y-111111D01*
X181693D01*
X180635Y-111250D01*
X179650Y-111658D01*
X178804Y-112308D01*
X178154Y-113154D01*
X177746Y-114139D01*
X177607Y-115197D01*
X177746Y-116254D01*
X178154Y-117240D01*
X178804Y-118086D01*
X179408Y-118550D01*
X179495Y-118905D01*
Y-119363D01*
X179408Y-119718D01*
X178804Y-120182D01*
X178154Y-121028D01*
X177746Y-122013D01*
X177607Y-123071D01*
X177746Y-124128D01*
X178154Y-125114D01*
X178804Y-125960D01*
X179650Y-126610D01*
X180635Y-127018D01*
X181693Y-127157D01*
X182480D01*
X183538Y-127018D01*
X184523Y-126610D01*
X185370Y-125960D01*
X186019Y-125114D01*
X186427Y-124128D01*
X186498Y-123591D01*
X186504Y-123548D01*
X187512D01*
X187518Y-123591D01*
X187589Y-124128D01*
X187997Y-125114D01*
X188646Y-125960D01*
X189492Y-126610D01*
X190478Y-127018D01*
X191429Y-127143D01*
Y-123071D01*
X191929D01*
Y-122571D01*
X196343D01*
X196270Y-122013D01*
X195862Y-121028D01*
X195212Y-120182D01*
X194608Y-119718D01*
X194520Y-119363D01*
Y-118905D01*
X194608Y-118550D01*
X195212Y-118086D01*
X195862Y-117240D01*
X196270Y-116254D01*
X196409Y-115197D01*
X196270Y-114139D01*
X195862Y-113154D01*
X195212Y-112308D01*
X194366Y-111658D01*
X193380Y-111250D01*
X192323Y-111111D01*
X191535D01*
X190478Y-111250D01*
X189810Y-111527D01*
X189018Y-110826D01*
X189091Y-110651D01*
Y-109822D01*
X188774Y-109056D01*
X188188Y-108471D01*
X187422Y-108153D01*
D02*
G37*
G36*
X-169521Y-115063D02*
X-170873D01*
X-172178Y-115413D01*
X-173349Y-116089D01*
X-174305Y-117045D01*
X-174981Y-118215D01*
X-175331Y-119521D01*
Y-120873D01*
X-175205Y-121340D01*
X-176022Y-122157D01*
X-176489Y-122031D01*
X-176665D01*
Y-126665D01*
X-172031D01*
Y-126489D01*
X-172157Y-126022D01*
X-171340Y-125206D01*
X-170873Y-125331D01*
X-169521D01*
X-168215Y-124981D01*
X-167045Y-124305D01*
X-166089Y-123349D01*
X-165413Y-122178D01*
X-165063Y-120873D01*
Y-119521D01*
X-165413Y-118215D01*
X-166089Y-117045D01*
X-167045Y-116089D01*
X-168215Y-115413D01*
X-169521Y-115063D01*
D02*
G37*
G36*
X-183458D02*
X-184810D01*
X-186115Y-115413D01*
X-187286Y-116089D01*
X-188242Y-117045D01*
X-188918Y-118215D01*
X-189268Y-119521D01*
Y-120873D01*
X-188918Y-122178D01*
X-188242Y-123349D01*
X-187286Y-124305D01*
X-186115Y-124981D01*
X-184810Y-125331D01*
X-183458D01*
X-182991Y-125206D01*
X-182174Y-126022D01*
X-182299Y-126489D01*
Y-126665D01*
X-177665D01*
Y-122031D01*
X-177841D01*
X-178309Y-122157D01*
X-179125Y-121340D01*
X-179000Y-120873D01*
Y-119521D01*
X-179350Y-118215D01*
X-180026Y-117045D01*
X-180982Y-116089D01*
X-182152Y-115413D01*
X-183458Y-115063D01*
D02*
G37*
G36*
X196343Y-123571D02*
X192429D01*
Y-127143D01*
X193380Y-127018D01*
X194366Y-126610D01*
X195212Y-125960D01*
X195862Y-125114D01*
X196270Y-124128D01*
X196343Y-123571D01*
D02*
G37*
G36*
X-177665Y-127665D02*
X-182299D01*
Y-127841D01*
X-182145Y-128419D01*
X-182961Y-129235D01*
X-183479Y-129096D01*
X-183655D01*
Y-133730D01*
X-179021D01*
Y-133554D01*
X-179176Y-132977D01*
X-178359Y-132160D01*
X-177841Y-132299D01*
X-177665D01*
Y-127665D01*
D02*
G37*
G36*
X118525Y-127839D02*
X117696D01*
X116930Y-128156D01*
X116345Y-128742D01*
X116028Y-129507D01*
Y-130335D01*
X116345Y-131101D01*
X116930Y-131687D01*
X117696Y-132004D01*
X118525D01*
X119290Y-131687D01*
X119876Y-131101D01*
X120193Y-130335D01*
Y-129507D01*
X119876Y-128742D01*
X119290Y-128156D01*
X118525Y-127839D01*
D02*
G37*
G36*
X-146897Y-121539D02*
X-148379D01*
X-149809Y-121923D01*
X-151092Y-122663D01*
X-152140Y-123711D01*
X-152880Y-124994D01*
X-153264Y-126425D01*
Y-127906D01*
X-152880Y-129337D01*
X-152140Y-130620D01*
X-151092Y-131667D01*
X-149809Y-132408D01*
X-148379Y-132791D01*
X-146897D01*
X-145466Y-132408D01*
X-144183Y-131667D01*
X-143136Y-130620D01*
X-142395Y-129337D01*
X-142012Y-127906D01*
Y-126425D01*
X-142395Y-124994D01*
X-143136Y-123711D01*
X-144183Y-122663D01*
X-145466Y-121923D01*
X-146897Y-121539D01*
D02*
G37*
G36*
X-205952D02*
X-207434D01*
X-208864Y-121923D01*
X-210147Y-122663D01*
X-211195Y-123711D01*
X-211935Y-124994D01*
X-212319Y-126425D01*
Y-127906D01*
X-211935Y-129337D01*
X-211195Y-130620D01*
X-210147Y-131667D01*
X-208864Y-132408D01*
X-207434Y-132791D01*
X-205952D01*
X-204521Y-132408D01*
X-203238Y-131667D01*
X-202191Y-130620D01*
X-201450Y-129337D01*
X-201067Y-127906D01*
Y-126425D01*
X-201450Y-124994D01*
X-202191Y-123711D01*
X-203238Y-122663D01*
X-204521Y-121923D01*
X-205952Y-121539D01*
D02*
G37*
G36*
X-169542Y-129034D02*
X-169718D01*
Y-133668D01*
X-165084D01*
Y-133492D01*
X-165434Y-132186D01*
X-166110Y-131015D01*
X-167066Y-130060D01*
X-168236Y-129384D01*
X-169542Y-129034D01*
D02*
G37*
G36*
X-172031Y-127665D02*
X-176665D01*
Y-132299D01*
X-176489D01*
X-176035Y-132177D01*
X-175218Y-132994D01*
X-175352Y-133492D01*
Y-133668D01*
X-170718D01*
Y-129034D01*
X-170894D01*
X-171349Y-129156D01*
X-172165Y-128339D01*
X-172031Y-127841D01*
Y-127665D01*
D02*
G37*
G36*
X-184655Y-129096D02*
X-184831D01*
X-186137Y-129446D01*
X-187307Y-130122D01*
X-188263Y-131078D01*
X-188939Y-132248D01*
X-189289Y-133554D01*
Y-133730D01*
X-184655D01*
Y-129096D01*
D02*
G37*
G36*
X-95649Y-129807D02*
X-96477D01*
X-97243Y-130124D01*
X-97829Y-130710D01*
X-98146Y-131475D01*
Y-132304D01*
X-97829Y-133070D01*
X-97243Y-133655D01*
X-96477Y-133972D01*
X-95649D01*
X-94883Y-133655D01*
X-94297Y-133070D01*
X-93980Y-132304D01*
Y-131475D01*
X-94297Y-130710D01*
X-94883Y-130124D01*
X-95649Y-129807D01*
D02*
G37*
G36*
X-115334D02*
X-116162D01*
X-116928Y-130124D01*
X-117514Y-130710D01*
X-117831Y-131475D01*
Y-132304D01*
X-117514Y-133070D01*
X-116928Y-133655D01*
X-116162Y-133972D01*
X-115334D01*
X-114568Y-133655D01*
X-113982Y-133070D01*
X-113665Y-132304D01*
Y-131475D01*
X-113982Y-130710D01*
X-114568Y-130124D01*
X-115334Y-129807D01*
D02*
G37*
G36*
X-165084Y-134668D02*
X-169718D01*
Y-139302D01*
X-169542D01*
X-168236Y-138952D01*
X-167066Y-138276D01*
X-166110Y-137320D01*
X-165434Y-136149D01*
X-165084Y-134844D01*
Y-134668D01*
D02*
G37*
G36*
X-170718D02*
X-175352D01*
Y-134844D01*
X-175002Y-136149D01*
X-174326Y-137320D01*
X-173370Y-138276D01*
X-172200Y-138952D01*
X-170894Y-139302D01*
X-170718D01*
Y-134668D01*
D02*
G37*
G36*
X-179021Y-134730D02*
X-183655D01*
Y-139364D01*
X-183479D01*
X-182173Y-139014D01*
X-181003Y-138338D01*
X-180047Y-137382D01*
X-179371Y-136212D01*
X-179021Y-134906D01*
Y-134730D01*
D02*
G37*
G36*
X-184655D02*
X-189289D01*
Y-134906D01*
X-188939Y-136212D01*
X-188263Y-137382D01*
X-187307Y-138338D01*
X-186137Y-139014D01*
X-184831Y-139364D01*
X-184655D01*
Y-134730D01*
D02*
G37*
G36*
X-146996Y-136401D02*
X-148279D01*
X-149537Y-136652D01*
X-150722Y-137143D01*
X-151789Y-137855D01*
X-152696Y-138762D01*
X-153409Y-139829D01*
X-153899Y-141014D01*
X-154150Y-142272D01*
Y-143555D01*
X-153899Y-144813D01*
X-153409Y-145998D01*
X-152696Y-147064D01*
X-151789Y-147971D01*
X-150722Y-148684D01*
X-149537Y-149175D01*
X-148279Y-149425D01*
X-146996D01*
X-145738Y-149175D01*
X-144553Y-148684D01*
X-143487Y-147971D01*
X-142580Y-147064D01*
X-141867Y-145998D01*
X-141376Y-144813D01*
X-141126Y-143555D01*
Y-142272D01*
X-141376Y-141014D01*
X-141867Y-139829D01*
X-142580Y-138762D01*
X-143487Y-137855D01*
X-144553Y-137143D01*
X-145738Y-136652D01*
X-146996Y-136401D01*
D02*
G37*
G36*
X-206051D02*
X-207334D01*
X-208592Y-136652D01*
X-209777Y-137143D01*
X-210844Y-137855D01*
X-211751Y-138762D01*
X-212463Y-139829D01*
X-212954Y-141014D01*
X-213205Y-142272D01*
Y-143555D01*
X-212954Y-144813D01*
X-212463Y-145998D01*
X-211751Y-147064D01*
X-210844Y-147971D01*
X-209777Y-148684D01*
X-208592Y-149175D01*
X-207334Y-149425D01*
X-206051D01*
X-204793Y-149175D01*
X-203608Y-148684D01*
X-202542Y-147971D01*
X-201635Y-147064D01*
X-200922Y-145998D01*
X-200431Y-144813D01*
X-200181Y-143555D01*
Y-142272D01*
X-200431Y-141014D01*
X-200922Y-139829D01*
X-201635Y-138762D01*
X-202542Y-137855D01*
X-203608Y-137143D01*
X-204793Y-136652D01*
X-206051Y-136401D01*
D02*
G37*
G36*
X203630Y-131874D02*
X201882D01*
X200167Y-132215D01*
X198553Y-132884D01*
X197099Y-133855D01*
X195863Y-135091D01*
X194892Y-136545D01*
X194223Y-138160D01*
X193882Y-139874D01*
Y-141622D01*
X194223Y-143336D01*
X194892Y-144951D01*
X195863Y-146405D01*
X197099Y-147641D01*
X198553Y-148612D01*
X200167Y-149281D01*
X201882Y-149622D01*
X203630D01*
X205344Y-149281D01*
X206959Y-148612D01*
X208413Y-147641D01*
X209649Y-146405D01*
X210620Y-144951D01*
X211289Y-143336D01*
X211630Y-141622D01*
Y-139874D01*
X211289Y-138160D01*
X210620Y-136545D01*
X209649Y-135091D01*
X208413Y-133855D01*
X206959Y-132884D01*
X205344Y-132215D01*
X203630Y-131874D01*
D02*
G37*
G36*
X172134D02*
X170386D01*
X168671Y-132215D01*
X167056Y-132884D01*
X165603Y-133855D01*
X164367Y-135091D01*
X163396Y-136545D01*
X162727Y-138160D01*
X162386Y-139874D01*
Y-141622D01*
X162727Y-143336D01*
X163396Y-144951D01*
X164367Y-146405D01*
X165603Y-147641D01*
X167056Y-148612D01*
X168671Y-149281D01*
X170386Y-149622D01*
X172134D01*
X173848Y-149281D01*
X175463Y-148612D01*
X176917Y-147641D01*
X178153Y-146405D01*
X179124Y-144951D01*
X179793Y-143336D01*
X180134Y-141622D01*
Y-139874D01*
X179793Y-138160D01*
X179124Y-136545D01*
X178153Y-135091D01*
X176917Y-133855D01*
X175463Y-132884D01*
X173848Y-132215D01*
X172134Y-131874D01*
D02*
G37*
G36*
X-170260Y148638D02*
X-178165D01*
Y138764D01*
X-170260D01*
Y148638D01*
D02*
G37*
G36*
X-184213Y148672D02*
X-185245Y148536D01*
X-186206Y148138D01*
X-187032Y147504D01*
X-187665Y146678D01*
X-188064Y145717D01*
X-188199Y144685D01*
Y142717D01*
X-188064Y141685D01*
X-187665Y140723D01*
X-187032Y139897D01*
X-186206Y139264D01*
X-185245Y138865D01*
X-184213Y138730D01*
X-183181Y138865D01*
X-182219Y139264D01*
X-181394Y139897D01*
X-180760Y140723D01*
X-180362Y141685D01*
X-180226Y142717D01*
Y144685D01*
X-180362Y145717D01*
X-180760Y146678D01*
X-181394Y147504D01*
X-182219Y148138D01*
X-183181Y148536D01*
X-184213Y148672D01*
D02*
G37*
G36*
X-198213Y141354D02*
X-202256D01*
Y137311D01*
X-198213D01*
Y141354D01*
D02*
G37*
G36*
X-203256D02*
X-207299D01*
Y137311D01*
X-203256D01*
Y141354D01*
D02*
G37*
G36*
X-198213Y136311D02*
X-202256D01*
Y132268D01*
X-198213D01*
Y136311D01*
D02*
G37*
G36*
X-203256D02*
X-207299D01*
Y132268D01*
X-203256D01*
Y136311D01*
D02*
G37*
G36*
X-202158Y129543D02*
X-203354D01*
X-204509Y129234D01*
X-205545Y128635D01*
X-206391Y127790D01*
X-206990Y126754D01*
X-207299Y125598D01*
Y124402D01*
X-206990Y123246D01*
X-206391Y122210D01*
X-205545Y121364D01*
X-204509Y120766D01*
X-203354Y120457D01*
X-202158D01*
X-201002Y120766D01*
X-199966Y121364D01*
X-199120Y122210D01*
X-198522Y123246D01*
X-198213Y124402D01*
Y125598D01*
X-198522Y126754D01*
X-199120Y127790D01*
X-199966Y128635D01*
X-201002Y129234D01*
X-202158Y129543D01*
D02*
G37*
G36*
Y117732D02*
X-203354D01*
X-204509Y117423D01*
X-205545Y116824D01*
X-206391Y115979D01*
X-206990Y114943D01*
X-207299Y113787D01*
Y112591D01*
X-206990Y111435D01*
X-206391Y110399D01*
X-205545Y109553D01*
X-204509Y108955D01*
X-203354Y108646D01*
X-202158D01*
X-201002Y108955D01*
X-199966Y109553D01*
X-199120Y110399D01*
X-198522Y111435D01*
X-198213Y112591D01*
Y113787D01*
X-198522Y114943D01*
X-199120Y115979D01*
X-199966Y116824D01*
X-201002Y117423D01*
X-202158Y117732D01*
D02*
G37*
G36*
X-194579Y104878D02*
X-195500D01*
X-196390Y104639D01*
X-197188Y104179D01*
X-197840Y103527D01*
X-198301Y102729D01*
X-198539Y101839D01*
Y100917D01*
X-198301Y100027D01*
X-197840Y99229D01*
X-197188Y98577D01*
X-196390Y98116D01*
X-195500Y97878D01*
X-194579D01*
X-193688Y98116D01*
X-192890Y98577D01*
X-192239Y99229D01*
X-191778Y100027D01*
X-191539Y100917D01*
Y101839D01*
X-191778Y102729D01*
X-192239Y103527D01*
X-192890Y104179D01*
X-193688Y104639D01*
X-194579Y104878D01*
D02*
G37*
G36*
X-19271Y-55004D02*
X-20099D01*
X-20865Y-55321D01*
X-21451Y-55907D01*
X-21768Y-56672D01*
Y-57501D01*
X-21451Y-58266D01*
X-20865Y-58852D01*
X-20099Y-59169D01*
X-19271D01*
X-18505Y-58852D01*
X-17919Y-58266D01*
X-17602Y-57501D01*
Y-56672D01*
X-17919Y-55907D01*
X-18505Y-55321D01*
X-19271Y-55004D01*
D02*
G37*
G36*
X-51259Y-60220D02*
X-52087D01*
X-52853Y-60537D01*
X-53439Y-61123D01*
X-53756Y-61889D01*
Y-62717D01*
X-53439Y-63483D01*
X-52853Y-64069D01*
X-52087Y-64386D01*
X-51259D01*
X-50493Y-64069D01*
X-49908Y-63483D01*
X-49591Y-62717D01*
Y-61889D01*
X-49908Y-61123D01*
X-50493Y-60537D01*
X-51259Y-60220D01*
D02*
G37*
G36*
X-19271Y-80201D02*
X-20099D01*
X-20865Y-80518D01*
X-21451Y-81104D01*
X-21768Y-81869D01*
Y-82698D01*
X-21451Y-83463D01*
X-20865Y-84049D01*
X-20099Y-84366D01*
X-19271D01*
X-18505Y-84049D01*
X-17919Y-83463D01*
X-17602Y-82698D01*
Y-81869D01*
X-17919Y-81104D01*
X-18505Y-80518D01*
X-19271Y-80201D01*
D02*
G37*
G36*
X-51259Y-85220D02*
X-52087D01*
X-52853Y-85537D01*
X-53439Y-86123D01*
X-53756Y-86889D01*
Y-87717D01*
X-53439Y-88483D01*
X-52853Y-89069D01*
X-52087Y-89386D01*
X-51259D01*
X-50493Y-89069D01*
X-49908Y-88483D01*
X-49591Y-87717D01*
Y-86889D01*
X-49908Y-86123D01*
X-50493Y-85537D01*
X-51259Y-85220D01*
D02*
G37*
G36*
X35736Y-52780D02*
X34540D01*
X33384Y-53089D01*
X32348Y-53687D01*
X31502Y-54533D01*
X30904Y-55569D01*
X30595Y-56725D01*
Y-57921D01*
X30904Y-59076D01*
X31502Y-60113D01*
X32348Y-60958D01*
X33384Y-61557D01*
X34404Y-61830D01*
Y-62816D01*
X33384Y-63089D01*
X32348Y-63687D01*
X31502Y-64533D01*
X30904Y-65569D01*
X30595Y-66725D01*
Y-67921D01*
X30904Y-69077D01*
X31502Y-70113D01*
X32348Y-70958D01*
X33384Y-71557D01*
X34404Y-71830D01*
Y-72816D01*
X33384Y-73089D01*
X32348Y-73687D01*
X31502Y-74533D01*
X30904Y-75569D01*
X30595Y-76725D01*
Y-77921D01*
X30904Y-79076D01*
X31502Y-80112D01*
X32348Y-80958D01*
X33384Y-81557D01*
X34404Y-81830D01*
Y-82816D01*
X33384Y-83089D01*
X32348Y-83687D01*
X31502Y-84533D01*
X30904Y-85569D01*
X30595Y-86725D01*
Y-87921D01*
X30904Y-89077D01*
X31502Y-90113D01*
X32348Y-90958D01*
X33384Y-91557D01*
X34540Y-91866D01*
X35736D01*
X36891Y-91557D01*
X37927Y-90958D01*
X38773Y-90113D01*
X39371Y-89077D01*
X39681Y-87921D01*
Y-86725D01*
X39371Y-85569D01*
X38773Y-84533D01*
X37927Y-83687D01*
X36891Y-83089D01*
X35871Y-82816D01*
Y-81830D01*
X36891Y-81557D01*
X37927Y-80958D01*
X38773Y-80112D01*
X39371Y-79076D01*
X39681Y-77921D01*
Y-76725D01*
X39371Y-75569D01*
X38773Y-74533D01*
X37927Y-73687D01*
X36891Y-73089D01*
X35871Y-72816D01*
Y-71830D01*
X36891Y-71557D01*
X37927Y-70958D01*
X38773Y-70113D01*
X39371Y-69077D01*
X39681Y-67921D01*
Y-66725D01*
X39371Y-65569D01*
X38773Y-64533D01*
X37927Y-63687D01*
X36891Y-63089D01*
X35871Y-62816D01*
Y-61830D01*
X36891Y-61557D01*
X37927Y-60958D01*
X38773Y-60113D01*
X39371Y-59076D01*
X39681Y-57921D01*
Y-56725D01*
X39371Y-55569D01*
X38773Y-54533D01*
X37927Y-53687D01*
X36891Y-53089D01*
X35736Y-52780D01*
D02*
G37*
G36*
X-34540D02*
X-35736D01*
X-36891Y-53089D01*
X-37927Y-53687D01*
X-38773Y-54533D01*
X-39371Y-55569D01*
X-39681Y-56725D01*
Y-57921D01*
X-39371Y-59076D01*
X-38773Y-60113D01*
X-37927Y-60958D01*
X-36891Y-61557D01*
X-35871Y-61830D01*
Y-62816D01*
X-36891Y-63089D01*
X-37927Y-63687D01*
X-38773Y-64533D01*
X-39371Y-65569D01*
X-39681Y-66725D01*
Y-67921D01*
X-39371Y-69077D01*
X-38773Y-70113D01*
X-37927Y-70958D01*
X-36891Y-71557D01*
X-35871Y-71830D01*
Y-72816D01*
X-36891Y-73089D01*
X-37927Y-73687D01*
X-38773Y-74533D01*
X-39371Y-75569D01*
X-39681Y-76725D01*
Y-77921D01*
X-39371Y-79076D01*
X-38773Y-80112D01*
X-37927Y-80958D01*
X-36891Y-81557D01*
X-35871Y-81830D01*
Y-82816D01*
X-36891Y-83089D01*
X-37927Y-83687D01*
X-38773Y-84533D01*
X-39371Y-85569D01*
X-39681Y-86725D01*
Y-87921D01*
X-39371Y-89077D01*
X-38773Y-90113D01*
X-37927Y-90958D01*
X-36891Y-91557D01*
X-35736Y-91866D01*
X-34540D01*
X-33384Y-91557D01*
X-32348Y-90958D01*
X-31502Y-90113D01*
X-30904Y-89077D01*
X-30595Y-87921D01*
Y-86725D01*
X-30904Y-85569D01*
X-31502Y-84533D01*
X-32348Y-83687D01*
X-33384Y-83089D01*
X-34404Y-82816D01*
Y-81830D01*
X-33384Y-81557D01*
X-32348Y-80958D01*
X-31502Y-80112D01*
X-30904Y-79076D01*
X-30595Y-77921D01*
Y-76725D01*
X-30904Y-75569D01*
X-31502Y-74533D01*
X-32348Y-73687D01*
X-33384Y-73089D01*
X-34404Y-72816D01*
Y-71830D01*
X-33384Y-71557D01*
X-32348Y-70958D01*
X-31502Y-70113D01*
X-30904Y-69077D01*
X-30595Y-67921D01*
Y-66725D01*
X-30904Y-65569D01*
X-31502Y-64533D01*
X-32348Y-63687D01*
X-33384Y-63089D01*
X-34404Y-62816D01*
Y-61830D01*
X-33384Y-61557D01*
X-32348Y-60958D01*
X-31502Y-60113D01*
X-30904Y-59076D01*
X-30595Y-57921D01*
Y-56725D01*
X-30904Y-55569D01*
X-31502Y-54533D01*
X-32348Y-53687D01*
X-33384Y-53089D01*
X-34540Y-52780D01*
D02*
G37*
G36*
X-25289Y-112898D02*
X-25465D01*
Y-117532D01*
X-20831D01*
Y-117356D01*
X-21181Y-116050D01*
X-21857Y-114879D01*
X-22812Y-113923D01*
X-23983Y-113248D01*
X-25289Y-112898D01*
D02*
G37*
G36*
X-26465D02*
X-26640D01*
X-27946Y-113248D01*
X-29117Y-113923D01*
X-30073Y-114879D01*
X-30749Y-116050D01*
X-31098Y-117356D01*
Y-117532D01*
X-26465D01*
Y-112898D01*
D02*
G37*
G36*
X0Y-96888D02*
X-2256Y-97036D01*
X-4474Y-97477D01*
X-6615Y-98204D01*
X-8642Y-99204D01*
X-10522Y-100460D01*
X-12222Y-101951D01*
X-13713Y-103651D01*
X-14969Y-105531D01*
X-15969Y-107559D01*
X-16696Y-109700D01*
X-17137Y-111917D01*
X-17285Y-114173D01*
X-17137Y-116430D01*
X-16696Y-118647D01*
X-15969Y-120788D01*
X-14969Y-122816D01*
X-13713Y-124696D01*
X-12222Y-126396D01*
X-10522Y-127887D01*
X-8642Y-129143D01*
X-6615Y-130143D01*
X-4474Y-130869D01*
X-2256Y-131311D01*
X0Y-131458D01*
X2256Y-131311D01*
X4474Y-130869D01*
X6615Y-130143D01*
X8642Y-129143D01*
X10522Y-127887D01*
X12222Y-126396D01*
X13713Y-124696D01*
X14969Y-122816D01*
X15969Y-120788D01*
X16313Y-119775D01*
X17460Y-119508D01*
X17513Y-119561D01*
X18436Y-120094D01*
X19467Y-120370D01*
X20533D01*
X21564Y-120094D01*
X22488Y-119561D01*
X23242Y-118806D01*
X23775Y-117883D01*
X24051Y-116852D01*
Y-115786D01*
X23775Y-114755D01*
X23242Y-113831D01*
X22488Y-113077D01*
X21564Y-112544D01*
X20533Y-112268D01*
X19467D01*
X18436Y-112544D01*
X18190Y-112686D01*
X17151Y-112131D01*
X17137Y-111917D01*
X16696Y-109700D01*
X15969Y-107559D01*
X14969Y-105531D01*
X13713Y-103651D01*
X12222Y-101951D01*
X10522Y-100460D01*
X8642Y-99204D01*
X6615Y-98204D01*
X4474Y-97477D01*
X2256Y-97036D01*
X0Y-96888D01*
D02*
G37*
G36*
X-20831Y-118532D02*
X-25465D01*
Y-123165D01*
X-25289D01*
X-23983Y-122816D01*
X-22812Y-122140D01*
X-21857Y-121184D01*
X-21181Y-120013D01*
X-20831Y-118707D01*
Y-118532D01*
D02*
G37*
G36*
X-26465D02*
X-31098D01*
Y-118707D01*
X-30749Y-120013D01*
X-30073Y-121184D01*
X-29117Y-122140D01*
X-27946Y-122816D01*
X-26640Y-123165D01*
X-26465D01*
Y-118532D01*
D02*
G37*
%LPD*%
D10*
X129936Y-152740D02*
G03*
X126153Y-151575I-3782J-5556D01*
G01*
X246897Y-154837D02*
G03*
X249831Y-155512I2934J6047D01*
G01*
X246897Y-154837D02*
G03*
X243963Y-154163I-2934J-6047D01*
G01*
X49213Y-154528D02*
G03*
X52165Y-157480I2953J0D01*
G01*
X49213Y-128937D02*
G03*
X46260Y-125984I-2953J0D01*
G01*
X24606D02*
G03*
X21654Y-128937I0J-2953D01*
G01*
X18701Y-157480D02*
G03*
X21654Y-154528I0J2953D01*
G01*
X-33465Y-30512D02*
G03*
X-33465Y-36417I0J-2953D01*
G01*
X15748D02*
G03*
X15748Y-30512I0J2953D01*
G01*
X54279Y-109252D02*
G03*
X60185Y-109252I2953J0D01*
G01*
X33465Y-30512D02*
G03*
X33465Y-36417I0J-2953D01*
G01*
X47532Y-38168D02*
G03*
X43307Y-36417I-4225J-4225D01*
G01*
X51764Y-34047D02*
G03*
X43228Y-30512I-8535J-8535D01*
G01*
X60200Y-47484D02*
G03*
X56665Y-38948I-12071J0D01*
G01*
X54295Y-47405D02*
G03*
X52544Y-43180I-5976J0D01*
G01*
X-70261D02*
G03*
X-72011Y-47405I4225J-4225D01*
G01*
X-74381Y-38948D02*
G03*
X-77917Y-47484I8535J-8535D01*
G01*
X-60945Y-30512D02*
G03*
X-69480Y-34047I0J-12071D01*
G01*
X-61024Y-36417D02*
G03*
X-65249Y-38168I0J-5976D01*
G01*
X-51181Y-36417D02*
G03*
X-51181Y-30512I0J2953D01*
G01*
X-77901Y-124016D02*
G03*
X-71996Y-124016I2953J0D01*
G01*
X-92520Y76772D02*
G03*
X-89567Y79724I0J2953D01*
G01*
X-102362Y76772D02*
G03*
X-102362Y70866I0J-2953D01*
G01*
X-91992Y70866D02*
G03*
X-83661Y79197I0J8331D01*
G01*
Y140748D02*
G03*
X-89567Y140748I-2953J0D01*
G01*
X-121063Y70866D02*
G03*
X-121063Y76772I0J2953D01*
G01*
X-174213D02*
G03*
X-174213Y70866I0J-2953D01*
G01*
X111867Y-151575D02*
G03*
X107115Y-153543I0J-6721D01*
G01*
X100394Y-157480D02*
G03*
X105146Y-155512I0J6721D01*
G01*
X-257874Y114173D02*
G03*
X-239173Y95472I18701J0D01*
G01*
X-196850Y75787D02*
G03*
X-216535Y95472I-19685J0D01*
G01*
Y-95472D02*
G03*
X-196850Y-75787I0J19685D01*
G01*
X-253937Y155512D02*
G03*
X-257874Y151575I0J-3937D01*
G01*
X-130905Y153543D02*
G03*
X-135658Y155512I-4752J-4752D01*
G01*
X-130905Y153543D02*
G03*
X-126153Y151575I4752J4752D01*
G01*
X-102531Y155512D02*
G03*
X-107283Y153543I0J-6721D01*
G01*
X-112036Y151575D02*
G03*
X-107283Y153543I0J6721D01*
G01*
Y-153543D02*
G03*
X-112036Y-151575I-4752J-4752D01*
G01*
X-105315Y-155512D02*
G03*
X-100563Y-157480I4752J4752D01*
G01*
X-126153Y-151575D02*
G03*
X-130905Y-153543I0J-6721D01*
G01*
X-135658Y-155512D02*
G03*
X-130905Y-153543I0J6721D01*
G01*
X-257874Y-151575D02*
G03*
X-253937Y-155512I3937J0D01*
G01*
X-239173Y-95472D02*
G03*
X-257874Y-114173I0J-18701D01*
G01*
X289370Y-80709D02*
G03*
X257874Y-112205I0J-31496D01*
G01*
X291339Y-80709D02*
G03*
X295276Y-76772I0J3937D01*
G01*
X253937Y-155512D02*
G03*
X257874Y-151575I0J3937D01*
G01*
X130273Y-152969D02*
G03*
X134055Y-154134I3782J5556D01*
G01*
X107283Y153543D02*
G03*
X112036Y151575I4752J4752D01*
G01*
X107283Y153543D02*
G03*
X102531Y155512I-4752J-4752D01*
G01*
X126153Y151575D02*
G03*
X130905Y153543I0J6721D01*
G01*
X135658Y155512D02*
G03*
X130905Y153543I0J-6721D01*
G01*
X257874Y151575D02*
G03*
X253937Y155512I-3937J0D01*
G01*
X295276Y76772D02*
G03*
X291339Y80709I-3937J0D01*
G01*
X257874Y112205D02*
G03*
X289370Y80709I31496J0D01*
G01*
X134055Y-154134D02*
X187008D01*
X129936Y-152740D02*
X130273Y-152969D01*
X249831Y-155512D02*
X253937D01*
X187008Y-154163D02*
X243963D01*
X52165Y-157480D02*
X100394D01*
X49213Y-154528D02*
Y-128937D01*
X24606Y-125984D02*
X46260D01*
X21654Y-154528D02*
Y-128937D01*
X-0Y-157480D02*
X18701D01*
X-33465Y-36417D02*
X15748D01*
X-33465Y-30512D02*
X15748D01*
X33465Y-36417D02*
X43307D01*
X33465Y-30512D02*
X43228D01*
X43228D01*
X60185Y-109252D02*
Y-47484D01*
X54279Y-109252D02*
Y-47405D01*
X47532Y-38168D02*
X52544Y-43180D01*
X51764Y-34047D02*
X56665Y-38948D01*
X-74381D02*
X-69480Y-34047D01*
X-70261Y-43180D02*
X-65249Y-38168D01*
X-71996Y-124016D02*
Y-47405D01*
X-77901Y-124016D02*
Y-47484D01*
X-60945Y-30512D02*
X-60945D01*
X-51181D01*
X-61024Y-36417D02*
X-51181D01*
X-89567Y79724D02*
Y140748D01*
X-102362Y76772D02*
X-92520D01*
X-102362Y70866D02*
X-91992D01*
X-174213Y76772D02*
X-121063D01*
X-83661Y79197D02*
Y140748D01*
X-174213Y70866D02*
X-121063D01*
X105146Y-155512D02*
X107115Y-153543D01*
X-107283Y-153543D02*
X-105315Y-155512D01*
Y-155512D01*
X-100563Y-157480D02*
X-0Y-157480D01*
X-196850Y-0D02*
Y75787D01*
X-239173Y95473D02*
X-216535D01*
X-239173Y-95473D02*
X-216535D01*
X-257874Y114173D02*
Y151575D01*
X-253937Y155512D02*
X-135658D01*
X-119094Y151575D02*
X-112036D01*
X-126153D02*
X-119094D01*
X-102531Y155512D02*
X-0Y155512D01*
X-126153Y-151575D02*
X-119094D01*
X-112036D01*
X-253937Y-155512D02*
X-135658D01*
X-257874Y-151575D02*
Y-114173D01*
X-196850Y-75787D02*
Y-0D01*
X295276Y-76772D02*
Y-0D01*
X289370Y-80709D02*
X291339D01*
X257874Y-151575D02*
Y-112205D01*
X112036Y-151575D02*
X119095D01*
X126153D01*
X-0Y155512D02*
X102531Y155512D01*
X119095Y151575D02*
X126153D01*
X112036D02*
X119095D01*
X135658Y155512D02*
X253937D01*
X257874Y112205D02*
Y151575D01*
X289370Y80709D02*
X291339D01*
X295276Y-0D02*
Y76772D01*
D111*
X234252Y4685D02*
D03*
Y10590D02*
D03*
Y-1221D02*
D03*
X228346Y10590D02*
D03*
Y4685D02*
D03*
Y-1221D02*
D03*
X237205Y7638D02*
D03*
Y1732D02*
D03*
X231299Y7638D02*
D03*
Y1732D02*
D03*
X225394Y7638D02*
D03*
Y1732D02*
D03*
X231968Y137480D02*
D03*
Y74488D02*
D03*
X216220Y137480D02*
D03*
Y105984D02*
D03*
X224094Y90236D02*
D03*
X216220Y74488D02*
D03*
Y-82992D02*
D03*
X200472Y137480D02*
D03*
X208346Y121732D02*
D03*
X200472Y105984D02*
D03*
Y-82992D02*
D03*
X208346Y-98740D02*
D03*
X184724Y137480D02*
D03*
X192598Y121732D02*
D03*
X184724Y105984D02*
D03*
X192598Y-4252D02*
D03*
X168976Y137480D02*
D03*
X176850Y121732D02*
D03*
X168976Y105984D02*
D03*
Y-114488D02*
D03*
X153228D02*
D03*
X121732Y-20000D02*
D03*
X129606Y-35748D02*
D03*
Y-98740D02*
D03*
X121732Y-114488D02*
D03*
X105984Y137480D02*
D03*
X113858Y121732D02*
D03*
X105984Y105984D02*
D03*
Y-20000D02*
D03*
X113858Y-35748D02*
D03*
Y-98740D02*
D03*
X105984Y-114488D02*
D03*
X90236Y137480D02*
D03*
X98110Y121732D02*
D03*
X90236Y105984D02*
D03*
Y-20000D02*
D03*
X98110Y-35748D02*
D03*
Y-98740D02*
D03*
X90236Y-114488D02*
D03*
Y-145984D02*
D03*
X82362Y121732D02*
D03*
Y-35748D02*
D03*
Y-98740D02*
D03*
X74488Y-145984D02*
D03*
X66614Y90236D02*
D03*
X58740Y74488D02*
D03*
Y11496D02*
D03*
X66614Y-4252D02*
D03*
X50866Y90236D02*
D03*
X42992Y74488D02*
D03*
X50866Y27244D02*
D03*
X42992Y-20000D02*
D03*
X27244Y137480D02*
D03*
Y105984D02*
D03*
X35118Y90236D02*
D03*
X11496Y137480D02*
D03*
X19370Y90236D02*
D03*
X-20000Y137480D02*
D03*
X-12126Y90236D02*
D03*
X-35748Y137480D02*
D03*
X-27874Y121732D02*
D03*
X-35748Y105984D02*
D03*
X-27874Y90236D02*
D03*
X-35748Y11496D02*
D03*
Y-20000D02*
D03*
X-51496Y137480D02*
D03*
X-43622Y121732D02*
D03*
X-51496Y105984D02*
D03*
X-43622Y90236D02*
D03*
X-51496Y74488D02*
D03*
Y11496D02*
D03*
X-43622Y-4252D02*
D03*
X-51496Y-20000D02*
D03*
X-67244Y74488D02*
D03*
Y11496D02*
D03*
X-82992D02*
D03*
X-98740Y-145984D02*
D03*
X-130236Y-82992D02*
D03*
Y-114488D02*
D03*
X-145984Y42992D02*
D03*
Y-51496D02*
D03*
X-138110Y-67244D02*
D03*
X-145984Y-82992D02*
D03*
X-138110Y-98740D02*
D03*
X-145984Y-114488D02*
D03*
X-153858Y58740D02*
D03*
X-161732Y42992D02*
D03*
X-153858Y27244D02*
D03*
X-161732Y-20000D02*
D03*
Y-51496D02*
D03*
X-153858Y-67244D02*
D03*
X-161732Y-82992D02*
D03*
X-153858Y-98740D02*
D03*
X-169606Y58740D02*
D03*
X-177480Y42992D02*
D03*
X-169606Y27244D02*
D03*
X-177480Y11496D02*
D03*
X-185354Y58740D02*
D03*
Y27244D02*
D03*
Y-4252D02*
D03*
Y-35748D02*
D03*
X-208976Y-114488D02*
D03*
X-106614Y137480D02*
D03*
X-122362D02*
D03*
X-130236Y121732D02*
D03*
Y90236D02*
D03*
X-138110Y137480D02*
D03*
Y105984D02*
D03*
X-145984Y90236D02*
D03*
X-153858Y137480D02*
D03*
Y105984D02*
D03*
X-161732Y90236D02*
D03*
X-169606Y137480D02*
D03*
X-177480Y90236D02*
D03*
X-185354Y105984D02*
D03*
X-208976Y121732D02*
D03*
X-201102Y105984D02*
D03*
X-216850Y137480D02*
D03*
X-232598D02*
D03*
X42992Y-51496D02*
D03*
Y-82992D02*
D03*
Y-114488D02*
D03*
X27244Y-51496D02*
D03*
Y-82992D02*
D03*
X35118Y-98740D02*
D03*
X27244Y-114488D02*
D03*
X11496Y-51496D02*
D03*
X19370Y-98740D02*
D03*
X11496Y-145984D02*
D03*
X-4252Y-51496D02*
D03*
X3622Y-67244D02*
D03*
X-4252Y-145984D02*
D03*
X-20000Y-51496D02*
D03*
X-12126Y-67244D02*
D03*
Y-98740D02*
D03*
X-20000Y-114488D02*
D03*
X-12126Y-130236D02*
D03*
X-27874Y-67244D02*
D03*
Y-98740D02*
D03*
X-35748Y-114488D02*
D03*
X-27874Y-130236D02*
D03*
X-35748Y-145984D02*
D03*
X-51496Y-51496D02*
D03*
X-43622Y-67244D02*
D03*
Y-98740D02*
D03*
X-51496Y-114488D02*
D03*
X-43622Y-130236D02*
D03*
X-51496Y-145984D02*
D03*
X-59370Y-98740D02*
D03*
Y-130236D02*
D03*
X262795Y42323D02*
D03*
Y50197D02*
D03*
Y46260D02*
D03*
Y54134D02*
D03*
Y62008D02*
D03*
Y58071D02*
D03*
Y65945D02*
D03*
X230315Y148622D02*
D03*
X234252D02*
D03*
X238189D02*
D03*
X246063D02*
D03*
X242126D02*
D03*
X210630D02*
D03*
X214567D02*
D03*
X218504D02*
D03*
X226378D02*
D03*
X222441D02*
D03*
X190945D02*
D03*
X194882D02*
D03*
X198819D02*
D03*
X206693D02*
D03*
X202756D02*
D03*
X171260D02*
D03*
X175197D02*
D03*
X179134D02*
D03*
X187008D02*
D03*
X183071D02*
D03*
X125000Y144685D02*
D03*
X121063D02*
D03*
X128937D02*
D03*
X132593Y146063D02*
D03*
X163386Y148622D02*
D03*
X167323D02*
D03*
X159449D02*
D03*
X155512D02*
D03*
X151575D02*
D03*
X139764D02*
D03*
X135827D02*
D03*
X147638D02*
D03*
X143701D02*
D03*
X94404Y148622D02*
D03*
X90467D02*
D03*
X102278D02*
D03*
X98341D02*
D03*
X24606Y-119095D02*
D03*
X28543D02*
D03*
X32480D02*
D03*
X36417D02*
D03*
X40354D02*
D03*
X44291D02*
D03*
X48228D02*
D03*
Y-115157D02*
D03*
Y-111221D02*
D03*
Y-107283D02*
D03*
Y-103347D02*
D03*
Y-52165D02*
D03*
Y-56102D02*
D03*
Y-60039D02*
D03*
Y-63976D02*
D03*
Y-67913D02*
D03*
Y-71850D02*
D03*
Y-75787D02*
D03*
Y-79724D02*
D03*
Y-83661D02*
D03*
Y-87598D02*
D03*
Y-91535D02*
D03*
Y-95473D02*
D03*
Y-99410D02*
D03*
Y-48228D02*
D03*
X45571Y-44980D02*
D03*
X-63287D02*
D03*
X30512Y-42323D02*
D03*
X38386D02*
D03*
X34449D02*
D03*
X42323D02*
D03*
X2953D02*
D03*
X10827D02*
D03*
X6890D02*
D03*
X18701D02*
D03*
X14764D02*
D03*
X26575D02*
D03*
X22638D02*
D03*
X-24606D02*
D03*
X-16732D02*
D03*
X-20669D02*
D03*
X-8858D02*
D03*
X-12795D02*
D03*
X-984D02*
D03*
X-4921D02*
D03*
X-52165D02*
D03*
X-44291D02*
D03*
X-48228D02*
D03*
X-36417D02*
D03*
X-40354D02*
D03*
X-28543D02*
D03*
X-32480D02*
D03*
X-56102D02*
D03*
X-60039D02*
D03*
X-65945Y-48228D02*
D03*
X17717Y-123031D02*
D03*
X15748Y-126969D02*
D03*
X14764Y-130905D02*
D03*
X-14469Y-146752D02*
D03*
X-17717Y-144291D02*
D03*
X-22047Y-144193D02*
D03*
X-25492Y-146653D02*
D03*
X-12795Y-150591D02*
D03*
X14764Y-134843D02*
D03*
Y-138779D02*
D03*
Y-142717D02*
D03*
Y-146653D02*
D03*
Y-150591D02*
D03*
X10827D02*
D03*
X6890D02*
D03*
X2953D02*
D03*
X-984D02*
D03*
X-4921D02*
D03*
X-8858D02*
D03*
X-65945Y-99410D02*
D03*
Y-95473D02*
D03*
Y-91535D02*
D03*
Y-87598D02*
D03*
Y-83661D02*
D03*
Y-79724D02*
D03*
Y-75787D02*
D03*
Y-71850D02*
D03*
Y-67913D02*
D03*
Y-63976D02*
D03*
Y-60039D02*
D03*
Y-56102D02*
D03*
Y-52165D02*
D03*
X-26575Y-150591D02*
D03*
X-30512D02*
D03*
X-34449D02*
D03*
X-38386D02*
D03*
X-42323D02*
D03*
X-46260D02*
D03*
X-50197D02*
D03*
X-54134D02*
D03*
X-58071D02*
D03*
X-62008D02*
D03*
X-65945D02*
D03*
Y-146653D02*
D03*
Y-142717D02*
D03*
Y-138779D02*
D03*
Y-134843D02*
D03*
Y-130905D02*
D03*
Y-126969D02*
D03*
Y-123031D02*
D03*
Y-119095D02*
D03*
Y-115157D02*
D03*
X-77756Y124803D02*
D03*
Y97244D02*
D03*
Y93307D02*
D03*
Y120866D02*
D03*
Y116929D02*
D03*
Y112992D02*
D03*
Y109055D02*
D03*
Y105118D02*
D03*
Y101181D02*
D03*
X-77264Y78347D02*
D03*
X-78248Y74213D02*
D03*
X-80315Y70374D02*
D03*
X-83169Y67126D02*
D03*
X-87205Y65354D02*
D03*
X-91535Y64961D02*
D03*
X-95472Y64961D02*
D03*
X-99409D02*
D03*
X-103347D02*
D03*
X-107283D02*
D03*
X-111221Y64961D02*
D03*
X3853Y148622D02*
D03*
X-84D02*
D03*
X-4021D02*
D03*
X-7958D02*
D03*
X-11895D02*
D03*
X-43391D02*
D03*
X-39454D02*
D03*
X-35517D02*
D03*
X-31580D02*
D03*
X-27643D02*
D03*
X-23707D02*
D03*
X-19770D02*
D03*
X-15833D02*
D03*
X-55203D02*
D03*
X-51266D02*
D03*
X-47328D02*
D03*
X86530D02*
D03*
X82593D02*
D03*
X78656D02*
D03*
X47160D02*
D03*
X51097D02*
D03*
X55034D02*
D03*
X58971D02*
D03*
X62908D02*
D03*
X66845D02*
D03*
X70782D02*
D03*
X74719D02*
D03*
X15664D02*
D03*
X19601D02*
D03*
X23538D02*
D03*
X27475D02*
D03*
X31412D02*
D03*
X35349D02*
D03*
X39286D02*
D03*
X43223D02*
D03*
X11727D02*
D03*
X7790D02*
D03*
X105512Y146063D02*
D03*
X109168Y144685D02*
D03*
X117042D02*
D03*
X113104D02*
D03*
X-193209Y-89173D02*
D03*
X-195768Y-92618D02*
D03*
X-198819Y-95768D02*
D03*
X-202165Y-98524D02*
D03*
X-205906Y-100492D02*
D03*
X-210236Y-101673D02*
D03*
X-214567Y-102362D02*
D03*
X-218504D02*
D03*
X-218393Y-106037D02*
D03*
X-218504Y-110236D02*
D03*
X-250984Y-139370D02*
D03*
Y-143996D02*
D03*
X-250984Y-148622D02*
D03*
X-247047D02*
D03*
X-250984Y-134843D02*
D03*
X-247047D02*
D03*
X-243110D02*
D03*
X-239173D02*
D03*
X-234948Y-134452D02*
D03*
X-231263Y-133269D02*
D03*
X-227690Y-131359D02*
D03*
X-218504Y-114173D02*
D03*
X-218894Y-118399D02*
D03*
X-224558Y-128789D02*
D03*
X-224558Y-128789D02*
D03*
X-220077Y-122083D02*
D03*
X-221987Y-125656D02*
D03*
X262795Y-42323D02*
D03*
Y-46260D02*
D03*
Y-3937D02*
D03*
Y-7874D02*
D03*
Y-11811D02*
D03*
Y-15748D02*
D03*
Y-19685D02*
D03*
Y-23622D02*
D03*
Y-27559D02*
D03*
Y27559D02*
D03*
Y23622D02*
D03*
Y19685D02*
D03*
Y15748D02*
D03*
Y11811D02*
D03*
Y7874D02*
D03*
Y3937D02*
D03*
Y0D02*
D03*
X250984Y134842D02*
D03*
X247047D02*
D03*
X243110D02*
D03*
X239173D02*
D03*
X234948Y134452D02*
D03*
X231263Y133269D02*
D03*
X227690Y131359D02*
D03*
X218504Y114173D02*
D03*
X218894Y118398D02*
D03*
X224558Y128788D02*
D03*
X224558Y128788D02*
D03*
X220077Y122083D02*
D03*
X221987Y125656D02*
D03*
X250984Y138779D02*
D03*
Y142716D02*
D03*
X247146Y144488D02*
D03*
X221987Y102690D02*
D03*
X220077Y106263D02*
D03*
X224558Y99558D02*
D03*
X224558Y99558D02*
D03*
X218894Y109948D02*
D03*
X227690Y96987D02*
D03*
X231263Y95077D02*
D03*
X234948Y93894D02*
D03*
X239173Y93504D02*
D03*
X243110Y93504D02*
D03*
X247047D02*
D03*
X250984D02*
D03*
X255020Y92421D02*
D03*
X258366Y89370D02*
D03*
X262795Y81693D02*
D03*
X260925Y85827D02*
D03*
X262795Y77756D02*
D03*
Y69882D02*
D03*
Y73819D02*
D03*
Y-73819D02*
D03*
Y-69882D02*
D03*
Y-65945D02*
D03*
Y-62008D02*
D03*
Y-58071D02*
D03*
Y-54134D02*
D03*
Y-50197D02*
D03*
Y-77756D02*
D03*
X260925Y-85827D02*
D03*
X262795Y-81693D02*
D03*
X258366Y-89370D02*
D03*
X255020Y-92421D02*
D03*
X250984Y-93504D02*
D03*
X247047D02*
D03*
X243110D02*
D03*
X239173Y-93504D02*
D03*
X234948Y-93894D02*
D03*
X231263Y-95077D02*
D03*
X227690Y-96987D02*
D03*
X218894Y-109948D02*
D03*
X224558Y-99558D02*
D03*
X224558Y-99558D02*
D03*
X220077Y-106264D02*
D03*
X221987Y-102690D02*
D03*
X247146Y-144488D02*
D03*
X250984Y-142717D02*
D03*
Y-138779D02*
D03*
X244094Y-147638D02*
D03*
X221987Y-125656D02*
D03*
X220077Y-122083D02*
D03*
X224558Y-128789D02*
D03*
X224558Y-128789D02*
D03*
X218894Y-118399D02*
D03*
X218504Y-114173D02*
D03*
X227690Y-131359D02*
D03*
X231263Y-133269D02*
D03*
X234948Y-134452D02*
D03*
X239173Y-134843D02*
D03*
X243110D02*
D03*
X247047D02*
D03*
X250984D02*
D03*
X240158Y-147638D02*
D03*
X236221D02*
D03*
X232283D02*
D03*
X228346D02*
D03*
X224410D02*
D03*
X220472D02*
D03*
X216535D02*
D03*
X212598D02*
D03*
X181102D02*
D03*
X185039D02*
D03*
X188976D02*
D03*
X192913D02*
D03*
X161417D02*
D03*
X157480D02*
D03*
X153543D02*
D03*
X133366Y-146260D02*
D03*
X137795Y-147638D02*
D03*
X141732D02*
D03*
X145669D02*
D03*
X149606D02*
D03*
X129022Y-144685D02*
D03*
X121147D02*
D03*
X125084D02*
D03*
X113273D02*
D03*
X117210D02*
D03*
X109336D02*
D03*
X105217Y-146161D02*
D03*
X101575Y-148721D02*
D03*
X97441Y-150591D02*
D03*
X93504D02*
D03*
X89567D02*
D03*
X85630D02*
D03*
X81693D02*
D03*
X77756D02*
D03*
X73819D02*
D03*
X69882D02*
D03*
X65945Y-44291D02*
D03*
Y-48228D02*
D03*
Y-71850D02*
D03*
Y-67913D02*
D03*
Y-63976D02*
D03*
Y-60039D02*
D03*
Y-56102D02*
D03*
Y-52165D02*
D03*
Y-111221D02*
D03*
Y-107283D02*
D03*
Y-103347D02*
D03*
Y-99410D02*
D03*
Y-95472D02*
D03*
Y-91535D02*
D03*
Y-87598D02*
D03*
Y-83661D02*
D03*
Y-79724D02*
D03*
Y-75787D02*
D03*
Y-150591D02*
D03*
Y-146653D02*
D03*
Y-142717D02*
D03*
Y-138779D02*
D03*
Y-134843D02*
D03*
Y-130905D02*
D03*
Y-126969D02*
D03*
Y-123031D02*
D03*
Y-119095D02*
D03*
Y-115157D02*
D03*
X59842Y-32874D02*
D03*
X56693Y-29724D02*
D03*
X-62106Y-24508D02*
D03*
X53051Y-26673D02*
D03*
X-70177D02*
D03*
X-58169Y-24508D02*
D03*
X-66240Y-25098D02*
D03*
X-73623Y-29332D02*
D03*
X65059Y-40059D02*
D03*
X62795Y-36319D02*
D03*
X40354Y-24606D02*
D03*
X44291D02*
D03*
X48819Y-25098D02*
D03*
X-10827Y-24606D02*
D03*
X-6890D02*
D03*
X-18701D02*
D03*
X-14764D02*
D03*
X-26575D02*
D03*
X-22638D02*
D03*
X-34449D02*
D03*
X-30512D02*
D03*
X-42323D02*
D03*
X-38386D02*
D03*
X-50197D02*
D03*
X-46260D02*
D03*
X-54134D02*
D03*
X-79528Y-35433D02*
D03*
X-82284Y-38976D02*
D03*
X-83465Y-43307D02*
D03*
X-83661Y-47244D02*
D03*
Y-51181D02*
D03*
Y-55118D02*
D03*
Y-59055D02*
D03*
Y-62992D02*
D03*
Y-66929D02*
D03*
Y-70866D02*
D03*
Y-74803D02*
D03*
Y-78740D02*
D03*
Y-82677D02*
D03*
Y-86614D02*
D03*
Y-90551D02*
D03*
Y-94488D02*
D03*
Y-98425D02*
D03*
Y-115157D02*
D03*
Y-119095D02*
D03*
Y-123031D02*
D03*
Y-126969D02*
D03*
Y-130905D02*
D03*
Y-134843D02*
D03*
Y-138779D02*
D03*
Y-142717D02*
D03*
Y-146653D02*
D03*
Y-150591D02*
D03*
X-87598D02*
D03*
X-102461Y-148130D02*
D03*
X-99410Y-150591D02*
D03*
X-91535D02*
D03*
X-95472D02*
D03*
X-105681Y-146063D02*
D03*
X-109336Y-144685D02*
D03*
X-243110Y-148622D02*
D03*
X-235236D02*
D03*
X-239173D02*
D03*
X-215551Y-148622D02*
D03*
X-219488D02*
D03*
X-227362Y-148622D02*
D03*
X-223425D02*
D03*
X-231299D02*
D03*
X-139848Y-148622D02*
D03*
X-117210Y-144685D02*
D03*
X-113273D02*
D03*
X-125084D02*
D03*
X-121147D02*
D03*
X-129022D02*
D03*
X-132677Y-146063D02*
D03*
X-135911Y-148622D02*
D03*
X-159449Y-148622D02*
D03*
X-155512D02*
D03*
X-179134D02*
D03*
X-175197D02*
D03*
X-171260D02*
D03*
X-167323D02*
D03*
X-163386D02*
D03*
X-190945D02*
D03*
X-194882D02*
D03*
X-198819D02*
D03*
X-187008D02*
D03*
X-183071D02*
D03*
X-191339Y-85433D02*
D03*
X-190157Y-81102D02*
D03*
X-189961Y-72835D02*
D03*
Y-68898D02*
D03*
Y-64961D02*
D03*
Y-5906D02*
D03*
Y17717D02*
D03*
Y-17717D02*
D03*
Y-1969D02*
D03*
Y1969D02*
D03*
Y9843D02*
D03*
Y29528D02*
D03*
Y25591D02*
D03*
Y21654D02*
D03*
Y33465D02*
D03*
Y13780D02*
D03*
Y-9843D02*
D03*
Y5906D02*
D03*
Y-25591D02*
D03*
Y-21654D02*
D03*
Y-13780D02*
D03*
Y-76772D02*
D03*
Y-33465D02*
D03*
Y-29528D02*
D03*
Y-41339D02*
D03*
Y-57087D02*
D03*
Y-37402D02*
D03*
Y-61024D02*
D03*
Y-53150D02*
D03*
Y-49213D02*
D03*
Y-45276D02*
D03*
X-147638Y82677D02*
D03*
X-151575D02*
D03*
X-187008D02*
D03*
X-183071D02*
D03*
X-179134D02*
D03*
X-155512D02*
D03*
X-159449D02*
D03*
X-171260Y82677D02*
D03*
X-167323D02*
D03*
X-163386D02*
D03*
X-175197D02*
D03*
X-186024Y64961D02*
D03*
X-182087D02*
D03*
X-178150D02*
D03*
X-174213Y64961D02*
D03*
X-170276D02*
D03*
X-166339D02*
D03*
X-162402D02*
D03*
X-158465Y64961D02*
D03*
X-154527D02*
D03*
X-150591D02*
D03*
X-146653D02*
D03*
X-189961D02*
D03*
Y61024D02*
D03*
Y53150D02*
D03*
Y49213D02*
D03*
Y45276D02*
D03*
Y37402D02*
D03*
Y57087D02*
D03*
Y41339D02*
D03*
X-125000Y102362D02*
D03*
X-95472Y127953D02*
D03*
Y124016D02*
D03*
Y120079D02*
D03*
Y104331D02*
D03*
Y108268D02*
D03*
Y112205D02*
D03*
Y116142D02*
D03*
X-94488Y148622D02*
D03*
X-98425D02*
D03*
X-102362D02*
D03*
X-106299Y145669D02*
D03*
X-111221Y144685D02*
D03*
X-119095D02*
D03*
X-115157D02*
D03*
X-131890Y145669D02*
D03*
X-126969Y144685D02*
D03*
X-123031D02*
D03*
X-167323Y148622D02*
D03*
X-163386D02*
D03*
X-221457D02*
D03*
X-159449D02*
D03*
X-155512D02*
D03*
X-151575D02*
D03*
X-147638D02*
D03*
X-205709D02*
D03*
X-143701D02*
D03*
X-139764D02*
D03*
X-135827D02*
D03*
X-114567Y82677D02*
D03*
X-118504D02*
D03*
X-122441D02*
D03*
X-205217Y100098D02*
D03*
X-201181Y97539D02*
D03*
X-197835Y94488D02*
D03*
X-194783Y91142D02*
D03*
X-192224Y87106D02*
D03*
X-190945Y82677D02*
D03*
X-209646Y101575D02*
D03*
X-214567Y102362D02*
D03*
X-237205Y148622D02*
D03*
X-201772D02*
D03*
X-209646D02*
D03*
X-213583D02*
D03*
X-217520D02*
D03*
X-225394D02*
D03*
X-229331D02*
D03*
X-233268D02*
D03*
X-221987Y125656D02*
D03*
X-220077Y122083D02*
D03*
X-224558Y128789D02*
D03*
X-224558Y128789D02*
D03*
X-218504Y102362D02*
D03*
Y106299D02*
D03*
Y110236D02*
D03*
X-218894Y118399D02*
D03*
X-218504Y114173D02*
D03*
X-227690Y131359D02*
D03*
X-231263Y133269D02*
D03*
X-234948Y134452D02*
D03*
X-239173Y134843D02*
D03*
X-243110D02*
D03*
X-247047D02*
D03*
X-250984D02*
D03*
Y138779D02*
D03*
Y142717D02*
D03*
X-241142Y148622D02*
D03*
X-247047Y144685D02*
D03*
X-245079Y148622D02*
D03*
X-52165Y-74803D02*
D03*
X56102Y114567D02*
D03*
Y139173D02*
D03*
X-88976Y-106496D02*
D03*
X-62147Y142531D02*
D03*
X187598Y-70891D02*
D03*
X206693Y-68898D02*
D03*
X240158Y-81693D02*
D03*
X165355Y-31496D02*
D03*
X112205Y-7874D02*
D03*
X82677Y-4921D02*
D03*
X4508Y9016D02*
D03*
Y-0D02*
D03*
X-4508Y9016D02*
D03*
Y-0D02*
D03*
X-122047Y-87599D02*
D03*
X-122047Y-62992D02*
D03*
X-147638Y-45935D02*
D03*
X-125000Y-33500D02*
D03*
X-125327Y-26173D02*
D03*
X-99541Y-26541D02*
D03*
X-82783Y-27632D02*
D03*
X-83047Y-20268D02*
D03*
X-83114Y-14362D02*
D03*
X-97080Y15142D02*
D03*
X-113189Y27311D02*
D03*
X-116094Y58594D02*
D03*
X-142500Y56000D02*
D03*
D112*
X191929Y-123071D02*
D03*
D115*
X-184155Y-134230D02*
D03*
X-170218Y-134168D02*
D03*
X-177165Y-127165D02*
D03*
X-25965Y-118032D02*
D03*
D118*
X-202756Y136811D02*
D03*
D121*
X244882Y-41732D02*
D03*
X169685Y48425D02*
D03*
X151181Y7087D02*
D03*
D123*
X230315Y5906D02*
D03*
M02*
