G04*
G04 #@! TF.GenerationSoftware,Altium Limited,Altium Designer,21.2.0 (30)*
G04*
G04 Layer_Color=8388736*
%FSLAX25Y25*%
%MOIN*%
G70*
G04*
G04 #@! TF.SameCoordinates,586DA71B-A414-44C7-A424-215A95C81ED1*
G04*
G04*
G04 #@! TF.FilePolarity,Negative*
G04*
G01*
G75*
%ADD10C,0.01000*%
%ADD58R,0.03950X0.03950*%
%ADD59R,0.08674X0.07887*%
%ADD60R,0.07887X0.08674*%
%ADD61R,0.03950X0.04343*%
%ADD62R,0.05131X0.05131*%
%ADD63R,0.04343X0.06706*%
%ADD64R,0.06706X0.04343*%
%ADD65R,0.07296X0.03792*%
%ADD66R,0.02178X0.06312*%
%ADD67R,0.06312X0.02178*%
%ADD68R,0.03950X0.02769*%
%ADD69R,0.02769X0.03950*%
%ADD70R,0.03950X0.03359*%
%ADD71R,0.03359X0.03950*%
%ADD72R,0.04973X0.04973*%
%ADD73R,0.04737X0.03556*%
%ADD74R,0.03300X0.04300*%
%ADD75R,0.04300X0.03300*%
%ADD76R,0.04934X0.09855*%
%ADD77R,0.07300X0.04300*%
%ADD78R,0.07300X0.05300*%
%ADD79R,0.13202X0.07808*%
%ADD80C,0.04737*%
%ADD81R,0.04737X0.04343*%
%ADD82R,0.04800X0.07800*%
%ADD83R,0.03550X0.12211*%
%ADD84R,0.06115X0.04343*%
%ADD85R,0.04300X0.07300*%
%ADD86R,0.05800X0.10800*%
%ADD87O,0.09461X0.03162*%
%ADD88O,0.03162X0.09461*%
%ADD89R,0.01883X0.01883*%
%ADD90R,0.01883X0.01784*%
%ADD91R,0.01784X0.01883*%
%ADD92R,0.04343X0.04343*%
%ADD93C,0.02965*%
%ADD94O,0.07690X0.06902*%
%ADD95C,0.16548*%
%ADD96C,0.28359*%
%ADD97C,0.09068*%
%ADD98C,0.00800*%
%ADD99C,0.05701*%
%ADD100C,0.07887*%
%ADD101R,0.07887X0.07887*%
%ADD102O,0.06706X0.08674*%
%ADD103R,0.06706X0.08674*%
G36*
X105512Y-44821D02*
X106206D01*
Y-44867D01*
X106669D01*
Y-44914D01*
X107039D01*
Y-44960D01*
X107363D01*
Y-45006D01*
X107641D01*
Y-45052D01*
X107918D01*
Y-45099D01*
X108150D01*
Y-45145D01*
X108381D01*
Y-45191D01*
X108612D01*
Y-45237D01*
X108797D01*
Y-45284D01*
X109029D01*
Y-45330D01*
X109214D01*
Y-45376D01*
X109399D01*
Y-45422D01*
X109538D01*
Y-45469D01*
X109723D01*
Y-45515D01*
X109862D01*
Y-45561D01*
X110047D01*
Y-45608D01*
X110185D01*
Y-45654D01*
X110324D01*
Y-45700D01*
X110463D01*
Y-45746D01*
X110602D01*
Y-45793D01*
X110741D01*
Y-45839D01*
X110879D01*
Y-45885D01*
X110972D01*
Y-45931D01*
X111111D01*
Y-45978D01*
X111250D01*
Y-46024D01*
X111342D01*
Y-46070D01*
X111481D01*
Y-46117D01*
X111574D01*
Y-46163D01*
X111712D01*
Y-46209D01*
X111805D01*
Y-46255D01*
X111944D01*
Y-46301D01*
X112036D01*
Y-46348D01*
X112129D01*
Y-46394D01*
X112221D01*
Y-46440D01*
X112360D01*
Y-46487D01*
X112453D01*
Y-46533D01*
X112545D01*
Y-46579D01*
X112638D01*
Y-46626D01*
X112730D01*
Y-46672D01*
X112823D01*
Y-46718D01*
X112915D01*
Y-46764D01*
X113008D01*
Y-46810D01*
X113100D01*
Y-46857D01*
X113193D01*
Y-46903D01*
X113286D01*
Y-46949D01*
X113378D01*
Y-46996D01*
X113471D01*
Y-47042D01*
X113517D01*
Y-47088D01*
X113609D01*
Y-47134D01*
X113702D01*
Y-47181D01*
X113795D01*
Y-47227D01*
X113841D01*
Y-47273D01*
X113933D01*
Y-47319D01*
X114026D01*
Y-47366D01*
X114118D01*
Y-47412D01*
X114165D01*
Y-47458D01*
X114257D01*
Y-47505D01*
X114350D01*
Y-47551D01*
X114396D01*
Y-47597D01*
X114489D01*
Y-47643D01*
X114535D01*
Y-47690D01*
X114627D01*
Y-47736D01*
X114674D01*
Y-47782D01*
X114766D01*
Y-47829D01*
X114812D01*
Y-47875D01*
X114905D01*
Y-47921D01*
X114951D01*
Y-47967D01*
X115044D01*
Y-48014D01*
X115090D01*
Y-48060D01*
X115183D01*
Y-48106D01*
X115229D01*
Y-48152D01*
X115321D01*
Y-48199D01*
X115368D01*
Y-48245D01*
X115460D01*
Y-48291D01*
X115506D01*
Y-48338D01*
X115553D01*
Y-48384D01*
X115645D01*
Y-48430D01*
X115692D01*
Y-48476D01*
X115738D01*
Y-48523D01*
X115830D01*
Y-48569D01*
X115877D01*
Y-48615D01*
X115923D01*
Y-48661D01*
X116016D01*
Y-48708D01*
X116062D01*
Y-48754D01*
X116108D01*
Y-48800D01*
X116154D01*
Y-48846D01*
X116247D01*
Y-48893D01*
X116293D01*
Y-48939D01*
X116339D01*
Y-48985D01*
X116386D01*
Y-49031D01*
X116432D01*
Y-49078D01*
X116525D01*
Y-49124D01*
X116571D01*
Y-49170D01*
X116617D01*
Y-49217D01*
X116663D01*
Y-49263D01*
X116710D01*
Y-49309D01*
X116756D01*
Y-49355D01*
X116848D01*
Y-49402D01*
X116895D01*
Y-49448D01*
X116941D01*
Y-49494D01*
X116987D01*
Y-49540D01*
X117033D01*
Y-49587D01*
X117080D01*
Y-49633D01*
X117126D01*
Y-49679D01*
X117172D01*
Y-49726D01*
X117218D01*
Y-49772D01*
X117311D01*
Y-49818D01*
X117357D01*
Y-49864D01*
X117404D01*
Y-49911D01*
X117450D01*
Y-49957D01*
X117496D01*
Y-50003D01*
X117542D01*
Y-50050D01*
X117589D01*
Y-50096D01*
X117635D01*
Y-50142D01*
X117681D01*
Y-50188D01*
X117727D01*
Y-50235D01*
X117774D01*
Y-50281D01*
X117820D01*
Y-50327D01*
X117866D01*
Y-50373D01*
X117913D01*
Y-50420D01*
X117959D01*
Y-50466D01*
X118005D01*
Y-50512D01*
X118051D01*
Y-50558D01*
X118098D01*
Y-50605D01*
X118144D01*
Y-50651D01*
X118190D01*
Y-50697D01*
X118236D01*
Y-50744D01*
X118283D01*
Y-50790D01*
X118329D01*
Y-50836D01*
X118375D01*
Y-50882D01*
X118422D01*
Y-50929D01*
X118468D01*
Y-50975D01*
X118514D01*
Y-51021D01*
X118560D01*
Y-51067D01*
X118607D01*
Y-51114D01*
X118653D01*
Y-51160D01*
X118699D01*
Y-51206D01*
X118746D01*
Y-51253D01*
X118792D01*
Y-51299D01*
X118838D01*
Y-51345D01*
X118884D01*
Y-51391D01*
X118930D01*
Y-51438D01*
X119023D01*
Y-51484D01*
X119069D01*
Y-51530D01*
X119116D01*
Y-51576D01*
X119162D01*
Y-51623D01*
X119208D01*
Y-51669D01*
X119254D01*
Y-51715D01*
X119301D01*
Y-51762D01*
X119347D01*
Y-51808D01*
X119393D01*
Y-51854D01*
X119439D01*
Y-51900D01*
X119486D01*
Y-51947D01*
X119532D01*
Y-51993D01*
X119578D01*
Y-52039D01*
X119625D01*
Y-52085D01*
X119671D01*
Y-52132D01*
X119717D01*
Y-52178D01*
X119763D01*
Y-52224D01*
X119810D01*
Y-52271D01*
X119856D01*
Y-52317D01*
X119902D01*
Y-52363D01*
X119948D01*
Y-52409D01*
X120041D01*
Y-52456D01*
X120087D01*
Y-52502D01*
X120134D01*
Y-52548D01*
X120180D01*
Y-52594D01*
X120226D01*
Y-52641D01*
X120272D01*
Y-52687D01*
X120319D01*
Y-52733D01*
X120365D01*
Y-52779D01*
X120411D01*
Y-52826D01*
X120457D01*
Y-52872D01*
X120504D01*
Y-52918D01*
X120550D01*
Y-52965D01*
X120596D01*
Y-53011D01*
X120643D01*
Y-53057D01*
X120689D01*
Y-53103D01*
X120735D01*
Y-53150D01*
X120781D01*
Y-53196D01*
X120828D01*
Y-53242D01*
X120874D01*
Y-53288D01*
X120920D01*
Y-53335D01*
X120966D01*
Y-53381D01*
X121013D01*
Y-53427D01*
X121059D01*
Y-53474D01*
X121105D01*
Y-53520D01*
X121151D01*
Y-53566D01*
X121198D01*
Y-53612D01*
X121244D01*
Y-53659D01*
X121290D01*
Y-53705D01*
X121337D01*
Y-53751D01*
X121383D01*
Y-53797D01*
X121429D01*
Y-53844D01*
X121476D01*
Y-53890D01*
X121522D01*
Y-53936D01*
X121568D01*
Y-53983D01*
X121614D01*
Y-54029D01*
X121660D01*
Y-54075D01*
X121707D01*
Y-54121D01*
X121753D01*
Y-54168D01*
X121799D01*
Y-54214D01*
X121846D01*
Y-54260D01*
X121892D01*
Y-54306D01*
X121938D01*
Y-54353D01*
X121984D01*
Y-54399D01*
X122031D01*
Y-54445D01*
X122077D01*
Y-54492D01*
X122123D01*
Y-54538D01*
X122169D01*
Y-54584D01*
X122216D01*
Y-54630D01*
X122262D01*
Y-54677D01*
X122308D01*
Y-54723D01*
X122355D01*
Y-54769D01*
X122401D01*
Y-54815D01*
X122447D01*
Y-54862D01*
X122493D01*
Y-54908D01*
X122540D01*
Y-54954D01*
X122586D01*
Y-55001D01*
Y-55047D01*
X122632D01*
Y-55093D01*
X122678D01*
Y-55139D01*
X122725D01*
Y-55186D01*
X122771D01*
Y-55232D01*
X122817D01*
Y-55278D01*
X122864D01*
Y-55324D01*
X122910D01*
Y-55371D01*
X122956D01*
Y-55417D01*
X123002D01*
Y-55463D01*
X123049D01*
Y-55509D01*
X123095D01*
Y-55556D01*
Y-55602D01*
X123141D01*
Y-55648D01*
X123187D01*
Y-55695D01*
X123234D01*
Y-55741D01*
X123280D01*
Y-55787D01*
X123326D01*
Y-55833D01*
X123372D01*
Y-55880D01*
X123419D01*
Y-55926D01*
Y-55972D01*
X123465D01*
Y-56018D01*
X123511D01*
Y-56065D01*
X123558D01*
Y-56111D01*
X123604D01*
Y-56157D01*
X123650D01*
Y-56204D01*
X123696D01*
Y-56250D01*
Y-56296D01*
X123743D01*
Y-56342D01*
X123789D01*
Y-56389D01*
X123835D01*
Y-56435D01*
X123881D01*
Y-56481D01*
X123928D01*
Y-56527D01*
Y-56574D01*
X123974D01*
Y-56620D01*
X124020D01*
Y-56666D01*
X124067D01*
Y-56713D01*
X124113D01*
Y-56759D01*
Y-56805D01*
X124159D01*
Y-56851D01*
X124205D01*
Y-56897D01*
X124252D01*
Y-56944D01*
X124298D01*
Y-56990D01*
Y-57036D01*
X124344D01*
Y-57083D01*
X124390D01*
Y-57129D01*
X124437D01*
Y-57175D01*
Y-57222D01*
X124483D01*
Y-57268D01*
X124529D01*
Y-57314D01*
X124576D01*
Y-57360D01*
Y-57407D01*
X124622D01*
Y-57453D01*
X124668D01*
Y-57499D01*
X124714D01*
Y-57545D01*
Y-57592D01*
X124761D01*
Y-57638D01*
X124807D01*
Y-57684D01*
Y-57730D01*
X124853D01*
Y-57777D01*
X124899D01*
Y-57823D01*
X124946D01*
Y-57869D01*
Y-57916D01*
X124992D01*
Y-57962D01*
X125038D01*
Y-58008D01*
Y-58054D01*
X125084D01*
Y-58101D01*
X125131D01*
Y-58147D01*
Y-58193D01*
X125177D01*
Y-58239D01*
X125223D01*
Y-58286D01*
Y-58332D01*
X125270D01*
Y-58378D01*
X125316D01*
Y-58425D01*
Y-58471D01*
X125362D01*
Y-58517D01*
Y-58563D01*
X125408D01*
Y-58610D01*
X125455D01*
Y-58656D01*
Y-58702D01*
X125501D01*
Y-58748D01*
Y-58795D01*
X125547D01*
Y-58841D01*
X125593D01*
Y-58887D01*
Y-58934D01*
X125640D01*
Y-58980D01*
Y-59026D01*
X125686D01*
Y-59072D01*
Y-59119D01*
X125732D01*
Y-59165D01*
X125779D01*
Y-59211D01*
Y-59257D01*
X125825D01*
Y-59304D01*
Y-59350D01*
X125871D01*
Y-59396D01*
Y-59442D01*
X125917D01*
Y-59489D01*
Y-59535D01*
X125964D01*
Y-59581D01*
Y-59627D01*
X126010D01*
Y-59674D01*
Y-59720D01*
X126056D01*
Y-59766D01*
Y-59813D01*
X126102D01*
Y-59859D01*
Y-59905D01*
X126149D01*
Y-59951D01*
Y-59998D01*
X126195D01*
Y-60044D01*
Y-60090D01*
X126241D01*
Y-60136D01*
Y-60183D01*
Y-60229D01*
X126288D01*
Y-60275D01*
Y-60322D01*
X126334D01*
Y-60368D01*
Y-60414D01*
Y-60460D01*
X126380D01*
Y-60507D01*
Y-60553D01*
X126426D01*
Y-60599D01*
Y-60646D01*
Y-60692D01*
X126473D01*
Y-60738D01*
Y-60784D01*
Y-60831D01*
X126519D01*
Y-60877D01*
Y-60923D01*
X126565D01*
Y-60969D01*
Y-61016D01*
Y-61062D01*
X126611D01*
Y-61108D01*
Y-61155D01*
Y-61201D01*
Y-61247D01*
X126658D01*
Y-61293D01*
Y-61339D01*
Y-61386D01*
X126704D01*
Y-61432D01*
Y-61478D01*
Y-61525D01*
Y-61571D01*
X126750D01*
Y-61617D01*
Y-61663D01*
Y-61710D01*
Y-61756D01*
X126797D01*
Y-61802D01*
Y-61848D01*
Y-61895D01*
Y-61941D01*
Y-61987D01*
X126843D01*
Y-62034D01*
Y-62080D01*
Y-62126D01*
Y-62172D01*
Y-62219D01*
X126889D01*
Y-62265D01*
Y-62311D01*
Y-62357D01*
Y-62404D01*
Y-62450D01*
Y-62496D01*
Y-62543D01*
X126935D01*
Y-62589D01*
Y-62635D01*
Y-62681D01*
Y-62728D01*
Y-62774D01*
Y-62820D01*
Y-62866D01*
Y-62913D01*
Y-62959D01*
Y-63005D01*
Y-63051D01*
Y-63098D01*
Y-63144D01*
Y-63190D01*
Y-63237D01*
Y-63283D01*
Y-63329D01*
Y-63375D01*
Y-63422D01*
Y-63468D01*
Y-63514D01*
Y-63560D01*
Y-63607D01*
Y-63653D01*
Y-63699D01*
Y-63746D01*
Y-63792D01*
Y-63838D01*
Y-63884D01*
Y-63931D01*
Y-63977D01*
Y-64023D01*
Y-64069D01*
Y-64116D01*
Y-64162D01*
Y-64208D01*
X126889D01*
Y-64255D01*
Y-64301D01*
Y-64347D01*
Y-64393D01*
Y-64440D01*
Y-64486D01*
Y-64532D01*
X126843D01*
Y-64578D01*
Y-64625D01*
Y-64671D01*
Y-64717D01*
Y-64764D01*
X126797D01*
Y-64810D01*
Y-64856D01*
Y-64902D01*
Y-64949D01*
Y-64995D01*
X126750D01*
Y-65041D01*
Y-65087D01*
Y-65134D01*
Y-65180D01*
X126704D01*
Y-65226D01*
Y-65273D01*
Y-65319D01*
Y-65365D01*
X126658D01*
Y-65411D01*
Y-65458D01*
Y-65504D01*
X126611D01*
Y-65550D01*
Y-65596D01*
Y-65643D01*
X126565D01*
Y-65689D01*
Y-65735D01*
Y-65781D01*
X126519D01*
Y-65828D01*
Y-65874D01*
Y-65920D01*
X126473D01*
Y-65967D01*
Y-66013D01*
Y-66059D01*
X126426D01*
Y-66105D01*
Y-66152D01*
Y-66198D01*
X126380D01*
Y-66244D01*
Y-66290D01*
X126334D01*
Y-66337D01*
Y-66383D01*
Y-66429D01*
X126288D01*
Y-66476D01*
Y-66522D01*
X126241D01*
Y-66568D01*
Y-66614D01*
X126195D01*
Y-66661D01*
Y-66707D01*
Y-66753D01*
X126149D01*
Y-66799D01*
Y-66846D01*
X126102D01*
Y-66892D01*
Y-66938D01*
X126056D01*
Y-66985D01*
Y-67031D01*
X126010D01*
Y-67077D01*
Y-67123D01*
X125964D01*
Y-67170D01*
Y-67216D01*
X125917D01*
Y-67262D01*
Y-67308D01*
X125871D01*
Y-67355D01*
Y-67401D01*
X125825D01*
Y-67447D01*
Y-67494D01*
X125779D01*
Y-67540D01*
X125732D01*
Y-67586D01*
Y-67632D01*
X125686D01*
Y-67679D01*
Y-67725D01*
X125640D01*
Y-67771D01*
Y-67817D01*
X125593D01*
Y-67864D01*
X125547D01*
Y-67910D01*
Y-67956D01*
X125501D01*
Y-68002D01*
Y-68049D01*
X125455D01*
Y-68095D01*
X125408D01*
Y-68141D01*
Y-68188D01*
X125362D01*
Y-68234D01*
Y-68280D01*
X125316D01*
Y-68326D01*
X125270D01*
Y-68373D01*
Y-68419D01*
X125223D01*
Y-68465D01*
X125177D01*
Y-68511D01*
Y-68558D01*
X125131D01*
Y-68604D01*
X125084D01*
Y-68650D01*
Y-68697D01*
X125038D01*
Y-68743D01*
X124992D01*
Y-68789D01*
Y-68835D01*
X124946D01*
Y-68882D01*
X124899D01*
Y-68928D01*
Y-68974D01*
X124853D01*
Y-69020D01*
X124807D01*
Y-69067D01*
X124761D01*
Y-69113D01*
Y-69159D01*
X124714D01*
Y-69206D01*
X124668D01*
Y-69252D01*
Y-69298D01*
X124622D01*
Y-69344D01*
X124576D01*
Y-69391D01*
X124529D01*
Y-69437D01*
Y-69483D01*
X124483D01*
Y-69529D01*
X124437D01*
Y-69576D01*
X124390D01*
Y-69622D01*
Y-69668D01*
X124344D01*
Y-69715D01*
X124298D01*
Y-69761D01*
X124252D01*
Y-69807D01*
X124205D01*
Y-69853D01*
Y-69900D01*
X124159D01*
Y-69946D01*
X124113D01*
Y-69992D01*
X124067D01*
Y-70038D01*
X124020D01*
Y-70085D01*
Y-70131D01*
X123974D01*
Y-70177D01*
X123928D01*
Y-70223D01*
X123881D01*
Y-70270D01*
X123835D01*
Y-70316D01*
Y-70362D01*
X123789D01*
Y-70409D01*
X123743D01*
Y-70455D01*
X123696D01*
Y-70501D01*
X123650D01*
Y-70547D01*
X123604D01*
Y-70594D01*
X123558D01*
Y-70640D01*
Y-70686D01*
X123511D01*
Y-70732D01*
X123465D01*
Y-70779D01*
X123419D01*
Y-70825D01*
X123372D01*
Y-70871D01*
X123326D01*
Y-70918D01*
X123280D01*
Y-70964D01*
Y-71010D01*
X123234D01*
Y-71056D01*
X123187D01*
Y-71103D01*
X123141D01*
Y-71149D01*
X123095D01*
Y-71195D01*
X123049D01*
Y-71241D01*
X123002D01*
Y-71288D01*
X122956D01*
Y-71334D01*
X122910D01*
Y-71380D01*
X122864D01*
Y-71426D01*
X122817D01*
Y-71473D01*
Y-71519D01*
X122771D01*
Y-71565D01*
X122725D01*
Y-71612D01*
X122678D01*
Y-71658D01*
X122632D01*
Y-71704D01*
X122586D01*
Y-71750D01*
X122540D01*
Y-71797D01*
X122493D01*
Y-71843D01*
X122447D01*
Y-71889D01*
X122401D01*
Y-71935D01*
X122355D01*
Y-71982D01*
X122308D01*
Y-72028D01*
X122262D01*
Y-72074D01*
X122216D01*
Y-72121D01*
X122169D01*
Y-72167D01*
X122123D01*
Y-72213D01*
X122077D01*
Y-72259D01*
X122031D01*
Y-72306D01*
Y-72352D01*
X121984D01*
Y-72398D01*
X121938D01*
Y-72444D01*
X121892D01*
Y-72491D01*
X121846D01*
Y-72537D01*
X121799D01*
Y-72583D01*
X121753D01*
Y-72630D01*
X121707D01*
Y-72676D01*
X121660D01*
Y-72722D01*
X121614D01*
Y-72768D01*
X121568D01*
Y-72815D01*
X121522D01*
Y-72861D01*
X121476D01*
Y-72907D01*
X121429D01*
Y-72953D01*
X121383D01*
Y-73000D01*
X121337D01*
Y-73046D01*
X121290D01*
Y-73092D01*
X121244D01*
Y-73139D01*
X121198D01*
Y-73185D01*
X121151D01*
Y-73231D01*
X121105D01*
Y-73277D01*
X121059D01*
Y-73324D01*
X120966D01*
Y-73370D01*
X120920D01*
Y-73416D01*
X120874D01*
Y-73462D01*
X120828D01*
Y-73509D01*
X120781D01*
Y-73555D01*
X120735D01*
Y-73601D01*
X120689D01*
Y-73648D01*
X120643D01*
Y-73694D01*
X120596D01*
Y-73740D01*
X120550D01*
Y-73786D01*
X120504D01*
Y-73833D01*
X120457D01*
Y-73879D01*
X120411D01*
Y-73925D01*
X120365D01*
Y-73971D01*
X120319D01*
Y-74018D01*
X120272D01*
Y-74064D01*
X120226D01*
Y-74110D01*
X120180D01*
Y-74156D01*
X120134D01*
Y-74203D01*
X120087D01*
Y-74249D01*
X120041D01*
Y-74295D01*
X119995D01*
Y-74342D01*
X119948D01*
Y-74388D01*
X119902D01*
Y-74434D01*
X119856D01*
Y-74480D01*
X119763D01*
Y-74527D01*
X119717D01*
Y-74573D01*
X119671D01*
Y-74619D01*
X119625D01*
Y-74665D01*
X119578D01*
Y-74712D01*
X119532D01*
Y-74758D01*
X119486D01*
Y-74804D01*
X119439D01*
Y-74851D01*
X119393D01*
Y-74897D01*
X119347D01*
Y-74943D01*
X119301D01*
Y-74989D01*
X119254D01*
Y-75036D01*
X119208D01*
Y-75082D01*
X119162D01*
Y-75128D01*
X119116D01*
Y-75174D01*
X119069D01*
Y-75221D01*
X119023D01*
Y-75267D01*
X118977D01*
Y-75313D01*
X118930D01*
Y-75360D01*
X118838D01*
Y-75406D01*
X118792D01*
Y-75452D01*
X118746D01*
Y-75498D01*
X118699D01*
Y-75545D01*
X118653D01*
Y-75591D01*
X118607D01*
Y-75637D01*
X118560D01*
Y-75683D01*
X118514D01*
Y-75730D01*
X118468D01*
Y-75776D01*
X118422D01*
Y-75822D01*
X118375D01*
Y-75868D01*
X118329D01*
Y-75915D01*
X118283D01*
Y-75961D01*
X118236D01*
Y-76007D01*
X118190D01*
Y-76054D01*
X118144D01*
Y-76100D01*
X118098D01*
Y-76146D01*
X118051D01*
Y-76192D01*
X118005D01*
Y-76239D01*
X117959D01*
Y-76285D01*
X117913D01*
Y-76331D01*
X117866D01*
Y-76377D01*
X117820D01*
Y-76424D01*
X117774D01*
Y-76470D01*
X117727D01*
Y-76516D01*
X117681D01*
Y-76563D01*
X117635D01*
Y-76609D01*
X117589D01*
Y-76655D01*
X117542D01*
Y-76701D01*
X117496D01*
Y-76748D01*
X117450D01*
Y-76794D01*
X117404D01*
Y-76840D01*
X117357D01*
Y-76886D01*
X117311D01*
Y-76933D01*
X117218D01*
Y-76979D01*
X117172D01*
Y-77025D01*
X117126D01*
Y-77072D01*
X117080D01*
Y-77118D01*
X117033D01*
Y-77164D01*
X116987D01*
Y-77210D01*
X116941D01*
Y-77257D01*
X116895D01*
Y-77303D01*
X116848D01*
Y-77349D01*
X116756D01*
Y-77395D01*
X116710D01*
Y-77442D01*
X116663D01*
Y-77488D01*
X116617D01*
Y-77534D01*
X116571D01*
Y-77581D01*
X116525D01*
Y-77627D01*
X116432D01*
Y-77673D01*
X116386D01*
Y-77719D01*
X116339D01*
Y-77766D01*
X116293D01*
Y-77812D01*
X116247D01*
Y-77858D01*
X116154D01*
Y-77904D01*
X116108D01*
Y-77951D01*
X116062D01*
Y-77997D01*
X115969D01*
Y-78043D01*
X115923D01*
Y-78089D01*
X115877D01*
Y-78136D01*
X115830D01*
Y-78182D01*
X115738D01*
Y-78228D01*
X115692D01*
Y-78275D01*
X115645D01*
Y-78321D01*
X115553D01*
Y-78367D01*
X115506D01*
Y-78413D01*
X115414D01*
Y-78460D01*
X115368D01*
Y-78506D01*
X115321D01*
Y-78552D01*
X115229D01*
Y-78598D01*
X115183D01*
Y-78645D01*
X115090D01*
Y-78691D01*
X115044D01*
Y-78737D01*
X114951D01*
Y-78784D01*
X114905D01*
Y-78830D01*
X114812D01*
Y-78876D01*
X114766D01*
Y-78922D01*
X114674D01*
Y-78969D01*
X114627D01*
Y-79015D01*
X114535D01*
Y-79061D01*
X114489D01*
Y-79107D01*
X114396D01*
Y-79154D01*
X114350D01*
Y-79200D01*
X114257D01*
Y-79246D01*
X114165D01*
Y-79293D01*
X114118D01*
Y-79339D01*
X114026D01*
Y-79385D01*
X113933D01*
Y-79431D01*
X113841D01*
Y-79478D01*
X113795D01*
Y-79524D01*
X113702D01*
Y-79570D01*
X113609D01*
Y-79616D01*
X113517D01*
Y-79663D01*
X113471D01*
Y-79709D01*
X113378D01*
Y-79755D01*
X113286D01*
Y-79802D01*
X113193D01*
Y-79848D01*
X113100D01*
Y-79894D01*
X113008D01*
Y-79940D01*
X112915D01*
Y-79987D01*
X112823D01*
Y-80033D01*
X112730D01*
Y-80079D01*
X112638D01*
Y-80125D01*
X112545D01*
Y-80172D01*
X112453D01*
Y-80218D01*
X112360D01*
Y-80264D01*
X112221D01*
Y-80310D01*
X112129D01*
Y-80357D01*
X112036D01*
Y-80403D01*
X111944D01*
Y-80449D01*
X111805D01*
Y-80496D01*
X111712D01*
Y-80542D01*
X111574D01*
Y-80588D01*
X111481D01*
Y-80634D01*
X111342D01*
Y-80681D01*
X111250D01*
Y-80727D01*
X111111D01*
Y-80773D01*
X110972D01*
Y-80819D01*
X110879D01*
Y-80866D01*
X110741D01*
Y-80912D01*
X110602D01*
Y-80958D01*
X110463D01*
Y-81005D01*
X110324D01*
Y-81051D01*
X110185D01*
Y-81097D01*
X110047D01*
Y-81143D01*
X109862D01*
Y-81190D01*
X109723D01*
Y-81236D01*
X109538D01*
Y-81282D01*
X109399D01*
Y-81328D01*
X109214D01*
Y-81375D01*
X109029D01*
Y-81421D01*
X108797D01*
Y-81467D01*
X108612D01*
Y-81514D01*
X108381D01*
Y-81560D01*
X108150D01*
Y-81606D01*
X107918D01*
Y-81652D01*
X107641D01*
Y-81699D01*
X107363D01*
Y-81745D01*
X107039D01*
Y-81791D01*
X106669D01*
Y-81837D01*
X106206D01*
Y-81884D01*
X105512D01*
Y-81930D01*
X103615D01*
Y-81884D01*
X102921D01*
Y-81837D01*
X102458D01*
Y-81791D01*
X102088D01*
Y-81745D01*
X101764D01*
Y-81699D01*
X101487D01*
Y-81652D01*
X101209D01*
Y-81606D01*
X100978D01*
Y-81560D01*
X100746D01*
Y-81514D01*
X100515D01*
Y-81467D01*
X100330D01*
Y-81421D01*
X100098D01*
Y-81375D01*
X99913D01*
Y-81328D01*
X99774D01*
Y-81282D01*
X99589D01*
Y-81236D01*
X99404D01*
Y-81190D01*
X99265D01*
Y-81143D01*
X99127D01*
Y-81097D01*
X98942D01*
Y-81051D01*
X98803D01*
Y-81005D01*
X98664D01*
Y-80958D01*
X98525D01*
Y-80912D01*
X98386D01*
Y-80866D01*
X98247D01*
Y-80819D01*
X98155D01*
Y-80773D01*
X98016D01*
Y-80727D01*
X97877D01*
Y-80681D01*
X97785D01*
Y-80634D01*
X97646D01*
Y-80588D01*
X97553D01*
Y-80542D01*
X97415D01*
Y-80496D01*
X97322D01*
Y-80449D01*
X97230D01*
Y-80403D01*
X97091D01*
Y-80357D01*
X96998D01*
Y-80310D01*
X96906D01*
Y-80264D01*
X96813D01*
Y-80218D01*
X96674D01*
Y-80172D01*
X96582D01*
Y-80125D01*
X96489D01*
Y-80079D01*
X96397D01*
Y-80033D01*
X96304D01*
Y-79987D01*
X96212D01*
Y-79940D01*
X96119D01*
Y-79894D01*
X96026D01*
Y-79848D01*
X95934D01*
Y-79802D01*
X95841D01*
Y-79755D01*
X95749D01*
Y-79709D01*
X95703D01*
Y-79663D01*
X95610D01*
Y-79616D01*
X95518D01*
Y-79570D01*
X95425D01*
Y-79524D01*
X95332D01*
Y-79478D01*
X95286D01*
Y-79431D01*
X95194D01*
Y-79385D01*
X95101D01*
Y-79339D01*
X95009D01*
Y-79293D01*
X94962D01*
Y-79246D01*
X94870D01*
Y-79200D01*
X94823D01*
Y-79154D01*
X94731D01*
Y-79107D01*
X94638D01*
Y-79061D01*
X94592D01*
Y-79015D01*
X94500D01*
Y-78969D01*
X94453D01*
Y-78922D01*
X94361D01*
Y-78876D01*
X94314D01*
Y-78830D01*
X94222D01*
Y-78784D01*
X94176D01*
Y-78737D01*
X94083D01*
Y-78691D01*
X94037D01*
Y-78645D01*
X93944D01*
Y-78598D01*
X93898D01*
Y-78552D01*
X93805D01*
Y-78506D01*
X93759D01*
Y-78460D01*
X93713D01*
Y-78413D01*
X93621D01*
Y-78367D01*
X93574D01*
Y-78321D01*
X93482D01*
Y-78275D01*
X93435D01*
Y-78228D01*
X93389D01*
Y-78182D01*
X93297D01*
Y-78136D01*
X93250D01*
Y-78089D01*
X93204D01*
Y-78043D01*
X93158D01*
Y-77997D01*
X93065D01*
Y-77951D01*
X93019D01*
Y-77904D01*
X92973D01*
Y-77858D01*
X92926D01*
Y-77812D01*
X92834D01*
Y-77766D01*
X92788D01*
Y-77719D01*
X92741D01*
Y-77673D01*
X92695D01*
Y-77627D01*
X92602D01*
Y-77581D01*
X92556D01*
Y-77534D01*
X92510D01*
Y-77488D01*
X92464D01*
Y-77442D01*
X92417D01*
Y-77395D01*
X92371D01*
Y-77349D01*
X92279D01*
Y-77303D01*
X92232D01*
Y-77257D01*
X92186D01*
Y-77210D01*
X92140D01*
Y-77164D01*
X92093D01*
Y-77118D01*
X92047D01*
Y-77072D01*
X92001D01*
Y-77025D01*
X91955D01*
Y-76979D01*
X91908D01*
Y-76933D01*
X91862D01*
Y-76886D01*
X91770D01*
Y-76840D01*
X91723D01*
Y-76794D01*
X91677D01*
Y-76748D01*
X91631D01*
Y-76701D01*
X91584D01*
Y-76655D01*
X91538D01*
Y-76609D01*
X91492D01*
Y-76563D01*
X91446D01*
Y-76516D01*
X91400D01*
Y-76470D01*
X91353D01*
Y-76424D01*
X91307D01*
Y-76377D01*
X91261D01*
Y-76331D01*
X91214D01*
Y-76285D01*
X91168D01*
Y-76239D01*
X91122D01*
Y-76192D01*
X91076D01*
Y-76146D01*
X91029D01*
Y-76100D01*
Y-76054D01*
X90983D01*
Y-76007D01*
X90937D01*
Y-75961D01*
X90891D01*
Y-75915D01*
X90844D01*
Y-75868D01*
X90798D01*
Y-75822D01*
X90752D01*
Y-75776D01*
X90705D01*
Y-75730D01*
X90659D01*
Y-75683D01*
X90613D01*
Y-75637D01*
X90567D01*
Y-75591D01*
Y-75545D01*
X90520D01*
Y-75498D01*
X90474D01*
Y-75452D01*
X90428D01*
Y-75406D01*
X90381D01*
Y-75360D01*
X90335D01*
Y-75313D01*
X90289D01*
Y-75267D01*
Y-75221D01*
X90243D01*
Y-75174D01*
X90196D01*
Y-75128D01*
X90150D01*
Y-75082D01*
X90104D01*
Y-75036D01*
Y-74989D01*
X90058D01*
Y-74943D01*
X90011D01*
Y-74897D01*
X89965D01*
Y-74851D01*
X89919D01*
Y-74804D01*
Y-74758D01*
X89872D01*
Y-74712D01*
X89826D01*
Y-74665D01*
X89780D01*
Y-74619D01*
X89734D01*
Y-74573D01*
Y-74527D01*
X89687D01*
Y-74480D01*
X89641D01*
Y-74434D01*
X89595D01*
Y-74388D01*
Y-74342D01*
X89549D01*
Y-74295D01*
X89502D01*
Y-74249D01*
Y-74203D01*
X89456D01*
Y-74156D01*
X89410D01*
Y-74110D01*
X89364D01*
Y-74064D01*
Y-74018D01*
X89317D01*
Y-73971D01*
X89271D01*
Y-73925D01*
Y-73879D01*
X89225D01*
Y-73833D01*
X89179D01*
Y-73786D01*
Y-73740D01*
X89132D01*
Y-73694D01*
X89086D01*
Y-73648D01*
Y-73601D01*
X89040D01*
Y-73555D01*
X88993D01*
Y-73509D01*
Y-73462D01*
X88947D01*
Y-73416D01*
X88901D01*
Y-73370D01*
Y-73324D01*
X88855D01*
Y-73277D01*
X88808D01*
Y-73231D01*
Y-73185D01*
X88762D01*
Y-73139D01*
Y-73092D01*
X88716D01*
Y-73046D01*
X88670D01*
Y-73000D01*
Y-72953D01*
X88623D01*
Y-72907D01*
X88577D01*
Y-72861D01*
Y-72815D01*
X88531D01*
Y-72768D01*
Y-72722D01*
X88484D01*
Y-72676D01*
Y-72630D01*
X88438D01*
Y-72583D01*
X88392D01*
Y-72537D01*
Y-72491D01*
X88346D01*
Y-72444D01*
Y-72398D01*
X88299D01*
Y-72352D01*
Y-72306D01*
X88253D01*
Y-72259D01*
Y-72213D01*
X88207D01*
Y-72167D01*
X88161D01*
Y-72121D01*
Y-72074D01*
X88114D01*
Y-72028D01*
Y-71982D01*
X88068D01*
Y-71935D01*
Y-71889D01*
X88022D01*
Y-71843D01*
Y-71797D01*
X87975D01*
Y-71750D01*
Y-71704D01*
X87929D01*
Y-71658D01*
Y-71612D01*
X87883D01*
Y-71565D01*
Y-71519D01*
X87837D01*
Y-71473D01*
Y-71426D01*
X87790D01*
Y-71380D01*
Y-71334D01*
X87744D01*
Y-71288D01*
Y-71241D01*
X87698D01*
Y-71195D01*
Y-71149D01*
Y-71103D01*
X87651D01*
Y-71056D01*
Y-71010D01*
X87605D01*
Y-70964D01*
Y-70918D01*
X87559D01*
Y-70871D01*
Y-70825D01*
X87513D01*
Y-70779D01*
Y-70732D01*
Y-70686D01*
X87466D01*
Y-70640D01*
Y-70594D01*
X87420D01*
Y-70547D01*
Y-70501D01*
X87374D01*
Y-70455D01*
Y-70409D01*
Y-70362D01*
X87328D01*
Y-70316D01*
Y-70270D01*
X87281D01*
Y-70223D01*
Y-70177D01*
Y-70131D01*
X87235D01*
Y-70085D01*
Y-70038D01*
X87189D01*
Y-69992D01*
Y-69946D01*
Y-69900D01*
X87143D01*
Y-69853D01*
Y-69807D01*
Y-69761D01*
X87096D01*
Y-69715D01*
Y-69668D01*
X87050D01*
Y-69622D01*
Y-69576D01*
Y-69529D01*
X87004D01*
Y-69483D01*
Y-69437D01*
Y-69391D01*
X86958D01*
Y-69344D01*
Y-69298D01*
Y-69252D01*
X86911D01*
Y-69206D01*
Y-69159D01*
Y-69113D01*
X86865D01*
Y-69067D01*
Y-69020D01*
Y-68974D01*
X86819D01*
Y-68928D01*
Y-68882D01*
Y-68835D01*
Y-68789D01*
X86772D01*
Y-68743D01*
Y-68697D01*
Y-68650D01*
X86726D01*
Y-68604D01*
Y-68558D01*
Y-68511D01*
X86680D01*
Y-68465D01*
Y-68419D01*
Y-68373D01*
Y-68326D01*
X86634D01*
Y-68280D01*
Y-68234D01*
Y-68188D01*
Y-68141D01*
X86587D01*
Y-68095D01*
Y-68049D01*
Y-68002D01*
X86541D01*
Y-67956D01*
Y-67910D01*
Y-67864D01*
Y-67817D01*
X86495D01*
Y-67771D01*
Y-67725D01*
Y-67679D01*
Y-67632D01*
Y-67586D01*
X86449D01*
Y-67540D01*
Y-67494D01*
Y-67447D01*
Y-67401D01*
X86402D01*
Y-67355D01*
Y-67308D01*
Y-67262D01*
Y-67216D01*
Y-67170D01*
X86356D01*
Y-67123D01*
Y-67077D01*
Y-67031D01*
Y-66985D01*
Y-66938D01*
X86310D01*
Y-66892D01*
Y-66846D01*
Y-66799D01*
Y-66753D01*
Y-66707D01*
X86263D01*
Y-66661D01*
Y-66614D01*
Y-66568D01*
Y-66522D01*
Y-66476D01*
Y-66429D01*
X86217D01*
Y-66383D01*
Y-66337D01*
Y-66290D01*
Y-66244D01*
Y-66198D01*
Y-66152D01*
X86171D01*
Y-66105D01*
Y-66059D01*
Y-66013D01*
Y-65967D01*
Y-65920D01*
Y-65874D01*
Y-65828D01*
X86125D01*
Y-65781D01*
Y-65735D01*
Y-65689D01*
Y-65643D01*
Y-65596D01*
Y-65550D01*
Y-65504D01*
Y-65458D01*
X86078D01*
Y-65411D01*
Y-65365D01*
Y-65319D01*
Y-65273D01*
Y-65226D01*
Y-65180D01*
Y-65134D01*
Y-65087D01*
Y-65041D01*
Y-64995D01*
Y-64949D01*
X86032D01*
Y-64902D01*
Y-64856D01*
Y-64810D01*
Y-64764D01*
Y-64717D01*
Y-64671D01*
Y-64625D01*
Y-64578D01*
Y-64532D01*
Y-64486D01*
Y-64440D01*
Y-64393D01*
Y-64347D01*
Y-64301D01*
X85986D01*
Y-64255D01*
Y-64208D01*
Y-64162D01*
Y-64116D01*
Y-64069D01*
Y-64023D01*
Y-63977D01*
Y-63931D01*
Y-63884D01*
Y-63838D01*
Y-63792D01*
Y-63746D01*
Y-63699D01*
Y-63653D01*
Y-63607D01*
Y-63560D01*
Y-63514D01*
Y-63468D01*
Y-63422D01*
Y-63375D01*
Y-63329D01*
Y-63283D01*
Y-63237D01*
Y-63190D01*
Y-63144D01*
Y-63098D01*
Y-63051D01*
Y-63005D01*
Y-62959D01*
Y-62913D01*
Y-62866D01*
Y-62820D01*
Y-62774D01*
Y-62728D01*
Y-62681D01*
Y-62635D01*
Y-62589D01*
Y-62543D01*
Y-62496D01*
Y-62450D01*
Y-62404D01*
X86032D01*
Y-62357D01*
Y-62311D01*
Y-62265D01*
Y-62219D01*
Y-62172D01*
Y-62126D01*
Y-62080D01*
Y-62034D01*
Y-61987D01*
Y-61941D01*
Y-61895D01*
Y-61848D01*
Y-61802D01*
Y-61756D01*
X86078D01*
Y-61710D01*
Y-61663D01*
Y-61617D01*
Y-61571D01*
Y-61525D01*
Y-61478D01*
Y-61432D01*
Y-61386D01*
Y-61339D01*
Y-61293D01*
Y-61247D01*
X86125D01*
Y-61201D01*
Y-61155D01*
Y-61108D01*
Y-61062D01*
Y-61016D01*
Y-60969D01*
Y-60923D01*
Y-60877D01*
X86171D01*
Y-60831D01*
Y-60784D01*
Y-60738D01*
Y-60692D01*
Y-60646D01*
Y-60599D01*
Y-60553D01*
X86217D01*
Y-60507D01*
Y-60460D01*
Y-60414D01*
Y-60368D01*
Y-60322D01*
Y-60275D01*
X86263D01*
Y-60229D01*
Y-60183D01*
Y-60136D01*
Y-60090D01*
Y-60044D01*
Y-59998D01*
X86310D01*
Y-59951D01*
Y-59905D01*
Y-59859D01*
Y-59813D01*
Y-59766D01*
X86356D01*
Y-59720D01*
Y-59674D01*
Y-59627D01*
Y-59581D01*
Y-59535D01*
X86402D01*
Y-59489D01*
Y-59442D01*
Y-59396D01*
Y-59350D01*
Y-59304D01*
X86449D01*
Y-59257D01*
Y-59211D01*
Y-59165D01*
Y-59119D01*
X86495D01*
Y-59072D01*
Y-59026D01*
Y-58980D01*
Y-58934D01*
Y-58887D01*
X86541D01*
Y-58841D01*
Y-58795D01*
Y-58748D01*
Y-58702D01*
X86587D01*
Y-58656D01*
Y-58610D01*
Y-58563D01*
X86634D01*
Y-58517D01*
Y-58471D01*
Y-58425D01*
Y-58378D01*
X86680D01*
Y-58332D01*
Y-58286D01*
Y-58239D01*
Y-58193D01*
X86726D01*
Y-58147D01*
Y-58101D01*
Y-58054D01*
X86772D01*
Y-58008D01*
Y-57962D01*
Y-57916D01*
X86819D01*
Y-57869D01*
Y-57823D01*
Y-57777D01*
Y-57730D01*
X86865D01*
Y-57684D01*
Y-57638D01*
Y-57592D01*
X86911D01*
Y-57545D01*
Y-57499D01*
Y-57453D01*
X86958D01*
Y-57407D01*
Y-57360D01*
Y-57314D01*
X87004D01*
Y-57268D01*
Y-57222D01*
Y-57175D01*
X87050D01*
Y-57129D01*
Y-57083D01*
Y-57036D01*
X87096D01*
Y-56990D01*
Y-56944D01*
X87143D01*
Y-56897D01*
Y-56851D01*
Y-56805D01*
X87189D01*
Y-56759D01*
Y-56713D01*
Y-56666D01*
X87235D01*
Y-56620D01*
Y-56574D01*
X87281D01*
Y-56527D01*
Y-56481D01*
Y-56435D01*
X87328D01*
Y-56389D01*
Y-56342D01*
X87374D01*
Y-56296D01*
Y-56250D01*
Y-56204D01*
X87420D01*
Y-56157D01*
Y-56111D01*
X87466D01*
Y-56065D01*
Y-56018D01*
X87513D01*
Y-55972D01*
Y-55926D01*
Y-55880D01*
X87559D01*
Y-55833D01*
Y-55787D01*
X87605D01*
Y-55741D01*
Y-55695D01*
X87651D01*
Y-55648D01*
Y-55602D01*
X87698D01*
Y-55556D01*
Y-55509D01*
Y-55463D01*
X87744D01*
Y-55417D01*
Y-55371D01*
X87790D01*
Y-55324D01*
Y-55278D01*
X87837D01*
Y-55232D01*
Y-55186D01*
X87883D01*
Y-55139D01*
Y-55093D01*
X87929D01*
Y-55047D01*
Y-55001D01*
X87975D01*
Y-54954D01*
Y-54908D01*
X88022D01*
Y-54862D01*
Y-54815D01*
X88068D01*
Y-54769D01*
Y-54723D01*
X88114D01*
Y-54677D01*
Y-54630D01*
X88161D01*
Y-54584D01*
Y-54538D01*
X88207D01*
Y-54492D01*
X88253D01*
Y-54445D01*
Y-54399D01*
X88299D01*
Y-54353D01*
Y-54306D01*
X88346D01*
Y-54260D01*
Y-54214D01*
X88392D01*
Y-54168D01*
Y-54121D01*
X88438D01*
Y-54075D01*
X88484D01*
Y-54029D01*
Y-53983D01*
X88531D01*
Y-53936D01*
Y-53890D01*
X88577D01*
Y-53844D01*
Y-53797D01*
X88623D01*
Y-53751D01*
X88670D01*
Y-53705D01*
Y-53659D01*
X88716D01*
Y-53612D01*
X88762D01*
Y-53566D01*
Y-53520D01*
X88808D01*
Y-53474D01*
Y-53427D01*
X88855D01*
Y-53381D01*
X88901D01*
Y-53335D01*
Y-53288D01*
X88947D01*
Y-53242D01*
X88993D01*
Y-53196D01*
Y-53150D01*
X89040D01*
Y-53103D01*
X89086D01*
Y-53057D01*
Y-53011D01*
X89132D01*
Y-52965D01*
X89179D01*
Y-52918D01*
Y-52872D01*
X89225D01*
Y-52826D01*
X89271D01*
Y-52779D01*
Y-52733D01*
X89317D01*
Y-52687D01*
X89364D01*
Y-52641D01*
Y-52594D01*
X89410D01*
Y-52548D01*
X89456D01*
Y-52502D01*
X89502D01*
Y-52456D01*
Y-52409D01*
X89549D01*
Y-52363D01*
X89595D01*
Y-52317D01*
Y-52271D01*
X89641D01*
Y-52224D01*
X89687D01*
Y-52178D01*
X89734D01*
Y-52132D01*
Y-52085D01*
X89780D01*
Y-52039D01*
X89826D01*
Y-51993D01*
X89872D01*
Y-51947D01*
X89919D01*
Y-51900D01*
Y-51854D01*
X89965D01*
Y-51808D01*
X90011D01*
Y-51762D01*
X90058D01*
Y-51715D01*
X90104D01*
Y-51669D01*
Y-51623D01*
X90150D01*
Y-51576D01*
X90196D01*
Y-51530D01*
X90243D01*
Y-51484D01*
X90289D01*
Y-51438D01*
Y-51391D01*
X90335D01*
Y-51345D01*
X90381D01*
Y-51299D01*
X90428D01*
Y-51253D01*
X90474D01*
Y-51206D01*
X90520D01*
Y-51160D01*
X90567D01*
Y-51114D01*
Y-51067D01*
X90613D01*
Y-51021D01*
X90659D01*
Y-50975D01*
X90705D01*
Y-50929D01*
X90752D01*
Y-50882D01*
X90798D01*
Y-50836D01*
X90844D01*
Y-50790D01*
X90891D01*
Y-50744D01*
X90937D01*
Y-50697D01*
X90983D01*
Y-50651D01*
X91029D01*
Y-50605D01*
Y-50558D01*
X91076D01*
Y-50512D01*
X91122D01*
Y-50466D01*
X91168D01*
Y-50420D01*
X91214D01*
Y-50373D01*
X91261D01*
Y-50327D01*
X91307D01*
Y-50281D01*
X91353D01*
Y-50235D01*
X91400D01*
Y-50188D01*
X91446D01*
Y-50142D01*
X91492D01*
Y-50096D01*
X91538D01*
Y-50050D01*
X91584D01*
Y-50003D01*
X91631D01*
Y-49957D01*
X91677D01*
Y-49911D01*
X91723D01*
Y-49864D01*
X91770D01*
Y-49818D01*
X91862D01*
Y-49772D01*
X91908D01*
Y-49726D01*
X91955D01*
Y-49679D01*
X92001D01*
Y-49633D01*
X92047D01*
Y-49587D01*
X92093D01*
Y-49540D01*
X92140D01*
Y-49494D01*
X92186D01*
Y-49448D01*
X92232D01*
Y-49402D01*
X92279D01*
Y-49355D01*
X92371D01*
Y-49309D01*
X92417D01*
Y-49263D01*
X92464D01*
Y-49217D01*
X92510D01*
Y-49170D01*
X92556D01*
Y-49124D01*
X92602D01*
Y-49078D01*
X92695D01*
Y-49031D01*
X92741D01*
Y-48985D01*
X92788D01*
Y-48939D01*
X92834D01*
Y-48893D01*
X92926D01*
Y-48846D01*
X92973D01*
Y-48800D01*
X93019D01*
Y-48754D01*
X93065D01*
Y-48708D01*
X93158D01*
Y-48661D01*
X93204D01*
Y-48615D01*
X93250D01*
Y-48569D01*
X93297D01*
Y-48523D01*
X93389D01*
Y-48476D01*
X93435D01*
Y-48430D01*
X93482D01*
Y-48384D01*
X93574D01*
Y-48338D01*
X93621D01*
Y-48291D01*
X93713D01*
Y-48245D01*
X93759D01*
Y-48199D01*
X93805D01*
Y-48152D01*
X93898D01*
Y-48106D01*
X93944D01*
Y-48060D01*
X94037D01*
Y-48014D01*
X94083D01*
Y-47967D01*
X94176D01*
Y-47921D01*
X94222D01*
Y-47875D01*
X94314D01*
Y-47829D01*
X94361D01*
Y-47782D01*
X94453D01*
Y-47736D01*
X94500D01*
Y-47690D01*
X94592D01*
Y-47643D01*
X94638D01*
Y-47597D01*
X94731D01*
Y-47551D01*
X94823D01*
Y-47505D01*
X94870D01*
Y-47458D01*
X94962D01*
Y-47412D01*
X95009D01*
Y-47366D01*
X95101D01*
Y-47319D01*
X95194D01*
Y-47273D01*
X95286D01*
Y-47227D01*
X95332D01*
Y-47181D01*
X95425D01*
Y-47134D01*
X95518D01*
Y-47088D01*
X95610D01*
Y-47042D01*
X95703D01*
Y-46996D01*
X95749D01*
Y-46949D01*
X95841D01*
Y-46903D01*
X95934D01*
Y-46857D01*
X96026D01*
Y-46810D01*
X96119D01*
Y-46764D01*
X96212D01*
Y-46718D01*
X96304D01*
Y-46672D01*
X96397D01*
Y-46626D01*
X96489D01*
Y-46579D01*
X96582D01*
Y-46533D01*
X96674D01*
Y-46487D01*
X96767D01*
Y-46440D01*
X96906D01*
Y-46394D01*
X96998D01*
Y-46348D01*
X97091D01*
Y-46301D01*
X97230D01*
Y-46255D01*
X97322D01*
Y-46209D01*
X97415D01*
Y-46163D01*
X97553D01*
Y-46117D01*
X97646D01*
Y-46070D01*
X97785D01*
Y-46024D01*
X97877D01*
Y-45978D01*
X98016D01*
Y-45931D01*
X98155D01*
Y-45885D01*
X98247D01*
Y-45839D01*
X98386D01*
Y-45793D01*
X98525D01*
Y-45746D01*
X98664D01*
Y-45700D01*
X98803D01*
Y-45654D01*
X98942D01*
Y-45608D01*
X99080D01*
Y-45561D01*
X99265D01*
Y-45515D01*
X99404D01*
Y-45469D01*
X99589D01*
Y-45422D01*
X99774D01*
Y-45376D01*
X99913D01*
Y-45330D01*
X100098D01*
Y-45284D01*
X100330D01*
Y-45237D01*
X100515D01*
Y-45191D01*
X100746D01*
Y-45145D01*
X100978D01*
Y-45099D01*
X101209D01*
Y-45052D01*
X101487D01*
Y-45006D01*
X101764D01*
Y-44960D01*
X102088D01*
Y-44914D01*
X102458D01*
Y-44867D01*
X102921D01*
Y-44821D01*
X103615D01*
Y-44775D01*
X105512D01*
Y-44821D01*
D02*
G37*
G36*
X137948Y-57314D02*
X138272D01*
Y-57360D01*
X138503D01*
Y-57407D01*
X138734D01*
Y-57453D01*
X138873D01*
Y-57499D01*
X139058D01*
Y-57545D01*
X139197D01*
Y-57592D01*
X139290D01*
Y-57638D01*
X139428D01*
Y-57684D01*
X139521D01*
Y-57730D01*
X139660D01*
Y-57777D01*
X139752D01*
Y-57823D01*
X139845D01*
Y-57869D01*
X139937D01*
Y-57916D01*
X140030D01*
Y-57962D01*
X140123D01*
Y-58008D01*
X140215D01*
Y-58054D01*
X140261D01*
Y-58101D01*
X140354D01*
Y-58147D01*
X140400D01*
Y-58193D01*
X140493D01*
Y-58239D01*
X140539D01*
Y-58286D01*
X140631D01*
Y-58332D01*
X140678D01*
Y-58378D01*
X140770D01*
Y-58425D01*
X140817D01*
Y-58471D01*
X140863D01*
Y-58517D01*
X140955D01*
Y-58563D01*
X141002D01*
Y-58610D01*
X141048D01*
Y-58656D01*
X141094D01*
Y-58702D01*
X141140D01*
Y-58748D01*
X141187D01*
Y-58795D01*
X141233D01*
Y-58841D01*
X141279D01*
Y-58887D01*
X141372D01*
Y-58934D01*
X141418D01*
Y-58980D01*
X141464D01*
Y-59026D01*
Y-59072D01*
X141511D01*
Y-59119D01*
X141557D01*
Y-59165D01*
X141603D01*
Y-59211D01*
X141649D01*
Y-59257D01*
X141696D01*
Y-59304D01*
X141742D01*
Y-59350D01*
X141788D01*
Y-59396D01*
Y-59442D01*
X141834D01*
Y-59489D01*
X141881D01*
Y-59535D01*
X141927D01*
Y-59581D01*
X141973D01*
Y-59627D01*
Y-59674D01*
X142020D01*
Y-59720D01*
X142066D01*
Y-59766D01*
Y-59813D01*
X142112D01*
Y-59859D01*
X142158D01*
Y-59905D01*
Y-59951D01*
X142205D01*
Y-59998D01*
X142251D01*
Y-60044D01*
Y-60090D01*
X142297D01*
Y-60136D01*
Y-60183D01*
X142343D01*
Y-60229D01*
Y-60275D01*
X142390D01*
Y-60322D01*
X142436D01*
Y-60368D01*
Y-60414D01*
X142482D01*
Y-60460D01*
Y-60507D01*
X142529D01*
Y-60553D01*
Y-60599D01*
X142575D01*
Y-60646D01*
Y-60692D01*
Y-60738D01*
X142621D01*
Y-60784D01*
Y-60831D01*
X142667D01*
Y-60877D01*
Y-60923D01*
Y-60969D01*
X142714D01*
Y-61016D01*
Y-61062D01*
X142760D01*
Y-61108D01*
Y-61155D01*
Y-61201D01*
X142806D01*
Y-61247D01*
Y-61293D01*
Y-61339D01*
X142852D01*
Y-61386D01*
Y-61432D01*
Y-61478D01*
Y-61525D01*
X142899D01*
Y-61571D01*
Y-61617D01*
Y-61663D01*
Y-61710D01*
X142945D01*
Y-61756D01*
Y-61802D01*
Y-61848D01*
Y-61895D01*
X142991D01*
Y-61941D01*
Y-61987D01*
Y-62034D01*
Y-62080D01*
Y-62126D01*
Y-62172D01*
X143038D01*
Y-62219D01*
Y-62265D01*
Y-62311D01*
Y-62357D01*
Y-62404D01*
Y-62450D01*
Y-62496D01*
Y-62543D01*
X143084D01*
Y-62589D01*
Y-62635D01*
Y-62681D01*
Y-62728D01*
Y-62774D01*
Y-62820D01*
Y-62866D01*
Y-62913D01*
Y-62959D01*
Y-63005D01*
Y-63051D01*
Y-63098D01*
Y-63144D01*
Y-63190D01*
Y-63237D01*
Y-63283D01*
Y-63329D01*
Y-63375D01*
Y-63422D01*
Y-63468D01*
Y-63514D01*
Y-63560D01*
Y-63607D01*
Y-63653D01*
X143038D01*
Y-63699D01*
Y-63746D01*
Y-63792D01*
Y-63838D01*
Y-63884D01*
Y-63931D01*
Y-63977D01*
Y-64023D01*
X142991D01*
Y-64069D01*
Y-64116D01*
Y-64162D01*
Y-64208D01*
Y-64255D01*
Y-64301D01*
X142945D01*
Y-64347D01*
Y-64393D01*
Y-64440D01*
Y-64486D01*
X142899D01*
Y-64532D01*
Y-64578D01*
Y-64625D01*
Y-64671D01*
X142852D01*
Y-64717D01*
Y-64764D01*
Y-64810D01*
Y-64856D01*
X142806D01*
Y-64902D01*
Y-64949D01*
Y-64995D01*
X142760D01*
Y-65041D01*
Y-65087D01*
Y-65134D01*
X142714D01*
Y-65180D01*
Y-65226D01*
X142667D01*
Y-65273D01*
Y-65319D01*
Y-65365D01*
X142621D01*
Y-65411D01*
Y-65458D01*
X142575D01*
Y-65504D01*
Y-65550D01*
Y-65596D01*
X142529D01*
Y-65643D01*
Y-65689D01*
X142482D01*
Y-65735D01*
Y-65781D01*
X142436D01*
Y-65828D01*
Y-65874D01*
X142390D01*
Y-65920D01*
Y-65967D01*
X142343D01*
Y-66013D01*
X142297D01*
Y-66059D01*
Y-66105D01*
X142251D01*
Y-66152D01*
Y-66198D01*
X142205D01*
Y-66244D01*
X142158D01*
Y-66290D01*
Y-66337D01*
X142112D01*
Y-66383D01*
Y-66429D01*
X142066D01*
Y-66476D01*
X142020D01*
Y-66522D01*
X141973D01*
Y-66568D01*
Y-66614D01*
X141927D01*
Y-66661D01*
X141881D01*
Y-66707D01*
Y-66753D01*
X141834D01*
Y-66799D01*
X141788D01*
Y-66846D01*
X141742D01*
Y-66892D01*
X141696D01*
Y-66938D01*
X141649D01*
Y-66985D01*
Y-67031D01*
X141603D01*
Y-67077D01*
X141557D01*
Y-67123D01*
X141511D01*
Y-67170D01*
X141464D01*
Y-67216D01*
X141418D01*
Y-67262D01*
X141372D01*
Y-67308D01*
X141326D01*
Y-67355D01*
X141279D01*
Y-67401D01*
X141233D01*
Y-67447D01*
X141187D01*
Y-67494D01*
X141140D01*
Y-67540D01*
X141094D01*
Y-67586D01*
X141048D01*
Y-67632D01*
X140955D01*
Y-67679D01*
X140909D01*
Y-67725D01*
X140863D01*
Y-67771D01*
X140817D01*
Y-67817D01*
X140724D01*
Y-67864D01*
X140678D01*
Y-67910D01*
X140631D01*
Y-67956D01*
X140539D01*
Y-68002D01*
X140493D01*
Y-68049D01*
X140400D01*
Y-68095D01*
X140354D01*
Y-68141D01*
X140261D01*
Y-68188D01*
X140169D01*
Y-68234D01*
X140123D01*
Y-68280D01*
X140030D01*
Y-68326D01*
X139937D01*
Y-68373D01*
X139845D01*
Y-68419D01*
X139752D01*
Y-68465D01*
X139660D01*
Y-68511D01*
X139567D01*
Y-68558D01*
X139428D01*
Y-68604D01*
X139336D01*
Y-68650D01*
X139197D01*
Y-68697D01*
X139058D01*
Y-68743D01*
X138919D01*
Y-68789D01*
X138781D01*
Y-68835D01*
X138596D01*
Y-68882D01*
X138364D01*
Y-68928D01*
X138133D01*
Y-68974D01*
X137763D01*
Y-69020D01*
X136513D01*
Y-68974D01*
X136189D01*
Y-68928D01*
X135912D01*
Y-68882D01*
X135727D01*
Y-68835D01*
X135542D01*
Y-68789D01*
X135403D01*
Y-68743D01*
X135218D01*
Y-68697D01*
X135125D01*
Y-68650D01*
X134986D01*
Y-68604D01*
X134848D01*
Y-68558D01*
X134755D01*
Y-68511D01*
X134663D01*
Y-68465D01*
X134570D01*
Y-68419D01*
X134477D01*
Y-68373D01*
X134385D01*
Y-68326D01*
X134292D01*
Y-68280D01*
X134200D01*
Y-68234D01*
X134107D01*
Y-68188D01*
X134061D01*
Y-68141D01*
X133968D01*
Y-68095D01*
X133922D01*
Y-68049D01*
X133830D01*
Y-68002D01*
X133783D01*
Y-67956D01*
X133691D01*
Y-67910D01*
X133645D01*
Y-67864D01*
X133552D01*
Y-67817D01*
X133506D01*
Y-67771D01*
X133460D01*
Y-67725D01*
X133413D01*
Y-67679D01*
X133321D01*
Y-67632D01*
X133274D01*
Y-67586D01*
X133228D01*
Y-67540D01*
X133182D01*
Y-67494D01*
X133136D01*
Y-67447D01*
X133089D01*
Y-67401D01*
X133043D01*
Y-67355D01*
X132997D01*
Y-67308D01*
X132951D01*
Y-67262D01*
X132904D01*
Y-67216D01*
X132858D01*
Y-67170D01*
X132812D01*
Y-67123D01*
X132765D01*
Y-67077D01*
X132719D01*
Y-67031D01*
X132673D01*
Y-66985D01*
X132627D01*
Y-66938D01*
X132580D01*
Y-66892D01*
X132534D01*
Y-66846D01*
Y-66799D01*
X132488D01*
Y-66753D01*
X132442D01*
Y-66707D01*
X132395D01*
Y-66661D01*
Y-66614D01*
X132349D01*
Y-66568D01*
X132303D01*
Y-66522D01*
X132256D01*
Y-66476D01*
Y-66429D01*
X132210D01*
Y-66383D01*
X132164D01*
Y-66337D01*
Y-66290D01*
X132118D01*
Y-66244D01*
Y-66198D01*
X132071D01*
Y-66152D01*
X132025D01*
Y-66105D01*
Y-66059D01*
X131979D01*
Y-66013D01*
Y-65967D01*
X131933D01*
Y-65920D01*
Y-65874D01*
X131886D01*
Y-65828D01*
Y-65781D01*
X131840D01*
Y-65735D01*
Y-65689D01*
X131794D01*
Y-65643D01*
Y-65596D01*
X131747D01*
Y-65550D01*
Y-65504D01*
X131701D01*
Y-65458D01*
Y-65411D01*
X131655D01*
Y-65365D01*
Y-65319D01*
Y-65273D01*
X131609D01*
Y-65226D01*
Y-65180D01*
X131562D01*
Y-65134D01*
Y-65087D01*
Y-65041D01*
X131516D01*
Y-64995D01*
Y-64949D01*
Y-64902D01*
X131470D01*
Y-64856D01*
Y-64810D01*
Y-64764D01*
Y-64717D01*
X131424D01*
Y-64671D01*
Y-64625D01*
Y-64578D01*
X131377D01*
Y-64532D01*
Y-64486D01*
Y-64440D01*
Y-64393D01*
Y-64347D01*
X131331D01*
Y-64301D01*
Y-64255D01*
Y-64208D01*
Y-64162D01*
Y-64116D01*
X131285D01*
Y-64069D01*
Y-64023D01*
Y-63977D01*
Y-63931D01*
Y-63884D01*
Y-63838D01*
Y-63792D01*
X131239D01*
Y-63746D01*
Y-63699D01*
Y-63653D01*
Y-63607D01*
Y-63560D01*
Y-63514D01*
Y-63468D01*
Y-63422D01*
Y-63375D01*
Y-63329D01*
Y-63283D01*
Y-63237D01*
Y-63190D01*
Y-63144D01*
Y-63098D01*
Y-63051D01*
Y-63005D01*
Y-62959D01*
Y-62913D01*
Y-62866D01*
Y-62820D01*
Y-62774D01*
Y-62728D01*
Y-62681D01*
Y-62635D01*
Y-62589D01*
Y-62543D01*
Y-62496D01*
Y-62450D01*
Y-62404D01*
X131285D01*
Y-62357D01*
Y-62311D01*
Y-62265D01*
Y-62219D01*
Y-62172D01*
Y-62126D01*
Y-62080D01*
X131331D01*
Y-62034D01*
Y-61987D01*
Y-61941D01*
Y-61895D01*
Y-61848D01*
Y-61802D01*
X131377D01*
Y-61756D01*
Y-61710D01*
Y-61663D01*
Y-61617D01*
X131424D01*
Y-61571D01*
Y-61525D01*
Y-61478D01*
Y-61432D01*
X131470D01*
Y-61386D01*
Y-61339D01*
Y-61293D01*
X131516D01*
Y-61247D01*
Y-61201D01*
Y-61155D01*
X131562D01*
Y-61108D01*
Y-61062D01*
Y-61016D01*
X131609D01*
Y-60969D01*
Y-60923D01*
X131655D01*
Y-60877D01*
Y-60831D01*
Y-60784D01*
X131701D01*
Y-60738D01*
Y-60692D01*
X131747D01*
Y-60646D01*
Y-60599D01*
X131794D01*
Y-60553D01*
Y-60507D01*
X131840D01*
Y-60460D01*
Y-60414D01*
X131886D01*
Y-60368D01*
Y-60322D01*
X131933D01*
Y-60275D01*
Y-60229D01*
X131979D01*
Y-60183D01*
Y-60136D01*
X132025D01*
Y-60090D01*
Y-60044D01*
X132071D01*
Y-59998D01*
X132118D01*
Y-59951D01*
Y-59905D01*
X132164D01*
Y-59859D01*
X132210D01*
Y-59813D01*
Y-59766D01*
X132256D01*
Y-59720D01*
X132303D01*
Y-59674D01*
Y-59627D01*
X132349D01*
Y-59581D01*
X132395D01*
Y-59535D01*
X132442D01*
Y-59489D01*
Y-59442D01*
X132488D01*
Y-59396D01*
X132534D01*
Y-59350D01*
X132580D01*
Y-59304D01*
X132627D01*
Y-59257D01*
X132673D01*
Y-59211D01*
Y-59165D01*
X132719D01*
Y-59119D01*
X132765D01*
Y-59072D01*
X132812D01*
Y-59026D01*
X132858D01*
Y-58980D01*
X132904D01*
Y-58934D01*
X132951D01*
Y-58887D01*
X132997D01*
Y-58841D01*
X133043D01*
Y-58795D01*
X133089D01*
Y-58748D01*
X133136D01*
Y-58702D01*
X133228D01*
Y-58656D01*
X133274D01*
Y-58610D01*
X133321D01*
Y-58563D01*
X133367D01*
Y-58517D01*
X133413D01*
Y-58471D01*
X133506D01*
Y-58425D01*
X133552D01*
Y-58378D01*
X133598D01*
Y-58332D01*
X133691D01*
Y-58286D01*
X133737D01*
Y-58239D01*
X133830D01*
Y-58193D01*
X133876D01*
Y-58147D01*
X133968D01*
Y-58101D01*
X134015D01*
Y-58054D01*
X134107D01*
Y-58008D01*
X134200D01*
Y-57962D01*
X134292D01*
Y-57916D01*
X134385D01*
Y-57869D01*
X134477D01*
Y-57823D01*
X134570D01*
Y-57777D01*
X134663D01*
Y-57730D01*
X134755D01*
Y-57684D01*
X134894D01*
Y-57638D01*
X134986D01*
Y-57592D01*
X135125D01*
Y-57545D01*
X135264D01*
Y-57499D01*
X135403D01*
Y-57453D01*
X135588D01*
Y-57407D01*
X135773D01*
Y-57360D01*
X136051D01*
Y-57314D01*
X136328D01*
Y-57268D01*
X137948D01*
Y-57314D01*
D02*
G37*
G36*
X149701D02*
X150117D01*
Y-57360D01*
X150395D01*
Y-57407D01*
X150580D01*
Y-57453D01*
X150765D01*
Y-57499D01*
X150904D01*
Y-57545D01*
X151042D01*
Y-57592D01*
X151181D01*
Y-57638D01*
X151274D01*
Y-57684D01*
X151413D01*
Y-57730D01*
X151505D01*
Y-57777D01*
X151598D01*
Y-57823D01*
X151690D01*
Y-57869D01*
X151783D01*
Y-57916D01*
X151875D01*
Y-57962D01*
X151922D01*
Y-58008D01*
X152014D01*
Y-58054D01*
X152060D01*
Y-58101D01*
X152153D01*
Y-58147D01*
X152199D01*
Y-58193D01*
X152292D01*
Y-58239D01*
X152338D01*
Y-58286D01*
X152430D01*
Y-58332D01*
X152477D01*
Y-58378D01*
X152523D01*
Y-58425D01*
X152569D01*
Y-58471D01*
Y-58517D01*
Y-58563D01*
X152523D01*
Y-58610D01*
X152477D01*
Y-58656D01*
Y-58702D01*
X152430D01*
Y-58748D01*
Y-58795D01*
X152384D01*
Y-58841D01*
Y-58887D01*
X152338D01*
Y-58934D01*
Y-58980D01*
X152292D01*
Y-59026D01*
Y-59072D01*
X152245D01*
Y-59119D01*
X152199D01*
Y-59165D01*
Y-59211D01*
X152153D01*
Y-59257D01*
Y-59304D01*
X152107D01*
Y-59350D01*
Y-59396D01*
X152060D01*
Y-59442D01*
Y-59489D01*
X152014D01*
Y-59535D01*
Y-59581D01*
X151968D01*
Y-59627D01*
X151922D01*
Y-59674D01*
Y-59720D01*
X151875D01*
Y-59766D01*
Y-59813D01*
X151829D01*
Y-59859D01*
Y-59905D01*
X151783D01*
Y-59951D01*
Y-59998D01*
X151690D01*
Y-59951D01*
X151598D01*
Y-59905D01*
X151551D01*
Y-59859D01*
X151505D01*
Y-59813D01*
X151413D01*
Y-59766D01*
X151366D01*
Y-59720D01*
X151274D01*
Y-59674D01*
X151227D01*
Y-59627D01*
X151135D01*
Y-59581D01*
X151042D01*
Y-59535D01*
X150950D01*
Y-59489D01*
X150857D01*
Y-59442D01*
X150765D01*
Y-59396D01*
X150672D01*
Y-59350D01*
X150580D01*
Y-59304D01*
X150441D01*
Y-59257D01*
X150302D01*
Y-59211D01*
X150163D01*
Y-59165D01*
X149978D01*
Y-59119D01*
X149747D01*
Y-59072D01*
X149423D01*
Y-59026D01*
X148729D01*
Y-59072D01*
X148544D01*
Y-59119D01*
X148405D01*
Y-59165D01*
X148312D01*
Y-59211D01*
X148220D01*
Y-59257D01*
X148127D01*
Y-59304D01*
X148081D01*
Y-59350D01*
X147989D01*
Y-59396D01*
X147942D01*
Y-59442D01*
X147896D01*
Y-59489D01*
X147850D01*
Y-59535D01*
X147803D01*
Y-59581D01*
X147757D01*
Y-59627D01*
X147711D01*
Y-59674D01*
X147665D01*
Y-59720D01*
Y-59766D01*
X147618D01*
Y-59813D01*
X147572D01*
Y-59859D01*
Y-59905D01*
X147526D01*
Y-59951D01*
Y-59998D01*
X147480D01*
Y-60044D01*
Y-60090D01*
X147433D01*
Y-60136D01*
Y-60183D01*
Y-60229D01*
X147387D01*
Y-60275D01*
Y-60322D01*
Y-60368D01*
Y-60414D01*
Y-60460D01*
X147341D01*
Y-60507D01*
Y-60553D01*
Y-60599D01*
Y-60646D01*
X147387D01*
Y-60692D01*
Y-60738D01*
Y-60784D01*
Y-60831D01*
X147433D01*
Y-60877D01*
Y-60923D01*
Y-60969D01*
X147480D01*
Y-61016D01*
Y-61062D01*
X147526D01*
Y-61108D01*
X147572D01*
Y-61155D01*
Y-61201D01*
X147618D01*
Y-61247D01*
X147665D01*
Y-61293D01*
X147711D01*
Y-61339D01*
X147757D01*
Y-61386D01*
X147803D01*
Y-61432D01*
X147850D01*
Y-61478D01*
X147896D01*
Y-61525D01*
X147942D01*
Y-61571D01*
X148035D01*
Y-61617D01*
X148081D01*
Y-61663D01*
X148174D01*
Y-61710D01*
X148220D01*
Y-61756D01*
X148312D01*
Y-61802D01*
X148405D01*
Y-61848D01*
X148497D01*
Y-61895D01*
X148590D01*
Y-61941D01*
X148683D01*
Y-61987D01*
X148775D01*
Y-62034D01*
X148868D01*
Y-62080D01*
X148960D01*
Y-62126D01*
X149099D01*
Y-62172D01*
X149192D01*
Y-62219D01*
X149284D01*
Y-62265D01*
X149423D01*
Y-62311D01*
X149515D01*
Y-62357D01*
X149608D01*
Y-62404D01*
X149747D01*
Y-62450D01*
X149839D01*
Y-62496D01*
X149978D01*
Y-62543D01*
X150071D01*
Y-62589D01*
X150163D01*
Y-62635D01*
X150302D01*
Y-62681D01*
X150395D01*
Y-62728D01*
X150487D01*
Y-62774D01*
X150580D01*
Y-62820D01*
X150672D01*
Y-62866D01*
X150765D01*
Y-62913D01*
X150857D01*
Y-62959D01*
X150950D01*
Y-63005D01*
X151042D01*
Y-63051D01*
X151135D01*
Y-63098D01*
X151181D01*
Y-63144D01*
X151274D01*
Y-63190D01*
X151366D01*
Y-63237D01*
X151413D01*
Y-63283D01*
X151505D01*
Y-63329D01*
X151551D01*
Y-63375D01*
X151598D01*
Y-63422D01*
X151690D01*
Y-63468D01*
X151736D01*
Y-63514D01*
X151783D01*
Y-63560D01*
X151829D01*
Y-63607D01*
X151875D01*
Y-63653D01*
X151968D01*
Y-63699D01*
X152014D01*
Y-63746D01*
X152060D01*
Y-63792D01*
Y-63838D01*
X152107D01*
Y-63884D01*
X152153D01*
Y-63931D01*
X152199D01*
Y-63977D01*
X152245D01*
Y-64023D01*
X152292D01*
Y-64069D01*
Y-64116D01*
X152338D01*
Y-64162D01*
X152384D01*
Y-64208D01*
Y-64255D01*
X152430D01*
Y-64301D01*
Y-64347D01*
X152477D01*
Y-64393D01*
X152523D01*
Y-64440D01*
Y-64486D01*
X152569D01*
Y-64532D01*
Y-64578D01*
Y-64625D01*
X152616D01*
Y-64671D01*
Y-64717D01*
X152662D01*
Y-64764D01*
Y-64810D01*
Y-64856D01*
Y-64902D01*
X152708D01*
Y-64949D01*
Y-64995D01*
Y-65041D01*
Y-65087D01*
X152754D01*
Y-65134D01*
Y-65180D01*
Y-65226D01*
Y-65273D01*
Y-65319D01*
Y-65365D01*
X152801D01*
Y-65411D01*
Y-65458D01*
Y-65504D01*
Y-65550D01*
Y-65596D01*
Y-65643D01*
Y-65689D01*
Y-65735D01*
Y-65781D01*
Y-65828D01*
Y-65874D01*
Y-65920D01*
Y-65967D01*
Y-66013D01*
Y-66059D01*
Y-66105D01*
Y-66152D01*
Y-66198D01*
X152754D01*
Y-66244D01*
Y-66290D01*
Y-66337D01*
Y-66383D01*
Y-66429D01*
Y-66476D01*
Y-66522D01*
X152708D01*
Y-66568D01*
Y-66614D01*
Y-66661D01*
Y-66707D01*
Y-66753D01*
X152662D01*
Y-66799D01*
Y-66846D01*
Y-66892D01*
X152616D01*
Y-66938D01*
Y-66985D01*
Y-67031D01*
X152569D01*
Y-67077D01*
Y-67123D01*
Y-67170D01*
X152523D01*
Y-67216D01*
Y-67262D01*
X152477D01*
Y-67308D01*
Y-67355D01*
X152430D01*
Y-67401D01*
Y-67447D01*
X152384D01*
Y-67494D01*
Y-67540D01*
X152338D01*
Y-67586D01*
X152292D01*
Y-67632D01*
Y-67679D01*
X152245D01*
Y-67725D01*
X152199D01*
Y-67771D01*
Y-67817D01*
X152153D01*
Y-67864D01*
X152107D01*
Y-67910D01*
X152060D01*
Y-67956D01*
X152014D01*
Y-68002D01*
Y-68049D01*
X151968D01*
Y-68095D01*
X151922D01*
Y-68141D01*
X151875D01*
Y-68188D01*
X151829D01*
Y-68234D01*
X151736D01*
Y-68280D01*
X151690D01*
Y-68326D01*
X151644D01*
Y-68373D01*
X151598D01*
Y-68419D01*
X151505D01*
Y-68465D01*
X151459D01*
Y-68511D01*
X151413D01*
Y-68558D01*
X151320D01*
Y-68604D01*
X151227D01*
Y-68650D01*
X151181D01*
Y-68697D01*
X151089D01*
Y-68743D01*
X150996D01*
Y-68789D01*
X150904D01*
Y-68835D01*
X150765D01*
Y-68882D01*
X150672D01*
Y-68928D01*
X150533D01*
Y-68974D01*
X150395D01*
Y-69020D01*
X150209D01*
Y-69067D01*
X149978D01*
Y-69113D01*
X149701D01*
Y-69159D01*
X148359D01*
Y-69113D01*
X148035D01*
Y-69067D01*
X147803D01*
Y-69020D01*
X147572D01*
Y-68974D01*
X147433D01*
Y-68928D01*
X147248D01*
Y-68882D01*
X147109D01*
Y-68835D01*
X147017D01*
Y-68789D01*
X146878D01*
Y-68743D01*
X146785D01*
Y-68697D01*
X146647D01*
Y-68650D01*
X146554D01*
Y-68604D01*
X146462D01*
Y-68558D01*
X146369D01*
Y-68511D01*
X146277D01*
Y-68465D01*
X146230D01*
Y-68419D01*
X146138D01*
Y-68373D01*
X146045D01*
Y-68326D01*
X145953D01*
Y-68280D01*
X145906D01*
Y-68234D01*
X145814D01*
Y-68188D01*
X145768D01*
Y-68141D01*
X145675D01*
Y-68095D01*
X145629D01*
Y-68049D01*
X145582D01*
Y-68002D01*
X145490D01*
Y-67956D01*
X145444D01*
Y-67910D01*
X145397D01*
Y-67864D01*
X145351D01*
Y-67817D01*
X145305D01*
Y-67771D01*
X145212D01*
Y-67725D01*
X145166D01*
Y-67679D01*
X145120D01*
Y-67632D01*
Y-67586D01*
X145166D01*
Y-67540D01*
X145212D01*
Y-67494D01*
Y-67447D01*
X145259D01*
Y-67401D01*
X145305D01*
Y-67355D01*
Y-67308D01*
X145351D01*
Y-67262D01*
X145397D01*
Y-67216D01*
X145444D01*
Y-67170D01*
Y-67123D01*
X145490D01*
Y-67077D01*
X145536D01*
Y-67031D01*
X145582D01*
Y-66985D01*
Y-66938D01*
X145629D01*
Y-66892D01*
X145675D01*
Y-66846D01*
Y-66799D01*
X145721D01*
Y-66753D01*
X145768D01*
Y-66707D01*
X145814D01*
Y-66661D01*
Y-66614D01*
X145860D01*
Y-66568D01*
X145906D01*
Y-66522D01*
Y-66476D01*
X145953D01*
Y-66429D01*
X145999D01*
Y-66383D01*
X146045D01*
Y-66337D01*
Y-66290D01*
X146091D01*
Y-66244D01*
X146138D01*
Y-66198D01*
X146184D01*
Y-66152D01*
X146230D01*
Y-66198D01*
X146277D01*
Y-66244D01*
X146323D01*
Y-66290D01*
X146369D01*
Y-66337D01*
X146415D01*
Y-66383D01*
X146508D01*
Y-66429D01*
X146554D01*
Y-66476D01*
X146600D01*
Y-66522D01*
X146693D01*
Y-66568D01*
X146739D01*
Y-66614D01*
X146832D01*
Y-66661D01*
X146878D01*
Y-66707D01*
X146971D01*
Y-66753D01*
X147063D01*
Y-66799D01*
X147156D01*
Y-66846D01*
X147248D01*
Y-66892D01*
X147341D01*
Y-66938D01*
X147433D01*
Y-66985D01*
X147526D01*
Y-67031D01*
X147665D01*
Y-67077D01*
X147757D01*
Y-67123D01*
X147942D01*
Y-67170D01*
X148081D01*
Y-67216D01*
X148266D01*
Y-67262D01*
X148497D01*
Y-67308D01*
X148821D01*
Y-67355D01*
X149377D01*
Y-67308D01*
X149608D01*
Y-67262D01*
X149747D01*
Y-67216D01*
X149886D01*
Y-67170D01*
X149978D01*
Y-67123D01*
X150071D01*
Y-67077D01*
X150163D01*
Y-67031D01*
X150209D01*
Y-66985D01*
X150256D01*
Y-66938D01*
X150348D01*
Y-66892D01*
X150395D01*
Y-66846D01*
X150441D01*
Y-66799D01*
X150487D01*
Y-66753D01*
X150533D01*
Y-66707D01*
Y-66661D01*
X150580D01*
Y-66614D01*
X150626D01*
Y-66568D01*
X150672D01*
Y-66522D01*
Y-66476D01*
X150718D01*
Y-66429D01*
Y-66383D01*
X150765D01*
Y-66337D01*
Y-66290D01*
Y-66244D01*
X150811D01*
Y-66198D01*
Y-66152D01*
Y-66105D01*
Y-66059D01*
Y-66013D01*
X150857D01*
Y-65967D01*
Y-65920D01*
Y-65874D01*
Y-65828D01*
Y-65781D01*
Y-65735D01*
X150811D01*
Y-65689D01*
Y-65643D01*
Y-65596D01*
Y-65550D01*
X150765D01*
Y-65504D01*
Y-65458D01*
Y-65411D01*
X150718D01*
Y-65365D01*
Y-65319D01*
X150672D01*
Y-65273D01*
Y-65226D01*
X150626D01*
Y-65180D01*
X150580D01*
Y-65134D01*
X150533D01*
Y-65087D01*
Y-65041D01*
X150487D01*
Y-64995D01*
X150441D01*
Y-64949D01*
X150395D01*
Y-64902D01*
X150302D01*
Y-64856D01*
X150256D01*
Y-64810D01*
X150209D01*
Y-64764D01*
X150163D01*
Y-64717D01*
X150071D01*
Y-64671D01*
X150024D01*
Y-64625D01*
X149932D01*
Y-64578D01*
X149839D01*
Y-64532D01*
X149793D01*
Y-64486D01*
X149701D01*
Y-64440D01*
X149608D01*
Y-64393D01*
X149515D01*
Y-64347D01*
X149423D01*
Y-64301D01*
X149330D01*
Y-64255D01*
X149238D01*
Y-64208D01*
X149145D01*
Y-64162D01*
X149006D01*
Y-64116D01*
X148914D01*
Y-64069D01*
X148821D01*
Y-64023D01*
X148683D01*
Y-63977D01*
X148590D01*
Y-63931D01*
X148497D01*
Y-63884D01*
X148359D01*
Y-63838D01*
X148266D01*
Y-63792D01*
X148174D01*
Y-63746D01*
X148081D01*
Y-63699D01*
X147989D01*
Y-63653D01*
X147850D01*
Y-63607D01*
X147757D01*
Y-63560D01*
X147665D01*
Y-63514D01*
X147572D01*
Y-63468D01*
X147480D01*
Y-63422D01*
X147387D01*
Y-63375D01*
X147341D01*
Y-63329D01*
X147248D01*
Y-63283D01*
X147156D01*
Y-63237D01*
X147063D01*
Y-63190D01*
X147017D01*
Y-63144D01*
X146924D01*
Y-63098D01*
X146878D01*
Y-63051D01*
X146785D01*
Y-63005D01*
X146739D01*
Y-62959D01*
X146647D01*
Y-62913D01*
X146600D01*
Y-62866D01*
X146554D01*
Y-62820D01*
X146462D01*
Y-62774D01*
X146415D01*
Y-62728D01*
X146369D01*
Y-62681D01*
X146323D01*
Y-62635D01*
X146277D01*
Y-62589D01*
X146230D01*
Y-62543D01*
X146184D01*
Y-62496D01*
X146138D01*
Y-62450D01*
X146091D01*
Y-62404D01*
X146045D01*
Y-62357D01*
X145999D01*
Y-62311D01*
X145953D01*
Y-62265D01*
X145906D01*
Y-62219D01*
X145860D01*
Y-62172D01*
Y-62126D01*
X145814D01*
Y-62080D01*
X145768D01*
Y-62034D01*
Y-61987D01*
X145721D01*
Y-61941D01*
X145675D01*
Y-61895D01*
Y-61848D01*
X145629D01*
Y-61802D01*
Y-61756D01*
X145582D01*
Y-61710D01*
Y-61663D01*
X145536D01*
Y-61617D01*
Y-61571D01*
Y-61525D01*
X145490D01*
Y-61478D01*
Y-61432D01*
Y-61386D01*
X145444D01*
Y-61339D01*
Y-61293D01*
Y-61247D01*
Y-61201D01*
X145397D01*
Y-61155D01*
Y-61108D01*
Y-61062D01*
Y-61016D01*
Y-60969D01*
X145351D01*
Y-60923D01*
Y-60877D01*
Y-60831D01*
Y-60784D01*
Y-60738D01*
Y-60692D01*
Y-60646D01*
Y-60599D01*
Y-60553D01*
Y-60507D01*
Y-60460D01*
Y-60414D01*
Y-60368D01*
Y-60322D01*
Y-60275D01*
Y-60229D01*
Y-60183D01*
X145397D01*
Y-60136D01*
Y-60090D01*
Y-60044D01*
Y-59998D01*
Y-59951D01*
Y-59905D01*
X145444D01*
Y-59859D01*
Y-59813D01*
Y-59766D01*
Y-59720D01*
X145490D01*
Y-59674D01*
Y-59627D01*
Y-59581D01*
X145536D01*
Y-59535D01*
Y-59489D01*
Y-59442D01*
X145582D01*
Y-59396D01*
Y-59350D01*
X145629D01*
Y-59304D01*
Y-59257D01*
X145675D01*
Y-59211D01*
Y-59165D01*
X145721D01*
Y-59119D01*
Y-59072D01*
X145768D01*
Y-59026D01*
Y-58980D01*
X145814D01*
Y-58934D01*
Y-58887D01*
X145860D01*
Y-58841D01*
X145906D01*
Y-58795D01*
X145953D01*
Y-58748D01*
Y-58702D01*
X145999D01*
Y-58656D01*
X146045D01*
Y-58610D01*
X146091D01*
Y-58563D01*
X146138D01*
Y-58517D01*
Y-58471D01*
X146184D01*
Y-58425D01*
X146230D01*
Y-58378D01*
X146277D01*
Y-58332D01*
X146323D01*
Y-58286D01*
X146415D01*
Y-58239D01*
X146462D01*
Y-58193D01*
X146508D01*
Y-58147D01*
X146554D01*
Y-58101D01*
X146647D01*
Y-58054D01*
X146693D01*
Y-58008D01*
X146739D01*
Y-57962D01*
X146832D01*
Y-57916D01*
X146878D01*
Y-57869D01*
X146971D01*
Y-57823D01*
X147063D01*
Y-57777D01*
X147156D01*
Y-57730D01*
X147248D01*
Y-57684D01*
X147341D01*
Y-57638D01*
X147433D01*
Y-57592D01*
X147572D01*
Y-57545D01*
X147711D01*
Y-57499D01*
X147850D01*
Y-57453D01*
X147989D01*
Y-57407D01*
X148220D01*
Y-57360D01*
X148451D01*
Y-57314D01*
X148914D01*
Y-57268D01*
X149701D01*
Y-57314D01*
D02*
G37*
G36*
X162517Y-57499D02*
Y-57545D01*
Y-57592D01*
Y-57638D01*
Y-57684D01*
Y-57730D01*
Y-57777D01*
Y-57823D01*
Y-57869D01*
Y-57916D01*
Y-57962D01*
Y-58008D01*
Y-58054D01*
Y-58101D01*
Y-58147D01*
Y-58193D01*
Y-58239D01*
Y-58286D01*
Y-58332D01*
Y-58378D01*
Y-58425D01*
Y-58471D01*
Y-58517D01*
Y-58563D01*
Y-58610D01*
Y-58656D01*
Y-58702D01*
Y-58748D01*
Y-58795D01*
Y-58841D01*
Y-58887D01*
Y-58934D01*
Y-58980D01*
Y-59026D01*
X159695D01*
Y-59072D01*
Y-59119D01*
Y-59165D01*
Y-59211D01*
Y-59257D01*
Y-59304D01*
Y-59350D01*
Y-59396D01*
Y-59442D01*
Y-59489D01*
Y-59535D01*
Y-59581D01*
Y-59627D01*
Y-59674D01*
Y-59720D01*
Y-59766D01*
Y-59813D01*
Y-59859D01*
Y-59905D01*
Y-59951D01*
Y-59998D01*
Y-60044D01*
Y-60090D01*
Y-60136D01*
Y-60183D01*
Y-60229D01*
Y-60275D01*
Y-60322D01*
Y-60368D01*
Y-60414D01*
Y-60460D01*
Y-60507D01*
Y-60553D01*
Y-60599D01*
Y-60646D01*
Y-60692D01*
Y-60738D01*
Y-60784D01*
Y-60831D01*
Y-60877D01*
Y-60923D01*
Y-60969D01*
Y-61016D01*
Y-61062D01*
Y-61108D01*
Y-61155D01*
Y-61201D01*
Y-61247D01*
Y-61293D01*
Y-61339D01*
Y-61386D01*
Y-61432D01*
Y-61478D01*
Y-61525D01*
Y-61571D01*
Y-61617D01*
Y-61663D01*
Y-61710D01*
Y-61756D01*
Y-61802D01*
Y-61848D01*
Y-61895D01*
Y-61941D01*
Y-61987D01*
Y-62034D01*
Y-62080D01*
Y-62126D01*
Y-62172D01*
Y-62219D01*
Y-62265D01*
Y-62311D01*
Y-62357D01*
Y-62404D01*
Y-62450D01*
Y-62496D01*
Y-62543D01*
Y-62589D01*
Y-62635D01*
Y-62681D01*
Y-62728D01*
Y-62774D01*
Y-62820D01*
Y-62866D01*
Y-62913D01*
Y-62959D01*
Y-63005D01*
Y-63051D01*
Y-63098D01*
Y-63144D01*
Y-63190D01*
Y-63237D01*
Y-63283D01*
Y-63329D01*
Y-63375D01*
Y-63422D01*
Y-63468D01*
Y-63514D01*
Y-63560D01*
Y-63607D01*
Y-63653D01*
Y-63699D01*
Y-63746D01*
Y-63792D01*
Y-63838D01*
Y-63884D01*
Y-63931D01*
Y-63977D01*
Y-64023D01*
Y-64069D01*
Y-64116D01*
Y-64162D01*
Y-64208D01*
Y-64255D01*
Y-64301D01*
Y-64347D01*
Y-64393D01*
Y-64440D01*
Y-64486D01*
Y-64532D01*
Y-64578D01*
Y-64625D01*
Y-64671D01*
Y-64717D01*
Y-64764D01*
Y-64810D01*
Y-64856D01*
Y-64902D01*
Y-64949D01*
Y-64995D01*
Y-65041D01*
Y-65087D01*
Y-65134D01*
Y-65180D01*
Y-65226D01*
Y-65273D01*
Y-65319D01*
Y-65365D01*
Y-65411D01*
Y-65458D01*
Y-65504D01*
Y-65550D01*
Y-65596D01*
Y-65643D01*
Y-65689D01*
Y-65735D01*
Y-65781D01*
Y-65828D01*
Y-65874D01*
Y-65920D01*
Y-65967D01*
Y-66013D01*
Y-66059D01*
Y-66105D01*
Y-66152D01*
Y-66198D01*
Y-66244D01*
Y-66290D01*
Y-66337D01*
Y-66383D01*
Y-66429D01*
Y-66476D01*
Y-66522D01*
Y-66568D01*
Y-66614D01*
Y-66661D01*
Y-66707D01*
Y-66753D01*
Y-66799D01*
Y-66846D01*
Y-66892D01*
Y-66938D01*
Y-66985D01*
Y-67031D01*
Y-67077D01*
Y-67123D01*
Y-67170D01*
Y-67216D01*
Y-67262D01*
Y-67308D01*
Y-67355D01*
Y-67401D01*
Y-67447D01*
Y-67494D01*
Y-67540D01*
Y-67586D01*
Y-67632D01*
Y-67679D01*
Y-67725D01*
Y-67771D01*
Y-67817D01*
Y-67864D01*
Y-67910D01*
Y-67956D01*
Y-68002D01*
Y-68049D01*
Y-68095D01*
Y-68141D01*
Y-68188D01*
Y-68234D01*
Y-68280D01*
Y-68326D01*
Y-68373D01*
Y-68419D01*
Y-68465D01*
Y-68511D01*
Y-68558D01*
Y-68604D01*
Y-68650D01*
Y-68697D01*
Y-68743D01*
Y-68789D01*
Y-68835D01*
Y-68882D01*
Y-68928D01*
X157844D01*
Y-68882D01*
Y-68835D01*
Y-68789D01*
Y-68743D01*
Y-68697D01*
Y-68650D01*
Y-68604D01*
Y-68558D01*
Y-68511D01*
Y-68465D01*
Y-68419D01*
Y-68373D01*
Y-68326D01*
Y-68280D01*
Y-68234D01*
Y-68188D01*
Y-68141D01*
Y-68095D01*
Y-68049D01*
Y-68002D01*
Y-67956D01*
Y-67910D01*
Y-67864D01*
Y-67817D01*
Y-67771D01*
Y-67725D01*
Y-67679D01*
Y-67632D01*
Y-67586D01*
Y-67540D01*
Y-67494D01*
Y-67447D01*
Y-67401D01*
Y-67355D01*
Y-67308D01*
Y-67262D01*
Y-67216D01*
Y-67170D01*
Y-67123D01*
Y-67077D01*
Y-67031D01*
Y-66985D01*
Y-66938D01*
Y-66892D01*
Y-66846D01*
Y-66799D01*
Y-66753D01*
Y-66707D01*
Y-66661D01*
Y-66614D01*
Y-66568D01*
Y-66522D01*
Y-66476D01*
Y-66429D01*
Y-66383D01*
Y-66337D01*
Y-66290D01*
Y-66244D01*
Y-66198D01*
Y-66152D01*
Y-66105D01*
Y-66059D01*
Y-66013D01*
Y-65967D01*
Y-65920D01*
Y-65874D01*
Y-65828D01*
Y-65781D01*
Y-65735D01*
Y-65689D01*
Y-65643D01*
Y-65596D01*
Y-65550D01*
Y-65504D01*
Y-65458D01*
Y-65411D01*
Y-65365D01*
Y-65319D01*
Y-65273D01*
Y-65226D01*
Y-65180D01*
Y-65134D01*
Y-65087D01*
Y-65041D01*
Y-64995D01*
Y-64949D01*
Y-64902D01*
Y-64856D01*
Y-64810D01*
Y-64764D01*
Y-64717D01*
Y-64671D01*
Y-64625D01*
Y-64578D01*
Y-64532D01*
Y-64486D01*
Y-64440D01*
Y-64393D01*
Y-64347D01*
Y-64301D01*
Y-64255D01*
Y-64208D01*
Y-64162D01*
Y-64116D01*
Y-64069D01*
Y-64023D01*
Y-63977D01*
Y-63931D01*
Y-63884D01*
Y-63838D01*
Y-63792D01*
Y-63746D01*
Y-63699D01*
Y-63653D01*
Y-63607D01*
Y-63560D01*
Y-63514D01*
Y-63468D01*
Y-63422D01*
Y-63375D01*
Y-63329D01*
Y-63283D01*
Y-63237D01*
Y-63190D01*
Y-63144D01*
Y-63098D01*
Y-63051D01*
Y-63005D01*
Y-62959D01*
Y-62913D01*
Y-62866D01*
Y-62820D01*
Y-62774D01*
Y-62728D01*
Y-62681D01*
Y-62635D01*
Y-62589D01*
Y-62543D01*
Y-62496D01*
Y-62450D01*
Y-62404D01*
Y-62357D01*
Y-62311D01*
Y-62265D01*
Y-62219D01*
Y-62172D01*
Y-62126D01*
Y-62080D01*
Y-62034D01*
Y-61987D01*
Y-61941D01*
Y-61895D01*
Y-61848D01*
Y-61802D01*
Y-61756D01*
Y-61710D01*
Y-61663D01*
Y-61617D01*
Y-61571D01*
Y-61525D01*
Y-61478D01*
Y-61432D01*
Y-61386D01*
Y-61339D01*
Y-61293D01*
Y-61247D01*
Y-61201D01*
Y-61155D01*
Y-61108D01*
Y-61062D01*
Y-61016D01*
Y-60969D01*
Y-60923D01*
Y-60877D01*
Y-60831D01*
Y-60784D01*
Y-60738D01*
Y-60692D01*
Y-60646D01*
Y-60599D01*
Y-60553D01*
Y-60507D01*
Y-60460D01*
Y-60414D01*
Y-60368D01*
Y-60322D01*
Y-60275D01*
Y-60229D01*
Y-60183D01*
Y-60136D01*
Y-60090D01*
Y-60044D01*
Y-59998D01*
Y-59951D01*
Y-59905D01*
Y-59859D01*
Y-59813D01*
Y-59766D01*
Y-59720D01*
Y-59674D01*
Y-59627D01*
Y-59581D01*
Y-59535D01*
Y-59489D01*
Y-59442D01*
Y-59396D01*
Y-59350D01*
Y-59304D01*
Y-59257D01*
Y-59211D01*
Y-59165D01*
Y-59119D01*
Y-59072D01*
Y-59026D01*
X155068D01*
Y-58980D01*
Y-58934D01*
Y-58887D01*
Y-58841D01*
Y-58795D01*
Y-58748D01*
Y-58702D01*
Y-58656D01*
Y-58610D01*
Y-58563D01*
Y-58517D01*
Y-58471D01*
Y-58425D01*
Y-58378D01*
Y-58332D01*
Y-58286D01*
Y-58239D01*
Y-58193D01*
Y-58147D01*
Y-58101D01*
Y-58054D01*
Y-58008D01*
Y-57962D01*
Y-57916D01*
Y-57869D01*
Y-57823D01*
Y-57777D01*
Y-57730D01*
Y-57684D01*
Y-57638D01*
Y-57592D01*
Y-57545D01*
Y-57499D01*
Y-57453D01*
X162517D01*
Y-57499D01*
D02*
G37*
%LPC*%
G36*
X106946Y-48476D02*
X105697D01*
Y-48523D01*
X105049D01*
Y-48569D01*
X104679D01*
Y-48615D01*
X103939D01*
Y-48569D01*
X103615D01*
Y-48523D01*
X102181D01*
Y-48476D01*
X101579D01*
Y-48523D01*
X100700D01*
Y-48569D01*
X100191D01*
Y-48615D01*
X99821D01*
Y-48661D01*
X99543D01*
Y-48708D01*
X99265D01*
Y-48754D01*
X99034D01*
Y-48800D01*
X98803D01*
Y-48846D01*
X98571D01*
Y-48893D01*
X98386D01*
Y-48939D01*
X98201D01*
Y-48985D01*
X98016D01*
Y-49031D01*
X97831D01*
Y-49078D01*
X97692D01*
Y-49124D01*
X97553D01*
Y-49170D01*
X97368D01*
Y-49217D01*
X97230D01*
Y-49263D01*
X97091D01*
Y-49309D01*
X96952D01*
Y-49355D01*
X96859D01*
Y-49402D01*
X96721D01*
Y-49448D01*
X96582D01*
Y-49494D01*
X96489D01*
Y-49540D01*
X96350D01*
Y-49587D01*
X96258D01*
Y-49633D01*
X96119D01*
Y-49679D01*
X96026D01*
Y-49726D01*
X95934D01*
Y-49772D01*
X95795D01*
Y-49818D01*
X95703D01*
Y-49864D01*
X95610D01*
Y-49911D01*
X95518D01*
Y-49957D01*
X95425D01*
Y-50003D01*
X95332D01*
Y-50050D01*
X95240D01*
Y-50096D01*
X95147D01*
Y-50142D01*
X95055D01*
Y-50188D01*
X94962D01*
Y-50235D01*
X94870D01*
Y-50281D01*
X94777D01*
Y-50327D01*
X94685D01*
Y-50373D01*
X94638D01*
Y-50420D01*
X94546D01*
Y-50466D01*
X94453D01*
Y-50512D01*
X94361D01*
Y-50558D01*
X94314D01*
Y-50605D01*
X94222D01*
Y-50651D01*
X94129D01*
Y-50697D01*
X94083D01*
Y-50744D01*
X93991D01*
Y-50790D01*
X93944D01*
Y-50836D01*
X93852D01*
Y-50882D01*
X93805D01*
Y-50929D01*
X93713D01*
Y-50975D01*
X93667D01*
Y-51021D01*
X93574D01*
Y-51067D01*
X93528D01*
Y-51114D01*
X93435D01*
Y-51160D01*
X93389D01*
Y-51206D01*
X93297D01*
Y-51253D01*
X93250D01*
Y-51299D01*
X93158D01*
Y-51345D01*
X93111D01*
Y-51391D01*
X93065D01*
Y-51438D01*
X92973D01*
Y-51484D01*
X92926D01*
Y-51530D01*
X92880D01*
Y-51576D01*
X92788D01*
Y-51623D01*
X92741D01*
Y-51669D01*
X92695D01*
Y-51715D01*
X92649D01*
Y-51762D01*
X92556D01*
Y-51808D01*
X92510D01*
Y-51854D01*
X92464D01*
Y-51900D01*
X92417D01*
Y-51947D01*
X92371D01*
Y-51993D01*
X92279D01*
Y-52039D01*
X92232D01*
Y-52085D01*
X92186D01*
Y-52132D01*
X92140D01*
Y-52178D01*
X92093D01*
Y-52224D01*
X92047D01*
Y-52271D01*
X91955D01*
Y-52317D01*
X91908D01*
Y-52363D01*
X91862D01*
Y-52409D01*
X91816D01*
Y-52456D01*
X91770D01*
Y-52502D01*
X91723D01*
Y-52548D01*
X91677D01*
Y-52594D01*
X91631D01*
Y-52641D01*
X91584D01*
Y-52687D01*
X91538D01*
Y-52733D01*
X91492D01*
Y-52779D01*
X91446D01*
Y-52826D01*
X91400D01*
Y-52872D01*
X91353D01*
Y-52918D01*
X91307D01*
Y-52965D01*
X91261D01*
Y-53011D01*
X91214D01*
Y-53057D01*
X91168D01*
Y-53103D01*
X91122D01*
Y-53150D01*
X91076D01*
Y-53196D01*
X91029D01*
Y-53242D01*
X90983D01*
Y-53288D01*
X90937D01*
Y-53335D01*
X90891D01*
Y-53381D01*
X90844D01*
Y-53427D01*
X90798D01*
Y-53474D01*
Y-53520D01*
X90752D01*
Y-53566D01*
X90705D01*
Y-53612D01*
X90659D01*
Y-53659D01*
X90613D01*
Y-53705D01*
X90567D01*
Y-53751D01*
X90520D01*
Y-53797D01*
Y-53844D01*
X90474D01*
Y-53890D01*
X90428D01*
Y-53936D01*
X90381D01*
Y-53983D01*
X90335D01*
Y-54029D01*
X90289D01*
Y-54075D01*
Y-54121D01*
X90243D01*
Y-54168D01*
X90196D01*
Y-54214D01*
X90150D01*
Y-54260D01*
X90104D01*
Y-54306D01*
Y-54353D01*
X90058D01*
Y-54399D01*
X90011D01*
Y-54445D01*
X89965D01*
Y-54492D01*
Y-54538D01*
X89919D01*
Y-54584D01*
X89872D01*
Y-54630D01*
X89826D01*
Y-54677D01*
Y-54723D01*
X89780D01*
Y-54769D01*
X89734D01*
Y-54815D01*
Y-54862D01*
X89687D01*
Y-54908D01*
X89641D01*
Y-54954D01*
X89595D01*
Y-55001D01*
Y-55047D01*
X89549D01*
Y-55093D01*
X89502D01*
Y-55139D01*
Y-55186D01*
X89456D01*
Y-55232D01*
X89410D01*
Y-55278D01*
Y-55324D01*
X89364D01*
Y-55371D01*
Y-55417D01*
X89317D01*
Y-55463D01*
X89271D01*
Y-55509D01*
Y-55556D01*
X89225D01*
Y-55602D01*
X89179D01*
Y-55648D01*
Y-55695D01*
X89132D01*
Y-55741D01*
Y-55787D01*
X89086D01*
Y-55833D01*
X89040D01*
Y-55880D01*
Y-55926D01*
X88993D01*
Y-55972D01*
Y-56018D01*
X88947D01*
Y-56065D01*
Y-56111D01*
X88901D01*
Y-56157D01*
X88855D01*
Y-56204D01*
Y-56250D01*
X88808D01*
Y-56296D01*
Y-56342D01*
X88762D01*
Y-56389D01*
Y-56435D01*
X88716D01*
Y-56481D01*
Y-56527D01*
X88670D01*
Y-56574D01*
Y-56620D01*
X88623D01*
Y-56666D01*
Y-56713D01*
X88577D01*
Y-56759D01*
Y-56805D01*
X88531D01*
Y-56851D01*
Y-56897D01*
X88484D01*
Y-56944D01*
Y-56990D01*
X88438D01*
Y-57036D01*
Y-57083D01*
X88392D01*
Y-57129D01*
Y-57175D01*
X88346D01*
Y-57222D01*
Y-57268D01*
X88299D01*
Y-57314D01*
Y-57360D01*
X88253D01*
Y-57407D01*
Y-57453D01*
Y-57499D01*
X88207D01*
Y-57545D01*
Y-57592D01*
X88161D01*
Y-57638D01*
Y-57684D01*
X88114D01*
Y-57730D01*
Y-57777D01*
Y-57823D01*
X88068D01*
Y-57869D01*
Y-57916D01*
X88022D01*
Y-57962D01*
Y-58008D01*
Y-58054D01*
X87975D01*
Y-58101D01*
Y-58147D01*
Y-58193D01*
X87929D01*
Y-58239D01*
Y-58286D01*
X87883D01*
Y-58332D01*
Y-58378D01*
Y-58425D01*
X87837D01*
Y-58471D01*
Y-58517D01*
Y-58563D01*
X87790D01*
Y-58610D01*
Y-58656D01*
Y-58702D01*
X87744D01*
Y-58748D01*
Y-58795D01*
Y-58841D01*
X87698D01*
Y-58887D01*
Y-58934D01*
Y-58980D01*
X87651D01*
Y-59026D01*
Y-59072D01*
Y-59119D01*
X87605D01*
Y-59165D01*
Y-59211D01*
Y-59257D01*
Y-59304D01*
X87559D01*
Y-59350D01*
Y-59396D01*
Y-59442D01*
X87513D01*
Y-59489D01*
Y-59535D01*
Y-59581D01*
Y-59627D01*
X87466D01*
Y-59674D01*
Y-59720D01*
Y-59766D01*
Y-59813D01*
X87420D01*
Y-59859D01*
Y-59905D01*
Y-59951D01*
Y-59998D01*
X87374D01*
Y-60044D01*
Y-60090D01*
Y-60136D01*
Y-60183D01*
Y-60229D01*
X87328D01*
Y-60275D01*
Y-60322D01*
Y-60368D01*
Y-60414D01*
X87281D01*
Y-60460D01*
Y-60507D01*
Y-60553D01*
Y-60599D01*
Y-60646D01*
Y-60692D01*
X87235D01*
Y-60738D01*
Y-60784D01*
Y-60831D01*
Y-60877D01*
Y-60923D01*
X87189D01*
Y-60969D01*
Y-61016D01*
Y-61062D01*
Y-61108D01*
Y-61155D01*
Y-61201D01*
Y-61247D01*
X87143D01*
Y-61293D01*
Y-61339D01*
Y-61386D01*
Y-61432D01*
Y-61478D01*
Y-61525D01*
Y-61571D01*
X87096D01*
Y-61617D01*
Y-61663D01*
Y-61710D01*
Y-61756D01*
Y-61802D01*
Y-61848D01*
Y-61895D01*
Y-61941D01*
Y-61987D01*
Y-62034D01*
X87050D01*
Y-62080D01*
Y-62126D01*
Y-62172D01*
Y-62219D01*
Y-62265D01*
Y-62311D01*
Y-62357D01*
Y-62404D01*
Y-62450D01*
Y-62496D01*
Y-62543D01*
Y-62589D01*
Y-62635D01*
Y-62681D01*
Y-62728D01*
X87004D01*
Y-62774D01*
Y-62820D01*
Y-62866D01*
Y-62913D01*
Y-62959D01*
Y-63005D01*
Y-63051D01*
Y-63098D01*
Y-63144D01*
Y-63190D01*
Y-63237D01*
Y-63283D01*
Y-63329D01*
Y-63375D01*
Y-63422D01*
Y-63468D01*
Y-63514D01*
Y-63560D01*
Y-63607D01*
Y-63653D01*
Y-63699D01*
Y-63746D01*
Y-63792D01*
Y-63838D01*
Y-63884D01*
Y-63931D01*
Y-63977D01*
Y-64023D01*
X87050D01*
Y-64069D01*
Y-64116D01*
Y-64162D01*
Y-64208D01*
Y-64255D01*
Y-64301D01*
Y-64347D01*
Y-64393D01*
Y-64440D01*
Y-64486D01*
Y-64532D01*
Y-64578D01*
Y-64625D01*
Y-64671D01*
X87096D01*
Y-64717D01*
Y-64764D01*
Y-64810D01*
Y-64856D01*
Y-64902D01*
Y-64949D01*
Y-64995D01*
Y-65041D01*
Y-65087D01*
Y-65134D01*
X87143D01*
Y-65180D01*
Y-65226D01*
Y-65273D01*
Y-65319D01*
Y-65365D01*
Y-65411D01*
Y-65458D01*
Y-65504D01*
X87189D01*
Y-65550D01*
Y-65596D01*
Y-65643D01*
Y-65689D01*
Y-65735D01*
Y-65781D01*
X87235D01*
Y-65828D01*
Y-65874D01*
Y-65920D01*
Y-65967D01*
Y-66013D01*
Y-66059D01*
X87281D01*
Y-66105D01*
Y-66152D01*
Y-66198D01*
Y-66244D01*
Y-66290D01*
X87328D01*
Y-66337D01*
Y-66383D01*
Y-66429D01*
Y-66476D01*
Y-66522D01*
X87374D01*
Y-66568D01*
Y-66614D01*
Y-66661D01*
Y-66707D01*
X87420D01*
Y-66753D01*
Y-66799D01*
Y-66846D01*
Y-66892D01*
X87466D01*
Y-66938D01*
Y-66985D01*
Y-67031D01*
Y-67077D01*
X87513D01*
Y-67123D01*
Y-67170D01*
Y-67216D01*
Y-67262D01*
X87559D01*
Y-67308D01*
Y-67355D01*
Y-67401D01*
Y-67447D01*
X87605D01*
Y-67494D01*
Y-67540D01*
Y-67586D01*
X87651D01*
Y-67632D01*
Y-67679D01*
Y-67725D01*
X87698D01*
Y-67771D01*
Y-67817D01*
Y-67864D01*
Y-67910D01*
X87744D01*
Y-67956D01*
Y-68002D01*
Y-68049D01*
X87790D01*
Y-68095D01*
Y-68141D01*
Y-68188D01*
X87837D01*
Y-68234D01*
Y-68280D01*
X87883D01*
Y-68326D01*
Y-68373D01*
Y-68419D01*
X87929D01*
Y-68465D01*
Y-68511D01*
Y-68558D01*
X87975D01*
Y-68604D01*
Y-68650D01*
Y-68697D01*
X88022D01*
Y-68743D01*
Y-68789D01*
X88068D01*
Y-68835D01*
Y-68882D01*
Y-68928D01*
X88114D01*
Y-68974D01*
Y-69020D01*
X88161D01*
Y-69067D01*
Y-69113D01*
X88207D01*
Y-69159D01*
Y-69206D01*
Y-69252D01*
X88253D01*
Y-69298D01*
Y-69344D01*
X88299D01*
Y-69391D01*
Y-69437D01*
X88346D01*
Y-69483D01*
Y-69529D01*
Y-69576D01*
X88392D01*
Y-69622D01*
Y-69668D01*
X88438D01*
Y-69715D01*
Y-69761D01*
X88484D01*
Y-69807D01*
Y-69853D01*
X88531D01*
Y-69900D01*
Y-69946D01*
X88577D01*
Y-69992D01*
Y-70038D01*
X88623D01*
Y-70085D01*
Y-70131D01*
X88670D01*
Y-70177D01*
Y-70223D01*
X88716D01*
Y-70270D01*
Y-70316D01*
X88762D01*
Y-70362D01*
Y-70409D01*
X88808D01*
Y-70455D01*
X88855D01*
Y-70501D01*
Y-70547D01*
X88901D01*
Y-70594D01*
Y-70640D01*
X88947D01*
Y-70686D01*
Y-70732D01*
X88993D01*
Y-70779D01*
X89040D01*
Y-70825D01*
Y-70871D01*
X89086D01*
Y-70918D01*
Y-70964D01*
X89132D01*
Y-71010D01*
Y-71056D01*
X89179D01*
Y-71103D01*
X89225D01*
Y-71149D01*
Y-71195D01*
X89271D01*
Y-71241D01*
X89317D01*
Y-71288D01*
Y-71334D01*
X89364D01*
Y-71380D01*
Y-71426D01*
X89410D01*
Y-71473D01*
X89456D01*
Y-71519D01*
Y-71565D01*
X89502D01*
Y-71612D01*
X89549D01*
Y-71658D01*
Y-71704D01*
X89595D01*
Y-71750D01*
X89641D01*
Y-71797D01*
X89687D01*
Y-71843D01*
Y-71889D01*
X89734D01*
Y-71935D01*
X89780D01*
Y-71982D01*
Y-72028D01*
X89826D01*
Y-72074D01*
X89872D01*
Y-72121D01*
X89919D01*
Y-72167D01*
Y-72213D01*
X89965D01*
Y-72259D01*
X90011D01*
Y-72306D01*
X90058D01*
Y-72352D01*
Y-72398D01*
X90104D01*
Y-72444D01*
X90150D01*
Y-72491D01*
X90196D01*
Y-72537D01*
Y-72583D01*
X90243D01*
Y-72630D01*
X90289D01*
Y-72676D01*
X90335D01*
Y-72722D01*
X90381D01*
Y-72768D01*
Y-72815D01*
X90428D01*
Y-72861D01*
X90474D01*
Y-72907D01*
X90520D01*
Y-72953D01*
X90567D01*
Y-73000D01*
X90613D01*
Y-73046D01*
X90659D01*
Y-73092D01*
Y-73139D01*
X90705D01*
Y-73185D01*
X90752D01*
Y-73231D01*
X90798D01*
Y-73277D01*
X90844D01*
Y-73324D01*
X90891D01*
Y-73370D01*
X90937D01*
Y-73416D01*
X90983D01*
Y-73462D01*
X91029D01*
Y-73509D01*
X91076D01*
Y-73555D01*
Y-73601D01*
X91122D01*
Y-73648D01*
X91168D01*
Y-73694D01*
X91214D01*
Y-73740D01*
X91261D01*
Y-73786D01*
X91307D01*
Y-73833D01*
X91353D01*
Y-73879D01*
X91400D01*
Y-73925D01*
X91446D01*
Y-73971D01*
X91492D01*
Y-74018D01*
X91538D01*
Y-74064D01*
X91584D01*
Y-74110D01*
X91631D01*
Y-74156D01*
X91723D01*
Y-74203D01*
X91770D01*
Y-74249D01*
X91816D01*
Y-74295D01*
X91862D01*
Y-74342D01*
X91908D01*
Y-74388D01*
X91955D01*
Y-74434D01*
X92001D01*
Y-74480D01*
X92047D01*
Y-74527D01*
X92093D01*
Y-74573D01*
X92140D01*
Y-74619D01*
X92232D01*
Y-74665D01*
X92279D01*
Y-74712D01*
X92325D01*
Y-74758D01*
X92371D01*
Y-74804D01*
X92417D01*
Y-74851D01*
X92510D01*
Y-74897D01*
X92556D01*
Y-74943D01*
X92602D01*
Y-74989D01*
X92649D01*
Y-75036D01*
X92741D01*
Y-75082D01*
X92788D01*
Y-75128D01*
X92834D01*
Y-75174D01*
X92880D01*
Y-75221D01*
X92973D01*
Y-75267D01*
X93019D01*
Y-75313D01*
X93065D01*
Y-75360D01*
X93158D01*
Y-75406D01*
X93204D01*
Y-75452D01*
X93297D01*
Y-75498D01*
X93343D01*
Y-75545D01*
X93389D01*
Y-75591D01*
X93482D01*
Y-75637D01*
X93528D01*
Y-75683D01*
X93621D01*
Y-75730D01*
X93667D01*
Y-75776D01*
X93759D01*
Y-75822D01*
X93805D01*
Y-75868D01*
X93898D01*
Y-75915D01*
X93944D01*
Y-75961D01*
X94037D01*
Y-76007D01*
X94129D01*
Y-76054D01*
X94176D01*
Y-76100D01*
X94268D01*
Y-76146D01*
X94361D01*
Y-76192D01*
X94407D01*
Y-76239D01*
X94500D01*
Y-76285D01*
X94592D01*
Y-76331D01*
X94685D01*
Y-76377D01*
X94731D01*
Y-76424D01*
X94823D01*
Y-76470D01*
X94916D01*
Y-76516D01*
X95009D01*
Y-76563D01*
X95101D01*
Y-76609D01*
X95194D01*
Y-76655D01*
X95286D01*
Y-76701D01*
X95379D01*
Y-76748D01*
X95471D01*
Y-76794D01*
X95564D01*
Y-76840D01*
X95656D01*
Y-76886D01*
X95749D01*
Y-76933D01*
X95888D01*
Y-76979D01*
X95980D01*
Y-77025D01*
X96073D01*
Y-77072D01*
X96212D01*
Y-77118D01*
X96304D01*
Y-77164D01*
X96397D01*
Y-77210D01*
X96535D01*
Y-77257D01*
X96674D01*
Y-77303D01*
X96767D01*
Y-77349D01*
X96906D01*
Y-77395D01*
X97044D01*
Y-77442D01*
X97183D01*
Y-77488D01*
X97322D01*
Y-77534D01*
X97461D01*
Y-77581D01*
X97600D01*
Y-77627D01*
X97785D01*
Y-77673D01*
X97924D01*
Y-77719D01*
X98109D01*
Y-77766D01*
X98294D01*
Y-77812D01*
X98479D01*
Y-77858D01*
X98664D01*
Y-77904D01*
X98895D01*
Y-77951D01*
X99127D01*
Y-77997D01*
X99404D01*
Y-78043D01*
X99682D01*
Y-78089D01*
X100006D01*
Y-78136D01*
X100422D01*
Y-78182D01*
X100978D01*
Y-78228D01*
X103245D01*
Y-78182D01*
X103800D01*
Y-78136D01*
X104170D01*
Y-78089D01*
X104355D01*
Y-78136D01*
X104772D01*
Y-78182D01*
X105188D01*
Y-78228D01*
X107363D01*
Y-78182D01*
X107872D01*
Y-78136D01*
X108288D01*
Y-78089D01*
X108566D01*
Y-78043D01*
X108844D01*
Y-77997D01*
X109121D01*
Y-77951D01*
X109353D01*
Y-77904D01*
X109538D01*
Y-77858D01*
X109769D01*
Y-77812D01*
X109954D01*
Y-77766D01*
X110139D01*
Y-77719D01*
X110278D01*
Y-77673D01*
X110463D01*
Y-77627D01*
X110602D01*
Y-77581D01*
X110741D01*
Y-77534D01*
X110926D01*
Y-77488D01*
X111065D01*
Y-77442D01*
X111157D01*
Y-77395D01*
X111296D01*
Y-77349D01*
X111435D01*
Y-77303D01*
X111574D01*
Y-77257D01*
X111666D01*
Y-77210D01*
X111805D01*
Y-77164D01*
X111897D01*
Y-77118D01*
X112036D01*
Y-77072D01*
X112129D01*
Y-77025D01*
X112221D01*
Y-76979D01*
X112360D01*
Y-76933D01*
X112453D01*
Y-76886D01*
X112545D01*
Y-76840D01*
X112638D01*
Y-76794D01*
X112730D01*
Y-76748D01*
X112823D01*
Y-76701D01*
X112915D01*
Y-76655D01*
X113008D01*
Y-76609D01*
X113100D01*
Y-76563D01*
X113193D01*
Y-76516D01*
X113286D01*
Y-76470D01*
X113378D01*
Y-76424D01*
X113471D01*
Y-76377D01*
X113563D01*
Y-76331D01*
X113609D01*
Y-76285D01*
X113702D01*
Y-76239D01*
X113795D01*
Y-76192D01*
X113841D01*
Y-76146D01*
X113933D01*
Y-76100D01*
X114026D01*
Y-76054D01*
X114072D01*
Y-76007D01*
X114165D01*
Y-75961D01*
X114257D01*
Y-75915D01*
X114304D01*
Y-75868D01*
X114396D01*
Y-75822D01*
X114442D01*
Y-75776D01*
X114535D01*
Y-75730D01*
X114581D01*
Y-75683D01*
X114674D01*
Y-75637D01*
X114720D01*
Y-75591D01*
X114812D01*
Y-75545D01*
X114859D01*
Y-75498D01*
X114905D01*
Y-75452D01*
X114997D01*
Y-75406D01*
X115044D01*
Y-75360D01*
X115136D01*
Y-75313D01*
X115183D01*
Y-75267D01*
X115229D01*
Y-75221D01*
X115321D01*
Y-75174D01*
X115368D01*
Y-75128D01*
X115414D01*
Y-75082D01*
X115460D01*
Y-75036D01*
X115553D01*
Y-74989D01*
X115599D01*
Y-74943D01*
X115645D01*
Y-74897D01*
X115692D01*
Y-74851D01*
X115784D01*
Y-74804D01*
X115830D01*
Y-74758D01*
X115877D01*
Y-74712D01*
X115923D01*
Y-74665D01*
X115969D01*
Y-74619D01*
X116016D01*
Y-74573D01*
X116108D01*
Y-74527D01*
X116154D01*
Y-74480D01*
X116201D01*
Y-74434D01*
X116247D01*
Y-74388D01*
X116293D01*
Y-74342D01*
X116339D01*
Y-74295D01*
X116386D01*
Y-74249D01*
X116432D01*
Y-74203D01*
X116478D01*
Y-74156D01*
X116525D01*
Y-74110D01*
X116571D01*
Y-74064D01*
X116617D01*
Y-74018D01*
X116663D01*
Y-73971D01*
X116710D01*
Y-73925D01*
X116756D01*
Y-73879D01*
X116802D01*
Y-73833D01*
X116848D01*
Y-73786D01*
X116895D01*
Y-73740D01*
X116987D01*
Y-73694D01*
X117033D01*
Y-73648D01*
X117080D01*
Y-73601D01*
X117126D01*
Y-73555D01*
X117172D01*
Y-73509D01*
X117218D01*
Y-73462D01*
X117265D01*
Y-73416D01*
X117311D01*
Y-73370D01*
X117357D01*
Y-73324D01*
X117404D01*
Y-73277D01*
X117450D01*
Y-73231D01*
X117496D01*
Y-73185D01*
X117542D01*
Y-73139D01*
X117589D01*
Y-73092D01*
X117635D01*
Y-73046D01*
X117681D01*
Y-73000D01*
X117727D01*
Y-72953D01*
X117774D01*
Y-72907D01*
X117820D01*
Y-72861D01*
X117866D01*
Y-72815D01*
X117913D01*
Y-72768D01*
X117959D01*
Y-72722D01*
X118005D01*
Y-72676D01*
X118051D01*
Y-72630D01*
X118098D01*
Y-72583D01*
X118144D01*
Y-72537D01*
X118236D01*
Y-72491D01*
X118283D01*
Y-72444D01*
X118329D01*
Y-72398D01*
X118375D01*
Y-72352D01*
X118422D01*
Y-72306D01*
X118468D01*
Y-72259D01*
X118514D01*
Y-72213D01*
X118560D01*
Y-72167D01*
X118607D01*
Y-72121D01*
X118653D01*
Y-72074D01*
X118699D01*
Y-72028D01*
X118746D01*
Y-71982D01*
X118792D01*
Y-71935D01*
X118838D01*
Y-71889D01*
X118884D01*
Y-71843D01*
X118930D01*
Y-71797D01*
X118977D01*
Y-71750D01*
X119023D01*
Y-71704D01*
X119069D01*
Y-71658D01*
X119116D01*
Y-71612D01*
X119162D01*
Y-71565D01*
X119208D01*
Y-71519D01*
X119254D01*
Y-71473D01*
X119301D01*
Y-71426D01*
X119347D01*
Y-71380D01*
X119393D01*
Y-71334D01*
X119439D01*
Y-71288D01*
X119486D01*
Y-71241D01*
X119532D01*
Y-71195D01*
X119578D01*
Y-71149D01*
X119625D01*
Y-71103D01*
X119671D01*
Y-71056D01*
X119717D01*
Y-71010D01*
X119763D01*
Y-70964D01*
X119810D01*
Y-70918D01*
X119856D01*
Y-70871D01*
X119902D01*
Y-70825D01*
X119948D01*
Y-70779D01*
X119995D01*
Y-70732D01*
X120041D01*
Y-70686D01*
X120087D01*
Y-70640D01*
X120134D01*
Y-70594D01*
X120180D01*
Y-70547D01*
X120226D01*
Y-70501D01*
X120272D01*
Y-70455D01*
X120319D01*
Y-70409D01*
X120365D01*
Y-70362D01*
X120411D01*
Y-70316D01*
X120457D01*
Y-70270D01*
X120504D01*
Y-70223D01*
X120550D01*
Y-70177D01*
X120596D01*
Y-70131D01*
X120643D01*
Y-70085D01*
X120689D01*
Y-70038D01*
X120735D01*
Y-69992D01*
X120781D01*
Y-69946D01*
X120828D01*
Y-69900D01*
X120874D01*
Y-69853D01*
Y-69807D01*
X120920D01*
Y-69761D01*
X120966D01*
Y-69715D01*
X121013D01*
Y-69668D01*
X121059D01*
Y-69622D01*
X121105D01*
Y-69576D01*
X121151D01*
Y-69529D01*
X121198D01*
Y-69483D01*
X121244D01*
Y-69437D01*
Y-69391D01*
X121290D01*
Y-69344D01*
X121337D01*
Y-69298D01*
X121383D01*
Y-69252D01*
X121429D01*
Y-69206D01*
X121476D01*
Y-69159D01*
X121522D01*
Y-69113D01*
Y-69067D01*
X121568D01*
Y-69020D01*
X121614D01*
Y-68974D01*
X121660D01*
Y-68928D01*
X121707D01*
Y-68882D01*
X121753D01*
Y-68835D01*
Y-68789D01*
X121799D01*
Y-68743D01*
X121846D01*
Y-68697D01*
X121892D01*
Y-68650D01*
X121938D01*
Y-68604D01*
Y-68558D01*
X121984D01*
Y-68511D01*
X122031D01*
Y-68465D01*
X122077D01*
Y-68419D01*
X122123D01*
Y-68373D01*
Y-68326D01*
X122169D01*
Y-68280D01*
X122216D01*
Y-68234D01*
X122262D01*
Y-68188D01*
Y-68141D01*
X122308D01*
Y-68095D01*
X122355D01*
Y-68049D01*
X122401D01*
Y-68002D01*
Y-67956D01*
X122447D01*
Y-67910D01*
X122493D01*
Y-67864D01*
Y-67817D01*
X122540D01*
Y-67771D01*
X122586D01*
Y-67725D01*
Y-67679D01*
X122632D01*
Y-67632D01*
X122678D01*
Y-67586D01*
Y-67540D01*
X122725D01*
Y-67494D01*
X122771D01*
Y-67447D01*
Y-67401D01*
X122817D01*
Y-67355D01*
X122864D01*
Y-67308D01*
Y-67262D01*
X122910D01*
Y-67216D01*
X122956D01*
Y-67170D01*
Y-67123D01*
X123002D01*
Y-67077D01*
Y-67031D01*
X123049D01*
Y-66985D01*
X123095D01*
Y-66938D01*
Y-66892D01*
X123141D01*
Y-66846D01*
Y-66799D01*
X123187D01*
Y-66753D01*
X123234D01*
Y-66707D01*
Y-66661D01*
X123280D01*
Y-66614D01*
Y-66568D01*
X123326D01*
Y-66522D01*
Y-66476D01*
X123372D01*
Y-66429D01*
Y-66383D01*
X123419D01*
Y-66337D01*
Y-66290D01*
X123465D01*
Y-66244D01*
Y-66198D01*
X123511D01*
Y-66152D01*
Y-66105D01*
X123558D01*
Y-66059D01*
Y-66013D01*
X123604D01*
Y-65967D01*
Y-65920D01*
Y-65874D01*
X123650D01*
Y-65828D01*
Y-65781D01*
X123696D01*
Y-65735D01*
Y-65689D01*
X123743D01*
Y-65643D01*
Y-65596D01*
Y-65550D01*
X123789D01*
Y-65504D01*
Y-65458D01*
Y-65411D01*
X123835D01*
Y-65365D01*
Y-65319D01*
X123881D01*
Y-65273D01*
Y-65226D01*
Y-65180D01*
X123928D01*
Y-65134D01*
Y-65087D01*
Y-65041D01*
Y-64995D01*
X123974D01*
Y-64949D01*
Y-64902D01*
Y-64856D01*
X124020D01*
Y-64810D01*
Y-64764D01*
Y-64717D01*
Y-64671D01*
X124067D01*
Y-64625D01*
Y-64578D01*
Y-64532D01*
Y-64486D01*
Y-64440D01*
X124113D01*
Y-64393D01*
Y-64347D01*
Y-64301D01*
Y-64255D01*
Y-64208D01*
X124159D01*
Y-64162D01*
Y-64116D01*
Y-64069D01*
Y-64023D01*
Y-63977D01*
Y-63931D01*
Y-63884D01*
Y-63838D01*
X124205D01*
Y-63792D01*
Y-63746D01*
Y-63699D01*
Y-63653D01*
Y-63607D01*
Y-63560D01*
Y-63514D01*
Y-63468D01*
Y-63422D01*
Y-63375D01*
Y-63329D01*
Y-63283D01*
Y-63237D01*
Y-63190D01*
Y-63144D01*
Y-63098D01*
Y-63051D01*
Y-63005D01*
Y-62959D01*
Y-62913D01*
Y-62866D01*
X124159D01*
Y-62820D01*
Y-62774D01*
Y-62728D01*
Y-62681D01*
Y-62635D01*
Y-62589D01*
Y-62543D01*
Y-62496D01*
X124113D01*
Y-62450D01*
Y-62404D01*
Y-62357D01*
Y-62311D01*
Y-62265D01*
X124067D01*
Y-62219D01*
Y-62172D01*
Y-62126D01*
Y-62080D01*
Y-62034D01*
X124020D01*
Y-61987D01*
Y-61941D01*
Y-61895D01*
Y-61848D01*
X123974D01*
Y-61802D01*
Y-61756D01*
Y-61710D01*
X123928D01*
Y-61663D01*
Y-61617D01*
Y-61571D01*
Y-61525D01*
X123881D01*
Y-61478D01*
Y-61432D01*
Y-61386D01*
X123835D01*
Y-61339D01*
Y-61293D01*
X123789D01*
Y-61247D01*
Y-61201D01*
Y-61155D01*
X123743D01*
Y-61108D01*
Y-61062D01*
Y-61016D01*
X123696D01*
Y-60969D01*
Y-60923D01*
X123650D01*
Y-60877D01*
Y-60831D01*
X123604D01*
Y-60784D01*
Y-60738D01*
Y-60692D01*
X123558D01*
Y-60646D01*
Y-60599D01*
X123511D01*
Y-60553D01*
Y-60507D01*
X123465D01*
Y-60460D01*
Y-60414D01*
X123419D01*
Y-60368D01*
Y-60322D01*
X123372D01*
Y-60275D01*
Y-60229D01*
X123326D01*
Y-60183D01*
Y-60136D01*
X123280D01*
Y-60090D01*
Y-60044D01*
X123234D01*
Y-59998D01*
X123187D01*
Y-59951D01*
Y-59905D01*
X123141D01*
Y-59859D01*
Y-59813D01*
X123095D01*
Y-59766D01*
Y-59720D01*
X123049D01*
Y-59674D01*
X123002D01*
Y-59627D01*
Y-59581D01*
X122956D01*
Y-59535D01*
Y-59489D01*
X122910D01*
Y-59442D01*
X122864D01*
Y-59396D01*
Y-59350D01*
X122817D01*
Y-59304D01*
X122771D01*
Y-59257D01*
Y-59211D01*
X122725D01*
Y-59165D01*
X122678D01*
Y-59119D01*
Y-59072D01*
X122632D01*
Y-59026D01*
X122586D01*
Y-58980D01*
Y-58934D01*
X122540D01*
Y-58887D01*
X122493D01*
Y-58841D01*
Y-58795D01*
X122447D01*
Y-58748D01*
X122401D01*
Y-58702D01*
X122355D01*
Y-58656D01*
Y-58610D01*
X122308D01*
Y-58563D01*
X122262D01*
Y-58517D01*
X122216D01*
Y-58471D01*
Y-58425D01*
X122169D01*
Y-58378D01*
X122123D01*
Y-58332D01*
X122077D01*
Y-58286D01*
Y-58239D01*
X122031D01*
Y-58193D01*
X121984D01*
Y-58147D01*
X121938D01*
Y-58101D01*
X121892D01*
Y-58054D01*
Y-58008D01*
X121846D01*
Y-57962D01*
X121799D01*
Y-57916D01*
X121753D01*
Y-57869D01*
X121707D01*
Y-57823D01*
Y-57777D01*
X121660D01*
Y-57730D01*
X121614D01*
Y-57684D01*
X121568D01*
Y-57638D01*
X121522D01*
Y-57592D01*
X121476D01*
Y-57545D01*
X121429D01*
Y-57499D01*
Y-57453D01*
X121383D01*
Y-57407D01*
X121337D01*
Y-57360D01*
X121290D01*
Y-57314D01*
X121244D01*
Y-57268D01*
X121198D01*
Y-57222D01*
X121151D01*
Y-57175D01*
X121105D01*
Y-57129D01*
Y-57083D01*
X121059D01*
Y-57036D01*
X121013D01*
Y-56990D01*
X120966D01*
Y-56944D01*
X120920D01*
Y-56897D01*
X120874D01*
Y-56851D01*
X120828D01*
Y-56805D01*
X120781D01*
Y-56759D01*
X120735D01*
Y-56713D01*
X120689D01*
Y-56666D01*
X120643D01*
Y-56620D01*
X120596D01*
Y-56574D01*
X120550D01*
Y-56527D01*
Y-56481D01*
X120504D01*
Y-56435D01*
X120457D01*
Y-56389D01*
X120411D01*
Y-56342D01*
X120365D01*
Y-56296D01*
X120319D01*
Y-56250D01*
X120272D01*
Y-56204D01*
X120226D01*
Y-56157D01*
X120180D01*
Y-56111D01*
X120134D01*
Y-56065D01*
X120087D01*
Y-56018D01*
X120041D01*
Y-55972D01*
X119995D01*
Y-55926D01*
X119948D01*
Y-55880D01*
X119902D01*
Y-55833D01*
X119856D01*
Y-55787D01*
X119810D01*
Y-55741D01*
X119763D01*
Y-55695D01*
X119717D01*
Y-55648D01*
X119671D01*
Y-55602D01*
X119625D01*
Y-55556D01*
X119578D01*
Y-55509D01*
X119532D01*
Y-55463D01*
X119486D01*
Y-55417D01*
X119439D01*
Y-55371D01*
X119393D01*
Y-55324D01*
X119347D01*
Y-55278D01*
X119301D01*
Y-55232D01*
X119254D01*
Y-55186D01*
X119208D01*
Y-55139D01*
X119162D01*
Y-55093D01*
X119116D01*
Y-55047D01*
X119069D01*
Y-55001D01*
X119023D01*
Y-54954D01*
X118977D01*
Y-54908D01*
X118884D01*
Y-54862D01*
X118838D01*
Y-54815D01*
X118792D01*
Y-54769D01*
X118746D01*
Y-54723D01*
X118699D01*
Y-54677D01*
X118653D01*
Y-54630D01*
X118607D01*
Y-54584D01*
X118560D01*
Y-54538D01*
X118514D01*
Y-54492D01*
X118468D01*
Y-54445D01*
X118422D01*
Y-54399D01*
X118375D01*
Y-54353D01*
X118329D01*
Y-54306D01*
X118283D01*
Y-54260D01*
X118236D01*
Y-54214D01*
X118190D01*
Y-54168D01*
X118144D01*
Y-54121D01*
X118098D01*
Y-54075D01*
X118051D01*
Y-54029D01*
X118005D01*
Y-53983D01*
X117959D01*
Y-53936D01*
X117913D01*
Y-53890D01*
X117866D01*
Y-53844D01*
X117774D01*
Y-53797D01*
X117727D01*
Y-53751D01*
X117681D01*
Y-53705D01*
X117635D01*
Y-53659D01*
X117589D01*
Y-53612D01*
X117542D01*
Y-53566D01*
X117496D01*
Y-53520D01*
X117450D01*
Y-53474D01*
X117404D01*
Y-53427D01*
X117357D01*
Y-53381D01*
X117311D01*
Y-53335D01*
X117265D01*
Y-53288D01*
X117218D01*
Y-53242D01*
X117172D01*
Y-53196D01*
X117126D01*
Y-53150D01*
X117080D01*
Y-53103D01*
X117033D01*
Y-53057D01*
X116987D01*
Y-53011D01*
X116941D01*
Y-52965D01*
X116895D01*
Y-52918D01*
X116848D01*
Y-52872D01*
X116802D01*
Y-52826D01*
X116756D01*
Y-52779D01*
X116710D01*
Y-52733D01*
X116663D01*
Y-52687D01*
X116617D01*
Y-52641D01*
X116571D01*
Y-52594D01*
X116525D01*
Y-52548D01*
X116478D01*
Y-52502D01*
X116432D01*
Y-52456D01*
X116386D01*
Y-52409D01*
X116339D01*
Y-52363D01*
X116247D01*
Y-52317D01*
X116201D01*
Y-52271D01*
X116154D01*
Y-52224D01*
X116108D01*
Y-52178D01*
X116062D01*
Y-52132D01*
X116016D01*
Y-52085D01*
X115969D01*
Y-52039D01*
X115923D01*
Y-51993D01*
X115830D01*
Y-51947D01*
X115784D01*
Y-51900D01*
X115738D01*
Y-51854D01*
X115692D01*
Y-51808D01*
X115599D01*
Y-51762D01*
X115553D01*
Y-51715D01*
X115506D01*
Y-51669D01*
X115460D01*
Y-51623D01*
X115368D01*
Y-51576D01*
X115321D01*
Y-51530D01*
X115275D01*
Y-51484D01*
X115229D01*
Y-51438D01*
X115136D01*
Y-51391D01*
X115090D01*
Y-51345D01*
X114997D01*
Y-51299D01*
X114951D01*
Y-51253D01*
X114905D01*
Y-51206D01*
X114812D01*
Y-51160D01*
X114766D01*
Y-51114D01*
X114674D01*
Y-51067D01*
X114627D01*
Y-51021D01*
X114535D01*
Y-50975D01*
X114489D01*
Y-50929D01*
X114396D01*
Y-50882D01*
X114350D01*
Y-50836D01*
X114257D01*
Y-50790D01*
X114211D01*
Y-50744D01*
X114118D01*
Y-50697D01*
X114072D01*
Y-50651D01*
X113980D01*
Y-50605D01*
X113887D01*
Y-50558D01*
X113841D01*
Y-50512D01*
X113748D01*
Y-50466D01*
X113656D01*
Y-50420D01*
X113563D01*
Y-50373D01*
X113517D01*
Y-50327D01*
X113424D01*
Y-50281D01*
X113332D01*
Y-50235D01*
X113239D01*
Y-50188D01*
X113147D01*
Y-50142D01*
X113054D01*
Y-50096D01*
X112962D01*
Y-50050D01*
X112869D01*
Y-50003D01*
X112777D01*
Y-49957D01*
X112684D01*
Y-49911D01*
X112592D01*
Y-49864D01*
X112499D01*
Y-49818D01*
X112406D01*
Y-49772D01*
X112268D01*
Y-49726D01*
X112175D01*
Y-49679D01*
X112083D01*
Y-49633D01*
X111944D01*
Y-49587D01*
X111851D01*
Y-49540D01*
X111712D01*
Y-49494D01*
X111620D01*
Y-49448D01*
X111481D01*
Y-49402D01*
X111342D01*
Y-49355D01*
X111250D01*
Y-49309D01*
X111111D01*
Y-49263D01*
X110972D01*
Y-49217D01*
X110833D01*
Y-49170D01*
X110694D01*
Y-49124D01*
X110509D01*
Y-49078D01*
X110371D01*
Y-49031D01*
X110185D01*
Y-48985D01*
X110047D01*
Y-48939D01*
X109862D01*
Y-48893D01*
X109630D01*
Y-48846D01*
X109445D01*
Y-48800D01*
X109214D01*
Y-48754D01*
X108982D01*
Y-48708D01*
X108705D01*
Y-48661D01*
X108427D01*
Y-48615D01*
X108057D01*
Y-48569D01*
X107641D01*
Y-48523D01*
X106946D01*
Y-48476D01*
D02*
G37*
G36*
X137439Y-59165D02*
X136884D01*
Y-59211D01*
X136513D01*
Y-59257D01*
X136282D01*
Y-59304D01*
X136097D01*
Y-59350D01*
X135958D01*
Y-59396D01*
X135819D01*
Y-59442D01*
X135680D01*
Y-59489D01*
X135588D01*
Y-59535D01*
X135495D01*
Y-59581D01*
X135403D01*
Y-59627D01*
X135310D01*
Y-59674D01*
X135218D01*
Y-59720D01*
X135125D01*
Y-59766D01*
X135079D01*
Y-59813D01*
X134986D01*
Y-59859D01*
X134940D01*
Y-59905D01*
X134848D01*
Y-59951D01*
X134801D01*
Y-59998D01*
X134755D01*
Y-60044D01*
X134709D01*
Y-60090D01*
X134616D01*
Y-60136D01*
X134570D01*
Y-60183D01*
X134524D01*
Y-60229D01*
X134477D01*
Y-60275D01*
X134431D01*
Y-60322D01*
X134385D01*
Y-60368D01*
X134339D01*
Y-60414D01*
X134292D01*
Y-60460D01*
X134246D01*
Y-60507D01*
X134200D01*
Y-60553D01*
X134154D01*
Y-60599D01*
Y-60646D01*
X134107D01*
Y-60692D01*
X134061D01*
Y-60738D01*
X134015D01*
Y-60784D01*
X133968D01*
Y-60831D01*
Y-60877D01*
X133922D01*
Y-60923D01*
X133876D01*
Y-60969D01*
Y-61016D01*
X133830D01*
Y-61062D01*
X133783D01*
Y-61108D01*
Y-61155D01*
X133737D01*
Y-61201D01*
Y-61247D01*
X133691D01*
Y-61293D01*
Y-61339D01*
X133645D01*
Y-61386D01*
Y-61432D01*
X133598D01*
Y-61478D01*
Y-61525D01*
X133552D01*
Y-61571D01*
Y-61617D01*
X133506D01*
Y-61663D01*
Y-61710D01*
Y-61756D01*
X133460D01*
Y-61802D01*
Y-61848D01*
Y-61895D01*
X133413D01*
Y-61941D01*
Y-61987D01*
Y-62034D01*
X133367D01*
Y-62080D01*
Y-62126D01*
Y-62172D01*
Y-62219D01*
X133321D01*
Y-62265D01*
Y-62311D01*
Y-62357D01*
Y-62404D01*
X133274D01*
Y-62450D01*
Y-62496D01*
Y-62543D01*
Y-62589D01*
Y-62635D01*
Y-62681D01*
Y-62728D01*
Y-62774D01*
X133228D01*
Y-62820D01*
Y-62866D01*
Y-62913D01*
Y-62959D01*
Y-63005D01*
Y-63051D01*
Y-63098D01*
Y-63144D01*
Y-63190D01*
Y-63237D01*
Y-63283D01*
Y-63329D01*
Y-63375D01*
Y-63422D01*
Y-63468D01*
Y-63514D01*
Y-63560D01*
Y-63607D01*
Y-63653D01*
Y-63699D01*
X133274D01*
Y-63746D01*
Y-63792D01*
Y-63838D01*
Y-63884D01*
Y-63931D01*
Y-63977D01*
Y-64023D01*
X133321D01*
Y-64069D01*
Y-64116D01*
Y-64162D01*
Y-64208D01*
Y-64255D01*
X133367D01*
Y-64301D01*
Y-64347D01*
Y-64393D01*
X133413D01*
Y-64440D01*
Y-64486D01*
Y-64532D01*
X133460D01*
Y-64578D01*
Y-64625D01*
Y-64671D01*
X133506D01*
Y-64717D01*
Y-64764D01*
Y-64810D01*
X133552D01*
Y-64856D01*
Y-64902D01*
X133598D01*
Y-64949D01*
Y-64995D01*
X133645D01*
Y-65041D01*
Y-65087D01*
X133691D01*
Y-65134D01*
Y-65180D01*
X133737D01*
Y-65226D01*
Y-65273D01*
X133783D01*
Y-65319D01*
Y-65365D01*
X133830D01*
Y-65411D01*
X133876D01*
Y-65458D01*
Y-65504D01*
X133922D01*
Y-65550D01*
Y-65596D01*
X133968D01*
Y-65643D01*
X134015D01*
Y-65689D01*
X134061D01*
Y-65735D01*
Y-65781D01*
X134107D01*
Y-65828D01*
X134154D01*
Y-65874D01*
X134200D01*
Y-65920D01*
X134246D01*
Y-65967D01*
X134292D01*
Y-66013D01*
X134339D01*
Y-66059D01*
Y-66105D01*
X134385D01*
Y-66152D01*
X134431D01*
Y-66198D01*
X134477D01*
Y-66244D01*
X134570D01*
Y-66290D01*
X134616D01*
Y-66337D01*
X134663D01*
Y-66383D01*
X134709D01*
Y-66429D01*
X134755D01*
Y-66476D01*
X134801D01*
Y-66522D01*
X134894D01*
Y-66568D01*
X134940D01*
Y-66614D01*
X134986D01*
Y-66661D01*
X135079D01*
Y-66707D01*
X135172D01*
Y-66753D01*
X135218D01*
Y-66799D01*
X135310D01*
Y-66846D01*
X135403D01*
Y-66892D01*
X135495D01*
Y-66938D01*
X135588D01*
Y-66985D01*
X135680D01*
Y-67031D01*
X135773D01*
Y-67077D01*
X135912D01*
Y-67123D01*
X136051D01*
Y-67170D01*
X136189D01*
Y-67216D01*
X136375D01*
Y-67262D01*
X136606D01*
Y-67308D01*
X136930D01*
Y-67355D01*
X137393D01*
Y-67308D01*
X137716D01*
Y-67262D01*
X137948D01*
Y-67216D01*
X138133D01*
Y-67170D01*
X138272D01*
Y-67123D01*
X138410D01*
Y-67077D01*
X138503D01*
Y-67031D01*
X138642D01*
Y-66985D01*
X138734D01*
Y-66938D01*
X138827D01*
Y-66892D01*
X138919D01*
Y-66846D01*
X139012D01*
Y-66799D01*
X139058D01*
Y-66753D01*
X139151D01*
Y-66707D01*
X139243D01*
Y-66661D01*
X139290D01*
Y-66614D01*
X139382D01*
Y-66568D01*
X139428D01*
Y-66522D01*
X139475D01*
Y-66476D01*
X139567D01*
Y-66429D01*
X139614D01*
Y-66383D01*
X139660D01*
Y-66337D01*
X139706D01*
Y-66290D01*
X139752D01*
Y-66244D01*
X139799D01*
Y-66198D01*
X139845D01*
Y-66152D01*
X139891D01*
Y-66105D01*
X139937D01*
Y-66059D01*
X139984D01*
Y-66013D01*
X140030D01*
Y-65967D01*
X140076D01*
Y-65920D01*
X140123D01*
Y-65874D01*
X140169D01*
Y-65828D01*
Y-65781D01*
X140215D01*
Y-65735D01*
X140261D01*
Y-65689D01*
X140308D01*
Y-65643D01*
Y-65596D01*
X140354D01*
Y-65550D01*
X140400D01*
Y-65504D01*
X140446D01*
Y-65458D01*
Y-65411D01*
X140493D01*
Y-65365D01*
Y-65319D01*
X140539D01*
Y-65273D01*
X140585D01*
Y-65226D01*
Y-65180D01*
X140631D01*
Y-65134D01*
Y-65087D01*
X140678D01*
Y-65041D01*
Y-64995D01*
X140724D01*
Y-64949D01*
Y-64902D01*
Y-64856D01*
X140770D01*
Y-64810D01*
Y-64764D01*
X140817D01*
Y-64717D01*
Y-64671D01*
Y-64625D01*
X140863D01*
Y-64578D01*
Y-64532D01*
Y-64486D01*
X140909D01*
Y-64440D01*
Y-64393D01*
Y-64347D01*
X140955D01*
Y-64301D01*
Y-64255D01*
Y-64208D01*
Y-64162D01*
X141002D01*
Y-64116D01*
Y-64069D01*
Y-64023D01*
Y-63977D01*
Y-63931D01*
X141048D01*
Y-63884D01*
Y-63838D01*
Y-63792D01*
Y-63746D01*
Y-63699D01*
Y-63653D01*
Y-63607D01*
Y-63560D01*
Y-63514D01*
Y-63468D01*
X141094D01*
Y-63422D01*
Y-63375D01*
Y-63329D01*
Y-63283D01*
Y-63237D01*
Y-63190D01*
Y-63144D01*
X141048D01*
Y-63098D01*
Y-63051D01*
Y-63005D01*
Y-62959D01*
Y-62913D01*
Y-62866D01*
Y-62820D01*
Y-62774D01*
Y-62728D01*
Y-62681D01*
Y-62635D01*
Y-62589D01*
Y-62543D01*
Y-62496D01*
X141002D01*
Y-62450D01*
Y-62404D01*
Y-62357D01*
Y-62311D01*
Y-62265D01*
X140955D01*
Y-62219D01*
Y-62172D01*
Y-62126D01*
Y-62080D01*
X140909D01*
Y-62034D01*
Y-61987D01*
Y-61941D01*
X140863D01*
Y-61895D01*
Y-61848D01*
Y-61802D01*
X140817D01*
Y-61756D01*
Y-61710D01*
Y-61663D01*
X140770D01*
Y-61617D01*
Y-61571D01*
X140724D01*
Y-61525D01*
Y-61478D01*
Y-61432D01*
X140678D01*
Y-61386D01*
Y-61339D01*
X140631D01*
Y-61293D01*
Y-61247D01*
X140585D01*
Y-61201D01*
X140539D01*
Y-61155D01*
Y-61108D01*
X140493D01*
Y-61062D01*
Y-61016D01*
X140446D01*
Y-60969D01*
X140400D01*
Y-60923D01*
Y-60877D01*
X140354D01*
Y-60831D01*
X140308D01*
Y-60784D01*
X140261D01*
Y-60738D01*
Y-60692D01*
X140215D01*
Y-60646D01*
X140169D01*
Y-60599D01*
X140123D01*
Y-60553D01*
X140076D01*
Y-60507D01*
Y-60460D01*
X140030D01*
Y-60414D01*
X139984D01*
Y-60368D01*
X139937D01*
Y-60322D01*
X139891D01*
Y-60275D01*
X139845D01*
Y-60229D01*
X139799D01*
Y-60183D01*
X139706D01*
Y-60136D01*
X139660D01*
Y-60090D01*
X139614D01*
Y-60044D01*
X139567D01*
Y-59998D01*
X139521D01*
Y-59951D01*
X139428D01*
Y-59905D01*
X139382D01*
Y-59859D01*
X139290D01*
Y-59813D01*
X139243D01*
Y-59766D01*
X139151D01*
Y-59720D01*
X139105D01*
Y-59674D01*
X139012D01*
Y-59627D01*
X138919D01*
Y-59581D01*
X138827D01*
Y-59535D01*
X138734D01*
Y-59489D01*
X138596D01*
Y-59442D01*
X138503D01*
Y-59396D01*
X138364D01*
Y-59350D01*
X138225D01*
Y-59304D01*
X138040D01*
Y-59257D01*
X137809D01*
Y-59211D01*
X137439D01*
Y-59165D01*
D02*
G37*
%LPD*%
D10*
X129936Y-152740D02*
G03*
X126153Y-151575I-3782J-5556D01*
G01*
X246897Y-154837D02*
G03*
X249831Y-155512I2934J6047D01*
G01*
X246897Y-154837D02*
G03*
X243963Y-154163I-2934J-6047D01*
G01*
X49213Y-154528D02*
G03*
X52165Y-157480I2953J0D01*
G01*
X49213Y-128937D02*
G03*
X46260Y-125984I-2953J0D01*
G01*
X24606D02*
G03*
X21654Y-128937I0J-2953D01*
G01*
X18701Y-157480D02*
G03*
X21654Y-154528I0J2953D01*
G01*
X-33465Y-30512D02*
G03*
X-33465Y-36417I0J-2953D01*
G01*
X15748D02*
G03*
X15748Y-30512I0J2953D01*
G01*
X54279Y-109252D02*
G03*
X60185Y-109252I2953J0D01*
G01*
X33465Y-30512D02*
G03*
X33465Y-36417I0J-2953D01*
G01*
X47532Y-38168D02*
G03*
X43307Y-36417I-4225J-4225D01*
G01*
X51764Y-34047D02*
G03*
X43228Y-30512I-8535J-8535D01*
G01*
X60200Y-47484D02*
G03*
X56665Y-38948I-12071J0D01*
G01*
X54295Y-47405D02*
G03*
X52544Y-43180I-5976J0D01*
G01*
X-70261D02*
G03*
X-72011Y-47405I4225J-4225D01*
G01*
X-74381Y-38948D02*
G03*
X-77917Y-47484I8535J-8535D01*
G01*
X-60945Y-30512D02*
G03*
X-69480Y-34047I0J-12071D01*
G01*
X-61024Y-36417D02*
G03*
X-65249Y-38168I0J-5976D01*
G01*
X-51181Y-36417D02*
G03*
X-51181Y-30512I0J2953D01*
G01*
X-77901Y-124016D02*
G03*
X-71996Y-124016I2953J0D01*
G01*
X-92520Y76772D02*
G03*
X-89567Y79724I0J2953D01*
G01*
X-102362Y76772D02*
G03*
X-102362Y70866I0J-2953D01*
G01*
X-91992Y70866D02*
G03*
X-83661Y79197I0J8331D01*
G01*
Y140748D02*
G03*
X-89567Y140748I-2953J0D01*
G01*
X-121063Y70866D02*
G03*
X-121063Y76772I0J2953D01*
G01*
X-174213D02*
G03*
X-174213Y70866I0J-2953D01*
G01*
X111867Y-151575D02*
G03*
X107115Y-153543I0J-6721D01*
G01*
X100394Y-157480D02*
G03*
X105146Y-155512I0J6721D01*
G01*
X-257874Y114173D02*
G03*
X-239173Y95472I18701J0D01*
G01*
X-196850Y75787D02*
G03*
X-216535Y95472I-19685J0D01*
G01*
Y-95472D02*
G03*
X-196850Y-75787I0J19685D01*
G01*
X-253937Y155512D02*
G03*
X-257874Y151575I0J-3937D01*
G01*
X-130905Y153543D02*
G03*
X-135658Y155512I-4752J-4752D01*
G01*
X-130905Y153543D02*
G03*
X-126153Y151575I4752J4752D01*
G01*
X-102531Y155512D02*
G03*
X-107283Y153543I0J-6721D01*
G01*
X-112036Y151575D02*
G03*
X-107283Y153543I0J6721D01*
G01*
Y-153543D02*
G03*
X-112036Y-151575I-4752J-4752D01*
G01*
X-105315Y-155512D02*
G03*
X-100563Y-157480I4752J4752D01*
G01*
X-126153Y-151575D02*
G03*
X-130905Y-153543I0J-6721D01*
G01*
X-135658Y-155512D02*
G03*
X-130905Y-153543I0J6721D01*
G01*
X-257874Y-151575D02*
G03*
X-253937Y-155512I3937J0D01*
G01*
X-239173Y-95472D02*
G03*
X-257874Y-114173I0J-18701D01*
G01*
X289370Y-80709D02*
G03*
X257874Y-112205I0J-31496D01*
G01*
X291339Y-80709D02*
G03*
X295276Y-76772I0J3937D01*
G01*
X253937Y-155512D02*
G03*
X257874Y-151575I0J3937D01*
G01*
X130273Y-152969D02*
G03*
X134055Y-154134I3782J5556D01*
G01*
X107283Y153543D02*
G03*
X112036Y151575I4752J4752D01*
G01*
X107283Y153543D02*
G03*
X102531Y155512I-4752J-4752D01*
G01*
X126153Y151575D02*
G03*
X130905Y153543I0J6721D01*
G01*
X135658Y155512D02*
G03*
X130905Y153543I0J-6721D01*
G01*
X257874Y151575D02*
G03*
X253937Y155512I-3937J0D01*
G01*
X295276Y76772D02*
G03*
X291339Y80709I-3937J0D01*
G01*
X257874Y112205D02*
G03*
X289370Y80709I31496J0D01*
G01*
X134055Y-154134D02*
X187008D01*
X129936Y-152740D02*
X130273Y-152969D01*
X249831Y-155512D02*
X253937D01*
X187008Y-154163D02*
X243963D01*
X52165Y-157480D02*
X100394D01*
X49213Y-154528D02*
Y-128937D01*
X24606Y-125984D02*
X46260D01*
X21654Y-154528D02*
Y-128937D01*
X-0Y-157480D02*
X18701D01*
X-33465Y-36417D02*
X15748D01*
X-33465Y-30512D02*
X15748D01*
X33465Y-36417D02*
X43307D01*
X33465Y-30512D02*
X43228D01*
X43228D01*
X60185Y-109252D02*
Y-47484D01*
X54279Y-109252D02*
Y-47405D01*
X47532Y-38168D02*
X52544Y-43180D01*
X51764Y-34047D02*
X56665Y-38948D01*
X-74381D02*
X-69480Y-34047D01*
X-70261Y-43180D02*
X-65249Y-38168D01*
X-71996Y-124016D02*
Y-47405D01*
X-77901Y-124016D02*
Y-47484D01*
X-60945Y-30512D02*
X-60945D01*
X-51181D01*
X-61024Y-36417D02*
X-51181D01*
X-89567Y79724D02*
Y140748D01*
X-102362Y76772D02*
X-92520D01*
X-102362Y70866D02*
X-91992D01*
X-174213Y76772D02*
X-121063D01*
X-83661Y79197D02*
Y140748D01*
X-174213Y70866D02*
X-121063D01*
X105146Y-155512D02*
X107115Y-153543D01*
X-107283Y-153543D02*
X-105315Y-155512D01*
Y-155512D01*
X-100563Y-157480D02*
X-0Y-157480D01*
X-196850Y-0D02*
Y75787D01*
X-239173Y95473D02*
X-216535D01*
X-239173Y-95473D02*
X-216535D01*
X-257874Y114173D02*
Y151575D01*
X-253937Y155512D02*
X-135658D01*
X-119094Y151575D02*
X-112036D01*
X-126153D02*
X-119094D01*
X-102531Y155512D02*
X-0Y155512D01*
X-126153Y-151575D02*
X-119094D01*
X-112036D01*
X-253937Y-155512D02*
X-135658D01*
X-257874Y-151575D02*
Y-114173D01*
X-196850Y-75787D02*
Y-0D01*
X295276Y-76772D02*
Y-0D01*
X289370Y-80709D02*
X291339D01*
X257874Y-151575D02*
Y-112205D01*
X112036Y-151575D02*
X119095D01*
X126153D01*
X-0Y155512D02*
X102531Y155512D01*
X119095Y151575D02*
X126153D01*
X112036D02*
X119095D01*
X135658Y155512D02*
X253937D01*
X257874Y112205D02*
Y151575D01*
X289370Y80709D02*
X291339D01*
X295276Y-0D02*
Y76772D01*
D58*
X-96063Y-122343D02*
D03*
Y-128248D02*
D03*
X-115748D02*
D03*
Y-122343D02*
D03*
D59*
X84449Y-129921D02*
D03*
X102559D02*
D03*
D60*
X-177165Y-77953D02*
D03*
Y-59842D02*
D03*
D61*
X152165Y103740D02*
D03*
X156890Y110827D02*
D03*
Y103740D02*
D03*
X152165Y110827D02*
D03*
X152165Y135433D02*
D03*
X156890Y128347D02*
D03*
Y135433D02*
D03*
X152165Y128347D02*
D03*
D62*
X231299Y4685D02*
D03*
Y10590D02*
D03*
Y-1221D02*
D03*
X225394Y10590D02*
D03*
Y4685D02*
D03*
Y-1221D02*
D03*
X237205Y10590D02*
D03*
Y4685D02*
D03*
Y-1221D02*
D03*
D63*
X262992Y34449D02*
D03*
X257087D02*
D03*
X251181D02*
D03*
X245276D02*
D03*
X239370D02*
D03*
X233465D02*
D03*
X227559D02*
D03*
X221654D02*
D03*
X215748D02*
D03*
X209843D02*
D03*
X203937D02*
D03*
X198032D02*
D03*
X192126D02*
D03*
X186220D02*
D03*
X180315D02*
D03*
X174409D02*
D03*
X262992Y-34449D02*
D03*
X257087D02*
D03*
X251181D02*
D03*
X245276D02*
D03*
X239370D02*
D03*
X233465D02*
D03*
X227559D02*
D03*
X221654D02*
D03*
X215748D02*
D03*
X209843D02*
D03*
X203937D02*
D03*
X198032D02*
D03*
X192126D02*
D03*
X186220D02*
D03*
X180315D02*
D03*
X174409D02*
D03*
D64*
X171457Y26575D02*
D03*
Y20669D02*
D03*
Y14764D02*
D03*
Y8858D02*
D03*
Y2953D02*
D03*
Y-14764D02*
D03*
Y-20669D02*
D03*
Y-26575D02*
D03*
Y-2953D02*
D03*
Y-8858D02*
D03*
D65*
X-91555Y-57303D02*
D03*
Y-62303D02*
D03*
Y-67303D02*
D03*
Y-72303D02*
D03*
Y-77303D02*
D03*
Y-82303D02*
D03*
Y-87303D02*
D03*
Y-92303D02*
D03*
X-58051D02*
D03*
Y-87303D02*
D03*
Y-82303D02*
D03*
Y-77303D02*
D03*
Y-72303D02*
D03*
Y-62303D02*
D03*
Y-57303D02*
D03*
Y-67303D02*
D03*
D66*
X-115295Y-31291D02*
D03*
X-113327D02*
D03*
X-111358D02*
D03*
X-109390D02*
D03*
X-107421D02*
D03*
X-105453D02*
D03*
X-103484D02*
D03*
X-101516D02*
D03*
X-99547D02*
D03*
X-97579D02*
D03*
X-95610D02*
D03*
X-93642D02*
D03*
Y599D02*
D03*
X-95610D02*
D03*
X-97579D02*
D03*
X-99547D02*
D03*
X-101516D02*
D03*
X-103484D02*
D03*
X-105453D02*
D03*
X-107421D02*
D03*
X-109390D02*
D03*
X-111358D02*
D03*
X-113327D02*
D03*
X-115295D02*
D03*
D67*
X-88524Y-26173D02*
D03*
Y-24205D02*
D03*
Y-22236D02*
D03*
Y-20268D02*
D03*
Y-18299D02*
D03*
Y-16331D02*
D03*
Y-14362D02*
D03*
Y-12394D02*
D03*
Y-10425D02*
D03*
Y-8457D02*
D03*
Y-6488D02*
D03*
Y-4520D02*
D03*
X-120413D02*
D03*
Y-6488D02*
D03*
Y-8457D02*
D03*
Y-10425D02*
D03*
Y-12394D02*
D03*
Y-14362D02*
D03*
Y-16331D02*
D03*
Y-18299D02*
D03*
Y-20268D02*
D03*
Y-22236D02*
D03*
Y-24205D02*
D03*
Y-26173D02*
D03*
D68*
X182874Y-93505D02*
D03*
X191142Y-90945D02*
D03*
Y-96063D02*
D03*
Y-93504D02*
D03*
X182874Y-90945D02*
D03*
Y-96063D02*
D03*
X-158465Y108858D02*
D03*
Y103740D02*
D03*
X-166732Y106299D02*
D03*
Y108858D02*
D03*
Y103740D02*
D03*
X-158465Y106300D02*
D03*
X142520Y108858D02*
D03*
Y105709D02*
D03*
X137008Y108858D02*
D03*
Y105709D02*
D03*
X142520Y133465D02*
D03*
Y130315D02*
D03*
X137008Y133465D02*
D03*
Y130315D02*
D03*
X-146457Y-1575D02*
D03*
Y1575D02*
D03*
X-140945Y-1575D02*
D03*
Y1575D02*
D03*
X-140748Y-20669D02*
D03*
Y-23819D02*
D03*
X-146260Y-20669D02*
D03*
Y-23819D02*
D03*
X136024Y-4528D02*
D03*
Y-1378D02*
D03*
X141535Y-4528D02*
D03*
Y-1378D02*
D03*
D69*
X-124999Y-45472D02*
D03*
X-127559Y-37205D02*
D03*
X-122441D02*
D03*
X-125000D02*
D03*
X-127559Y-45472D02*
D03*
X-122441D02*
D03*
X252362Y67716D02*
D03*
X255512D02*
D03*
X252362Y62205D02*
D03*
X255512D02*
D03*
X-107480Y-109744D02*
D03*
X-104331D02*
D03*
X-107480Y-115256D02*
D03*
X-104331D02*
D03*
X184449Y-61221D02*
D03*
X187598D02*
D03*
X184449Y-66732D02*
D03*
X187598D02*
D03*
D70*
X142520Y102264D02*
D03*
Y112303D02*
D03*
X137008Y102264D02*
D03*
Y112303D02*
D03*
X142520Y126870D02*
D03*
Y136909D02*
D03*
X137008Y126870D02*
D03*
Y136909D02*
D03*
X-146457Y5020D02*
D03*
Y-5020D02*
D03*
X-140945Y5020D02*
D03*
Y-5020D02*
D03*
X-140748Y-27264D02*
D03*
Y-17224D02*
D03*
X-146260Y-27264D02*
D03*
Y-17224D02*
D03*
X136024Y2067D02*
D03*
Y-7972D02*
D03*
X141535Y2067D02*
D03*
Y-7972D02*
D03*
D71*
X258957Y67716D02*
D03*
X248917D02*
D03*
X258957Y62205D02*
D03*
X248917D02*
D03*
X-100886Y-109744D02*
D03*
X-110925D02*
D03*
X-100886Y-115256D02*
D03*
X-110925D02*
D03*
X191043Y-61221D02*
D03*
X181004D02*
D03*
X191043Y-66732D02*
D03*
X181004D02*
D03*
D72*
X-18031Y-18032D02*
D03*
Y-9016D02*
D03*
Y-0D02*
D03*
Y9016D02*
D03*
Y18032D02*
D03*
X-9016Y-18032D02*
D03*
Y-9016D02*
D03*
Y-0D02*
D03*
Y9016D02*
D03*
Y18032D02*
D03*
X-0Y-18032D02*
D03*
Y-9016D02*
D03*
Y-0D02*
D03*
Y9016D02*
D03*
Y18032D02*
D03*
X9016Y-18032D02*
D03*
Y-9016D02*
D03*
Y-0D02*
D03*
Y9016D02*
D03*
Y18032D02*
D03*
X18032Y-18032D02*
D03*
Y-9016D02*
D03*
Y-0D02*
D03*
Y9016D02*
D03*
Y18032D02*
D03*
D73*
X67913Y124606D02*
D03*
Y139173D02*
D03*
X44291D02*
D03*
Y124606D02*
D03*
Y100000D02*
D03*
Y114567D02*
D03*
X67913D02*
D03*
Y100000D02*
D03*
D74*
X14811Y-79725D02*
D03*
X8811D02*
D03*
X14811Y-85630D02*
D03*
X8811D02*
D03*
X3984Y-82677D02*
D03*
X-2016D02*
D03*
X14811Y-64961D02*
D03*
X8811D02*
D03*
X3984Y-62008D02*
D03*
X-2016D02*
D03*
X8811Y-59055D02*
D03*
X14811D02*
D03*
X-93457Y11811D02*
D03*
X-99457D02*
D03*
X-109299D02*
D03*
X-103299D02*
D03*
X-93457Y-38386D02*
D03*
X-99457D02*
D03*
Y-43307D02*
D03*
X-93457D02*
D03*
X-59008Y145669D02*
D03*
X-65008D02*
D03*
X-116094Y62992D02*
D03*
X-122094D02*
D03*
X-112157Y-92520D02*
D03*
X-118157D02*
D03*
X-107331D02*
D03*
X-101331D02*
D03*
X-107331Y-81693D02*
D03*
X-101331D02*
D03*
X-112157Y-87599D02*
D03*
X-118157D02*
D03*
Y-81693D02*
D03*
X-112157D02*
D03*
Y-67913D02*
D03*
X-118157D02*
D03*
X-112157Y-62992D02*
D03*
X-118157D02*
D03*
X-112157Y-58071D02*
D03*
X-118157D02*
D03*
X-112157Y-53150D02*
D03*
X-118157D02*
D03*
D75*
X257087Y-47488D02*
D03*
Y-41488D02*
D03*
X7874Y30465D02*
D03*
Y36465D02*
D03*
X250767Y51146D02*
D03*
Y45146D02*
D03*
X256890Y51228D02*
D03*
Y45228D02*
D03*
X-113189Y24654D02*
D03*
Y18654D02*
D03*
X-94488D02*
D03*
Y24654D02*
D03*
X201772Y-60976D02*
D03*
Y-66976D02*
D03*
X196850D02*
D03*
Y-60976D02*
D03*
X-187008Y128984D02*
D03*
Y122984D02*
D03*
X-180118Y128984D02*
D03*
Y122984D02*
D03*
X-187008Y111173D02*
D03*
Y117173D02*
D03*
X-112205Y137843D02*
D03*
Y131843D02*
D03*
Y121016D02*
D03*
Y127016D02*
D03*
X-148622Y109299D02*
D03*
Y103299D02*
D03*
X118110Y-3000D02*
D03*
Y3000D02*
D03*
X123032Y-3000D02*
D03*
Y3000D02*
D03*
X127953Y-3000D02*
D03*
Y3000D02*
D03*
X-68898Y-11858D02*
D03*
Y-5858D02*
D03*
X-73819Y-11858D02*
D03*
Y-5858D02*
D03*
X-78740Y-11858D02*
D03*
Y-5858D02*
D03*
Y-21701D02*
D03*
Y-15701D02*
D03*
X-73819D02*
D03*
Y-21701D02*
D03*
X-78740Y-25543D02*
D03*
Y-31543D02*
D03*
X-19685Y-67961D02*
D03*
Y-61961D02*
D03*
X-24606Y-71803D02*
D03*
Y-77803D02*
D03*
X-19685Y-71803D02*
D03*
Y-77803D02*
D03*
X-14764Y-71803D02*
D03*
Y-77803D02*
D03*
X-9843Y-71803D02*
D03*
Y-77803D02*
D03*
X32480Y-10622D02*
D03*
Y-16622D02*
D03*
D76*
X-96457Y85630D02*
D03*
X-76772D02*
D03*
X-64961Y-106693D02*
D03*
X-84646D02*
D03*
D77*
X17717Y37465D02*
D03*
Y29465D02*
D03*
D78*
X-1969Y37465D02*
D03*
Y29465D02*
D03*
X-15748Y37465D02*
D03*
Y29465D02*
D03*
X-29528Y37465D02*
D03*
Y29465D02*
D03*
D79*
X-177165Y-108721D02*
D03*
Y-88130D02*
D03*
D80*
X-63000Y-5800D02*
D03*
X-125000Y108268D02*
D03*
X-125000Y96457D02*
D03*
X78740Y1969D02*
D03*
X78740Y-4921D02*
D03*
X150591Y-26575D02*
D03*
Y41339D02*
D03*
Y34449D02*
D03*
Y27559D02*
D03*
Y20669D02*
D03*
Y13780D02*
D03*
Y48228D02*
D03*
X78740Y13780D02*
D03*
X78740Y20669D02*
D03*
X78740Y27559D02*
D03*
X78740Y34449D02*
D03*
X78740Y41339D02*
D03*
X78740Y48228D02*
D03*
D81*
X-100689Y24754D02*
D03*
X-107972Y18553D02*
D03*
Y24754D02*
D03*
X-100689Y18553D02*
D03*
D82*
X126079Y-129921D02*
D03*
X114079D02*
D03*
D83*
X230000Y-72835D02*
D03*
Y-56299D02*
D03*
X235000Y-72835D02*
D03*
Y-56299D02*
D03*
X240000Y-72835D02*
D03*
Y-56299D02*
D03*
X245000Y-72835D02*
D03*
Y-56299D02*
D03*
X250000Y-72835D02*
D03*
Y-56299D02*
D03*
D84*
X-152461Y128937D02*
D03*
X-170374D02*
D03*
Y119095D02*
D03*
X-152461D02*
D03*
D85*
X-69819Y146653D02*
D03*
X-77819D02*
D03*
X-101315Y85630D02*
D03*
X-109315D02*
D03*
D86*
X-67677Y136142D02*
D03*
X-77677D02*
D03*
X-97677D02*
D03*
Y96142D02*
D03*
X-67677D02*
D03*
D87*
X-120276Y121516D02*
D03*
Y131516D02*
D03*
X-141535Y116516D02*
D03*
Y121516D02*
D03*
Y126516D02*
D03*
X-120276Y116516D02*
D03*
Y126516D02*
D03*
X-141535Y131516D02*
D03*
D88*
X-132343Y84449D02*
D03*
X-142343D02*
D03*
X-127343Y63189D02*
D03*
X-132343D02*
D03*
X-137343D02*
D03*
X-127343Y84449D02*
D03*
X-137343D02*
D03*
X-142343Y63189D02*
D03*
D89*
X106299Y2953D02*
D03*
Y-2953D02*
D03*
X112205D02*
D03*
Y2953D02*
D03*
D90*
X106299Y984D02*
D03*
Y-984D02*
D03*
X112205D02*
D03*
Y984D02*
D03*
D91*
X108268Y-2953D02*
D03*
X110236D02*
D03*
Y2953D02*
D03*
X108268D02*
D03*
D92*
X-147638Y-37170D02*
D03*
Y-41570D02*
D03*
X-139764Y-37170D02*
D03*
Y-41570D02*
D03*
X-155512Y-37170D02*
D03*
Y-41570D02*
D03*
D93*
X234252Y4685D02*
D03*
Y10590D02*
D03*
Y-1221D02*
D03*
X228346Y10590D02*
D03*
Y4685D02*
D03*
Y-1221D02*
D03*
X237205Y7638D02*
D03*
Y1732D02*
D03*
X231299Y7638D02*
D03*
Y1732D02*
D03*
X225394Y7638D02*
D03*
Y1732D02*
D03*
D94*
X182087Y-123071D02*
D03*
Y-115197D02*
D03*
X191929Y-123071D02*
D03*
Y-115197D02*
D03*
D95*
X202756Y-140748D02*
D03*
X171260D02*
D03*
D96*
X-239173Y114173D02*
D03*
X-0D02*
D03*
X-239173Y-114173D02*
D03*
X239173D02*
D03*
Y114173D02*
D03*
D97*
X-170197Y-120197D02*
D03*
X-184134D02*
D03*
X-184155Y-134230D02*
D03*
X-170218Y-134168D02*
D03*
X-177165Y-127165D02*
D03*
X-25965Y-118032D02*
D03*
D98*
X-206693Y-127165D02*
D03*
Y-142913D02*
D03*
X-147638Y-127165D02*
D03*
Y-142913D02*
D03*
X-20000Y-151339D02*
D03*
X20000Y-116319D02*
D03*
X-195039Y148622D02*
D03*
Y101378D02*
D03*
D99*
X251969Y-149606D02*
D03*
Y149606D02*
D03*
X-251969Y149606D02*
D03*
D100*
X-35138Y-87323D02*
D03*
Y-77323D02*
D03*
Y-67323D02*
D03*
Y-57323D02*
D03*
X35138D02*
D03*
Y-67323D02*
D03*
Y-77323D02*
D03*
Y-87323D02*
D03*
X-202756Y125000D02*
D03*
Y113189D02*
D03*
D101*
Y136811D02*
D03*
D102*
X-184213Y143701D02*
D03*
D103*
X-174213D02*
D03*
M02*
