G04*
G04 #@! TF.GenerationSoftware,Altium Limited,Altium Designer,21.2.0 (30)*
G04*
G04 Layer_Color=128*
%FSLAX25Y25*%
%MOIN*%
G70*
G04*
G04 #@! TF.SameCoordinates,586DA71B-A414-44C7-A424-215A95C81ED1*
G04*
G04*
G04 #@! TF.FilePolarity,Positive*
G04*
G01*
G75*
%ADD10C,0.01000*%
D10*
X129936Y-152740D02*
G03*
X126153Y-151575I-3782J-5556D01*
G01*
X246897Y-154837D02*
G03*
X249831Y-155512I2934J6047D01*
G01*
X246897Y-154837D02*
G03*
X243963Y-154163I-2934J-6047D01*
G01*
X49213Y-154528D02*
G03*
X52165Y-157480I2953J0D01*
G01*
X49213Y-128937D02*
G03*
X46260Y-125984I-2953J0D01*
G01*
X24606D02*
G03*
X21654Y-128937I0J-2953D01*
G01*
X18701Y-157480D02*
G03*
X21654Y-154528I0J2953D01*
G01*
X-33465Y-30512D02*
G03*
X-33465Y-36417I0J-2953D01*
G01*
X15748D02*
G03*
X15748Y-30512I0J2953D01*
G01*
X54279Y-109252D02*
G03*
X60185Y-109252I2953J0D01*
G01*
X33465Y-30512D02*
G03*
X33465Y-36417I0J-2953D01*
G01*
X47532Y-38168D02*
G03*
X43307Y-36417I-4225J-4225D01*
G01*
X51764Y-34047D02*
G03*
X43228Y-30512I-8535J-8535D01*
G01*
X60200Y-47484D02*
G03*
X56665Y-38948I-12071J0D01*
G01*
X54295Y-47405D02*
G03*
X52544Y-43180I-5976J0D01*
G01*
X-70261D02*
G03*
X-72011Y-47405I4225J-4225D01*
G01*
X-74381Y-38948D02*
G03*
X-77917Y-47484I8535J-8535D01*
G01*
X-60945Y-30512D02*
G03*
X-69480Y-34047I0J-12071D01*
G01*
X-61024Y-36417D02*
G03*
X-65249Y-38168I0J-5976D01*
G01*
X-51181Y-36417D02*
G03*
X-51181Y-30512I0J2953D01*
G01*
X-77901Y-124016D02*
G03*
X-71996Y-124016I2953J0D01*
G01*
X-92520Y76772D02*
G03*
X-89567Y79724I0J2953D01*
G01*
X-102362Y76772D02*
G03*
X-102362Y70866I0J-2953D01*
G01*
X-91992Y70866D02*
G03*
X-83661Y79197I0J8331D01*
G01*
Y140748D02*
G03*
X-89567Y140748I-2953J0D01*
G01*
X-121063Y70866D02*
G03*
X-121063Y76772I0J2953D01*
G01*
X-174213D02*
G03*
X-174213Y70866I0J-2953D01*
G01*
X111867Y-151575D02*
G03*
X107115Y-153543I0J-6721D01*
G01*
X100394Y-157480D02*
G03*
X105146Y-155512I0J6721D01*
G01*
X-257874Y114173D02*
G03*
X-239173Y95472I18701J0D01*
G01*
X-196850Y75787D02*
G03*
X-216535Y95472I-19685J0D01*
G01*
Y-95472D02*
G03*
X-196850Y-75787I0J19685D01*
G01*
X-253937Y155512D02*
G03*
X-257874Y151575I0J-3937D01*
G01*
X-130905Y153543D02*
G03*
X-135658Y155512I-4752J-4752D01*
G01*
X-130905Y153543D02*
G03*
X-126153Y151575I4752J4752D01*
G01*
X-102531Y155512D02*
G03*
X-107283Y153543I0J-6721D01*
G01*
X-112036Y151575D02*
G03*
X-107283Y153543I0J6721D01*
G01*
Y-153543D02*
G03*
X-112036Y-151575I-4752J-4752D01*
G01*
X-105315Y-155512D02*
G03*
X-100563Y-157480I4752J4752D01*
G01*
X-126153Y-151575D02*
G03*
X-130905Y-153543I0J-6721D01*
G01*
X-135658Y-155512D02*
G03*
X-130905Y-153543I0J6721D01*
G01*
X-257874Y-151575D02*
G03*
X-253937Y-155512I3937J0D01*
G01*
X-239173Y-95472D02*
G03*
X-257874Y-114173I0J-18701D01*
G01*
X289370Y-80709D02*
G03*
X257874Y-112205I0J-31496D01*
G01*
X291339Y-80709D02*
G03*
X295276Y-76772I0J3937D01*
G01*
X253937Y-155512D02*
G03*
X257874Y-151575I0J3937D01*
G01*
X130273Y-152969D02*
G03*
X134055Y-154134I3782J5556D01*
G01*
X107283Y153543D02*
G03*
X112036Y151575I4752J4752D01*
G01*
X107283Y153543D02*
G03*
X102531Y155512I-4752J-4752D01*
G01*
X126153Y151575D02*
G03*
X130905Y153543I0J6721D01*
G01*
X135658Y155512D02*
G03*
X130905Y153543I0J-6721D01*
G01*
X257874Y151575D02*
G03*
X253937Y155512I-3937J0D01*
G01*
X295276Y76772D02*
G03*
X291339Y80709I-3937J0D01*
G01*
X257874Y112205D02*
G03*
X289370Y80709I31496J0D01*
G01*
X134055Y-154134D02*
X187008D01*
X129936Y-152740D02*
X130273Y-152969D01*
X249831Y-155512D02*
X253937D01*
X187008Y-154163D02*
X243963D01*
X52165Y-157480D02*
X100394D01*
X49213Y-154528D02*
Y-128937D01*
X24606Y-125984D02*
X46260D01*
X21654Y-154528D02*
Y-128937D01*
X-0Y-157480D02*
X18701D01*
X-33465Y-36417D02*
X15748D01*
X-33465Y-30512D02*
X15748D01*
X33465Y-36417D02*
X43307D01*
X33465Y-30512D02*
X43228D01*
X43228D01*
X60185Y-109252D02*
Y-47484D01*
X54279Y-109252D02*
Y-47405D01*
X47532Y-38168D02*
X52544Y-43180D01*
X51764Y-34047D02*
X56665Y-38948D01*
X-74381D02*
X-69480Y-34047D01*
X-70261Y-43180D02*
X-65249Y-38168D01*
X-71996Y-124016D02*
Y-47405D01*
X-77901Y-124016D02*
Y-47484D01*
X-60945Y-30512D02*
X-60945D01*
X-51181D01*
X-61024Y-36417D02*
X-51181D01*
X-89567Y79724D02*
Y140748D01*
X-102362Y76772D02*
X-92520D01*
X-102362Y70866D02*
X-91992D01*
X-174213Y76772D02*
X-121063D01*
X-83661Y79197D02*
Y140748D01*
X-174213Y70866D02*
X-121063D01*
X105146Y-155512D02*
X107115Y-153543D01*
X-107283Y-153543D02*
X-105315Y-155512D01*
Y-155512D01*
X-100563Y-157480D02*
X-0Y-157480D01*
X-196850Y-0D02*
Y75787D01*
X-239173Y95473D02*
X-216535D01*
X-239173Y-95473D02*
X-216535D01*
X-257874Y114173D02*
Y151575D01*
X-253937Y155512D02*
X-135658D01*
X-119094Y151575D02*
X-112036D01*
X-126153D02*
X-119094D01*
X-102531Y155512D02*
X-0Y155512D01*
X-126153Y-151575D02*
X-119094D01*
X-112036D01*
X-253937Y-155512D02*
X-135658D01*
X-257874Y-151575D02*
Y-114173D01*
X-196850Y-75787D02*
Y-0D01*
X295276Y-76772D02*
Y-0D01*
X289370Y-80709D02*
X291339D01*
X257874Y-151575D02*
Y-112205D01*
X112036Y-151575D02*
X119095D01*
X126153D01*
X-0Y155512D02*
X102531Y155512D01*
X119095Y151575D02*
X126153D01*
X112036D02*
X119095D01*
X135658Y155512D02*
X253937D01*
X257874Y112205D02*
Y151575D01*
X289370Y80709D02*
X291339D01*
X295276Y-0D02*
Y76772D01*
M02*
