G04*
G04 #@! TF.GenerationSoftware,Altium Limited,Altium Designer,21.2.0 (30)*
G04*
G04 Layer_Color=8421504*
%FSLAX25Y25*%
%MOIN*%
G70*
G04*
G04 #@! TF.SameCoordinates,586DA71B-A414-44C7-A424-215A95C81ED1*
G04*
G04*
G04 #@! TF.FilePolarity,Positive*
G04*
G01*
G75*
%ADD10C,0.01000*%
%ADD23R,0.03150X0.03150*%
%ADD24R,0.07874X0.07087*%
%ADD25R,0.07087X0.07874*%
%ADD26R,0.03150X0.03543*%
%ADD27R,0.04331X0.04331*%
%ADD28R,0.03543X0.05906*%
%ADD29R,0.05906X0.03543*%
%ADD30R,0.06496X0.02992*%
%ADD31R,0.01378X0.05512*%
%ADD32R,0.05512X0.01378*%
%ADD33R,0.03150X0.01968*%
%ADD34R,0.01968X0.03150*%
%ADD35R,0.03150X0.02559*%
%ADD36R,0.02559X0.03150*%
%ADD37R,0.04173X0.04173*%
%ADD38R,0.03937X0.02756*%
%ADD39R,0.02500X0.03500*%
%ADD40R,0.03500X0.02500*%
%ADD41R,0.04134X0.09055*%
%ADD42R,0.06500X0.03500*%
%ADD43R,0.06500X0.04500*%
%ADD44R,0.12402X0.07008*%
%ADD45C,0.03937*%
%ADD46R,0.03937X0.03543*%
%ADD47R,0.04000X0.07000*%
%ADD48R,0.03150X0.11811*%
%ADD49R,0.05315X0.03543*%
%ADD50R,0.03500X0.06500*%
%ADD51R,0.05000X0.10000*%
%ADD52O,0.08661X0.02362*%
%ADD53O,0.02362X0.08661*%
%ADD54R,0.01083X0.01083*%
%ADD55R,0.01083X0.00984*%
%ADD56R,0.00984X0.01083*%
%ADD57R,0.03543X0.03543*%
D10*
X129936Y-152740D02*
G03*
X126153Y-151575I-3782J-5556D01*
G01*
X246897Y-154837D02*
G03*
X249831Y-155512I2934J6047D01*
G01*
X246897Y-154837D02*
G03*
X243963Y-154163I-2934J-6047D01*
G01*
X49213Y-154528D02*
G03*
X52165Y-157480I2953J0D01*
G01*
X49213Y-128937D02*
G03*
X46260Y-125984I-2953J0D01*
G01*
X24606D02*
G03*
X21654Y-128937I0J-2953D01*
G01*
X18701Y-157480D02*
G03*
X21654Y-154528I0J2953D01*
G01*
X-33465Y-30512D02*
G03*
X-33465Y-36417I0J-2953D01*
G01*
X15748D02*
G03*
X15748Y-30512I0J2953D01*
G01*
X54279Y-109252D02*
G03*
X60185Y-109252I2953J0D01*
G01*
X33465Y-30512D02*
G03*
X33465Y-36417I0J-2953D01*
G01*
X47532Y-38168D02*
G03*
X43307Y-36417I-4225J-4225D01*
G01*
X51764Y-34047D02*
G03*
X43228Y-30512I-8535J-8535D01*
G01*
X60200Y-47484D02*
G03*
X56665Y-38948I-12071J0D01*
G01*
X54295Y-47405D02*
G03*
X52544Y-43180I-5976J0D01*
G01*
X-70261D02*
G03*
X-72011Y-47405I4225J-4225D01*
G01*
X-74381Y-38948D02*
G03*
X-77917Y-47484I8535J-8535D01*
G01*
X-60945Y-30512D02*
G03*
X-69480Y-34047I0J-12071D01*
G01*
X-61024Y-36417D02*
G03*
X-65249Y-38168I0J-5976D01*
G01*
X-51181Y-36417D02*
G03*
X-51181Y-30512I0J2953D01*
G01*
X-77901Y-124016D02*
G03*
X-71996Y-124016I2953J0D01*
G01*
X-92520Y76772D02*
G03*
X-89567Y79724I0J2953D01*
G01*
X-102362Y76772D02*
G03*
X-102362Y70866I0J-2953D01*
G01*
X-91992Y70866D02*
G03*
X-83661Y79197I0J8331D01*
G01*
Y140748D02*
G03*
X-89567Y140748I-2953J0D01*
G01*
X-121063Y70866D02*
G03*
X-121063Y76772I0J2953D01*
G01*
X-174213D02*
G03*
X-174213Y70866I0J-2953D01*
G01*
X111867Y-151575D02*
G03*
X107115Y-153543I0J-6721D01*
G01*
X100394Y-157480D02*
G03*
X105146Y-155512I0J6721D01*
G01*
X-257874Y114173D02*
G03*
X-239173Y95472I18701J0D01*
G01*
X-196850Y75787D02*
G03*
X-216535Y95472I-19685J0D01*
G01*
Y-95472D02*
G03*
X-196850Y-75787I0J19685D01*
G01*
X-253937Y155512D02*
G03*
X-257874Y151575I0J-3937D01*
G01*
X-130905Y153543D02*
G03*
X-135658Y155512I-4752J-4752D01*
G01*
X-130905Y153543D02*
G03*
X-126153Y151575I4752J4752D01*
G01*
X-102531Y155512D02*
G03*
X-107283Y153543I0J-6721D01*
G01*
X-112036Y151575D02*
G03*
X-107283Y153543I0J6721D01*
G01*
Y-153543D02*
G03*
X-112036Y-151575I-4752J-4752D01*
G01*
X-105315Y-155512D02*
G03*
X-100563Y-157480I4752J4752D01*
G01*
X-126153Y-151575D02*
G03*
X-130905Y-153543I0J-6721D01*
G01*
X-135658Y-155512D02*
G03*
X-130905Y-153543I0J6721D01*
G01*
X-257874Y-151575D02*
G03*
X-253937Y-155512I3937J0D01*
G01*
X-239173Y-95472D02*
G03*
X-257874Y-114173I0J-18701D01*
G01*
X289370Y-80709D02*
G03*
X257874Y-112205I0J-31496D01*
G01*
X291339Y-80709D02*
G03*
X295276Y-76772I0J3937D01*
G01*
X253937Y-155512D02*
G03*
X257874Y-151575I0J3937D01*
G01*
X130273Y-152969D02*
G03*
X134055Y-154134I3782J5556D01*
G01*
X107283Y153543D02*
G03*
X112036Y151575I4752J4752D01*
G01*
X107283Y153543D02*
G03*
X102531Y155512I-4752J-4752D01*
G01*
X126153Y151575D02*
G03*
X130905Y153543I0J6721D01*
G01*
X135658Y155512D02*
G03*
X130905Y153543I0J-6721D01*
G01*
X257874Y151575D02*
G03*
X253937Y155512I-3937J0D01*
G01*
X295276Y76772D02*
G03*
X291339Y80709I-3937J0D01*
G01*
X257874Y112205D02*
G03*
X289370Y80709I31496J0D01*
G01*
X134055Y-154134D02*
X187008D01*
X129936Y-152740D02*
X130273Y-152969D01*
X249831Y-155512D02*
X253937D01*
X187008Y-154163D02*
X243963D01*
X52165Y-157480D02*
X100394D01*
X49213Y-154528D02*
Y-128937D01*
X24606Y-125984D02*
X46260D01*
X21654Y-154528D02*
Y-128937D01*
X-0Y-157480D02*
X18701D01*
X-33465Y-36417D02*
X15748D01*
X-33465Y-30512D02*
X15748D01*
X33465Y-36417D02*
X43307D01*
X33465Y-30512D02*
X43228D01*
X43228D01*
X60185Y-109252D02*
Y-47484D01*
X54279Y-109252D02*
Y-47405D01*
X47532Y-38168D02*
X52544Y-43180D01*
X51764Y-34047D02*
X56665Y-38948D01*
X-74381D02*
X-69480Y-34047D01*
X-70261Y-43180D02*
X-65249Y-38168D01*
X-71996Y-124016D02*
Y-47405D01*
X-77901Y-124016D02*
Y-47484D01*
X-60945Y-30512D02*
X-60945D01*
X-51181D01*
X-61024Y-36417D02*
X-51181D01*
X-89567Y79724D02*
Y140748D01*
X-102362Y76772D02*
X-92520D01*
X-102362Y70866D02*
X-91992D01*
X-174213Y76772D02*
X-121063D01*
X-83661Y79197D02*
Y140748D01*
X-174213Y70866D02*
X-121063D01*
X105146Y-155512D02*
X107115Y-153543D01*
X-107283Y-153543D02*
X-105315Y-155512D01*
Y-155512D01*
X-100563Y-157480D02*
X-0Y-157480D01*
X-196850Y-0D02*
Y75787D01*
X-239173Y95473D02*
X-216535D01*
X-239173Y-95473D02*
X-216535D01*
X-257874Y114173D02*
Y151575D01*
X-253937Y155512D02*
X-135658D01*
X-119094Y151575D02*
X-112036D01*
X-126153D02*
X-119094D01*
X-102531Y155512D02*
X-0Y155512D01*
X-126153Y-151575D02*
X-119094D01*
X-112036D01*
X-253937Y-155512D02*
X-135658D01*
X-257874Y-151575D02*
Y-114173D01*
X-196850Y-75787D02*
Y-0D01*
X295276Y-76772D02*
Y-0D01*
X289370Y-80709D02*
X291339D01*
X257874Y-151575D02*
Y-112205D01*
X112036Y-151575D02*
X119095D01*
X126153D01*
X-0Y155512D02*
X102531Y155512D01*
X119095Y151575D02*
X126153D01*
X112036D02*
X119095D01*
X135658Y155512D02*
X253937D01*
X257874Y112205D02*
Y151575D01*
X289370Y80709D02*
X291339D01*
X295276Y-0D02*
Y76772D01*
D23*
X-96063Y-122343D02*
D03*
Y-128248D02*
D03*
X-115748D02*
D03*
Y-122343D02*
D03*
D24*
X84449Y-129921D02*
D03*
X102559D02*
D03*
D25*
X-177165Y-77953D02*
D03*
Y-59842D02*
D03*
D26*
X152165Y103740D02*
D03*
X156890Y110827D02*
D03*
Y103740D02*
D03*
X152165Y110827D02*
D03*
X152165Y135433D02*
D03*
X156890Y128347D02*
D03*
Y135433D02*
D03*
X152165Y128347D02*
D03*
D27*
X231299Y4685D02*
D03*
Y10590D02*
D03*
Y-1221D02*
D03*
X225394Y10590D02*
D03*
Y4685D02*
D03*
Y-1221D02*
D03*
X237205Y10590D02*
D03*
Y4685D02*
D03*
Y-1221D02*
D03*
D28*
X262992Y34449D02*
D03*
X257087D02*
D03*
X251181D02*
D03*
X245276D02*
D03*
X239370D02*
D03*
X233465D02*
D03*
X227559D02*
D03*
X221654D02*
D03*
X215748D02*
D03*
X209843D02*
D03*
X203937D02*
D03*
X198032D02*
D03*
X192126D02*
D03*
X186220D02*
D03*
X180315D02*
D03*
X174409D02*
D03*
X262992Y-34449D02*
D03*
X257087D02*
D03*
X251181D02*
D03*
X245276D02*
D03*
X239370D02*
D03*
X233465D02*
D03*
X227559D02*
D03*
X221654D02*
D03*
X215748D02*
D03*
X209843D02*
D03*
X203937D02*
D03*
X198032D02*
D03*
X192126D02*
D03*
X186220D02*
D03*
X180315D02*
D03*
X174409D02*
D03*
D29*
X171457Y26575D02*
D03*
Y20669D02*
D03*
Y14764D02*
D03*
Y8858D02*
D03*
Y2953D02*
D03*
Y-14764D02*
D03*
Y-20669D02*
D03*
Y-26575D02*
D03*
Y-2953D02*
D03*
Y-8858D02*
D03*
D30*
X-91555Y-57303D02*
D03*
Y-62303D02*
D03*
Y-67303D02*
D03*
Y-72303D02*
D03*
Y-77303D02*
D03*
Y-82303D02*
D03*
Y-87303D02*
D03*
Y-92303D02*
D03*
X-58051D02*
D03*
Y-87303D02*
D03*
Y-82303D02*
D03*
Y-77303D02*
D03*
Y-72303D02*
D03*
Y-62303D02*
D03*
Y-57303D02*
D03*
Y-67303D02*
D03*
D31*
X-115295Y-31291D02*
D03*
X-113327D02*
D03*
X-111358D02*
D03*
X-109390D02*
D03*
X-107421D02*
D03*
X-105453D02*
D03*
X-103484D02*
D03*
X-101516D02*
D03*
X-99547D02*
D03*
X-97579D02*
D03*
X-95610D02*
D03*
X-93642D02*
D03*
Y599D02*
D03*
X-95610D02*
D03*
X-97579D02*
D03*
X-99547D02*
D03*
X-101516D02*
D03*
X-103484D02*
D03*
X-105453D02*
D03*
X-107421D02*
D03*
X-109390D02*
D03*
X-111358D02*
D03*
X-113327D02*
D03*
X-115295D02*
D03*
D32*
X-88524Y-26173D02*
D03*
Y-24205D02*
D03*
Y-22236D02*
D03*
Y-20268D02*
D03*
Y-18299D02*
D03*
Y-16331D02*
D03*
Y-14362D02*
D03*
Y-12394D02*
D03*
Y-10425D02*
D03*
Y-8457D02*
D03*
Y-6488D02*
D03*
Y-4520D02*
D03*
X-120413D02*
D03*
Y-6488D02*
D03*
Y-8457D02*
D03*
Y-10425D02*
D03*
Y-12394D02*
D03*
Y-14362D02*
D03*
Y-16331D02*
D03*
Y-18299D02*
D03*
Y-20268D02*
D03*
Y-22236D02*
D03*
Y-24205D02*
D03*
Y-26173D02*
D03*
D33*
X182874Y-93505D02*
D03*
X191142Y-90945D02*
D03*
Y-96063D02*
D03*
Y-93504D02*
D03*
X182874Y-90945D02*
D03*
Y-96063D02*
D03*
X-158465Y108858D02*
D03*
Y103740D02*
D03*
X-166732Y106299D02*
D03*
Y108858D02*
D03*
Y103740D02*
D03*
X-158465Y106300D02*
D03*
X142520Y108858D02*
D03*
Y105709D02*
D03*
X137008Y108858D02*
D03*
Y105709D02*
D03*
X142520Y133465D02*
D03*
Y130315D02*
D03*
X137008Y133465D02*
D03*
Y130315D02*
D03*
X-146457Y-1575D02*
D03*
Y1575D02*
D03*
X-140945Y-1575D02*
D03*
Y1575D02*
D03*
X-140748Y-20669D02*
D03*
Y-23819D02*
D03*
X-146260Y-20669D02*
D03*
Y-23819D02*
D03*
X136024Y-4528D02*
D03*
Y-1378D02*
D03*
X141535Y-4528D02*
D03*
Y-1378D02*
D03*
D34*
X-124999Y-45472D02*
D03*
X-127559Y-37205D02*
D03*
X-122441D02*
D03*
X-125000D02*
D03*
X-127559Y-45472D02*
D03*
X-122441D02*
D03*
X252362Y67716D02*
D03*
X255512D02*
D03*
X252362Y62205D02*
D03*
X255512D02*
D03*
X-107480Y-109744D02*
D03*
X-104331D02*
D03*
X-107480Y-115256D02*
D03*
X-104331D02*
D03*
X184449Y-61221D02*
D03*
X187598D02*
D03*
X184449Y-66732D02*
D03*
X187598D02*
D03*
D35*
X142520Y102264D02*
D03*
Y112303D02*
D03*
X137008Y102264D02*
D03*
Y112303D02*
D03*
X142520Y126870D02*
D03*
Y136909D02*
D03*
X137008Y126870D02*
D03*
Y136909D02*
D03*
X-146457Y5020D02*
D03*
Y-5020D02*
D03*
X-140945Y5020D02*
D03*
Y-5020D02*
D03*
X-140748Y-27264D02*
D03*
Y-17224D02*
D03*
X-146260Y-27264D02*
D03*
Y-17224D02*
D03*
X136024Y2067D02*
D03*
Y-7972D02*
D03*
X141535Y2067D02*
D03*
Y-7972D02*
D03*
D36*
X258957Y67716D02*
D03*
X248917D02*
D03*
X258957Y62205D02*
D03*
X248917D02*
D03*
X-100886Y-109744D02*
D03*
X-110925D02*
D03*
X-100886Y-115256D02*
D03*
X-110925D02*
D03*
X191043Y-61221D02*
D03*
X181004D02*
D03*
X191043Y-66732D02*
D03*
X181004D02*
D03*
D37*
X-18031Y-18032D02*
D03*
Y-9016D02*
D03*
Y-0D02*
D03*
Y9016D02*
D03*
Y18032D02*
D03*
X-9016Y-18032D02*
D03*
Y-9016D02*
D03*
Y-0D02*
D03*
Y9016D02*
D03*
Y18032D02*
D03*
X-0Y-18032D02*
D03*
Y-9016D02*
D03*
Y-0D02*
D03*
Y9016D02*
D03*
Y18032D02*
D03*
X9016Y-18032D02*
D03*
Y-9016D02*
D03*
Y-0D02*
D03*
Y9016D02*
D03*
Y18032D02*
D03*
X18032Y-18032D02*
D03*
Y-9016D02*
D03*
Y-0D02*
D03*
Y9016D02*
D03*
Y18032D02*
D03*
D38*
X67913Y124606D02*
D03*
Y139173D02*
D03*
X44291D02*
D03*
Y124606D02*
D03*
Y100000D02*
D03*
Y114567D02*
D03*
X67913D02*
D03*
Y100000D02*
D03*
D39*
X14811Y-79725D02*
D03*
X8811D02*
D03*
X14811Y-85630D02*
D03*
X8811D02*
D03*
X3984Y-82677D02*
D03*
X-2016D02*
D03*
X14811Y-64961D02*
D03*
X8811D02*
D03*
X3984Y-62008D02*
D03*
X-2016D02*
D03*
X8811Y-59055D02*
D03*
X14811D02*
D03*
X-93457Y11811D02*
D03*
X-99457D02*
D03*
X-109299D02*
D03*
X-103299D02*
D03*
X-93457Y-38386D02*
D03*
X-99457D02*
D03*
Y-43307D02*
D03*
X-93457D02*
D03*
X-59008Y145669D02*
D03*
X-65008D02*
D03*
X-116094Y62992D02*
D03*
X-122094D02*
D03*
X-112157Y-92520D02*
D03*
X-118157D02*
D03*
X-107331D02*
D03*
X-101331D02*
D03*
X-107331Y-81693D02*
D03*
X-101331D02*
D03*
X-112157Y-87599D02*
D03*
X-118157D02*
D03*
Y-81693D02*
D03*
X-112157D02*
D03*
Y-67913D02*
D03*
X-118157D02*
D03*
X-112157Y-62992D02*
D03*
X-118157D02*
D03*
X-112157Y-58071D02*
D03*
X-118157D02*
D03*
X-112157Y-53150D02*
D03*
X-118157D02*
D03*
D40*
X257087Y-47488D02*
D03*
Y-41488D02*
D03*
X7874Y30465D02*
D03*
Y36465D02*
D03*
X250767Y51146D02*
D03*
Y45146D02*
D03*
X256890Y51228D02*
D03*
Y45228D02*
D03*
X-113189Y24654D02*
D03*
Y18654D02*
D03*
X-94488D02*
D03*
Y24654D02*
D03*
X201772Y-60976D02*
D03*
Y-66976D02*
D03*
X196850D02*
D03*
Y-60976D02*
D03*
X-187008Y128984D02*
D03*
Y122984D02*
D03*
X-180118Y128984D02*
D03*
Y122984D02*
D03*
X-187008Y111173D02*
D03*
Y117173D02*
D03*
X-112205Y137843D02*
D03*
Y131843D02*
D03*
Y121016D02*
D03*
Y127016D02*
D03*
X-148622Y109299D02*
D03*
Y103299D02*
D03*
X118110Y-3000D02*
D03*
Y3000D02*
D03*
X123032Y-3000D02*
D03*
Y3000D02*
D03*
X127953Y-3000D02*
D03*
Y3000D02*
D03*
X-68898Y-11858D02*
D03*
Y-5858D02*
D03*
X-73819Y-11858D02*
D03*
Y-5858D02*
D03*
X-78740Y-11858D02*
D03*
Y-5858D02*
D03*
Y-21701D02*
D03*
Y-15701D02*
D03*
X-73819D02*
D03*
Y-21701D02*
D03*
X-78740Y-25543D02*
D03*
Y-31543D02*
D03*
X-19685Y-67961D02*
D03*
Y-61961D02*
D03*
X-24606Y-71803D02*
D03*
Y-77803D02*
D03*
X-19685Y-71803D02*
D03*
Y-77803D02*
D03*
X-14764Y-71803D02*
D03*
Y-77803D02*
D03*
X-9843Y-71803D02*
D03*
Y-77803D02*
D03*
X32480Y-10622D02*
D03*
Y-16622D02*
D03*
D41*
X-96457Y85630D02*
D03*
X-76772D02*
D03*
X-64961Y-106693D02*
D03*
X-84646D02*
D03*
D42*
X17717Y37465D02*
D03*
Y29465D02*
D03*
D43*
X-1969Y37465D02*
D03*
Y29465D02*
D03*
X-15748Y37465D02*
D03*
Y29465D02*
D03*
X-29528Y37465D02*
D03*
Y29465D02*
D03*
D44*
X-177165Y-108721D02*
D03*
Y-88130D02*
D03*
D45*
X-63000Y-5800D02*
D03*
X-125000Y108268D02*
D03*
X-125000Y96457D02*
D03*
X78740Y1969D02*
D03*
X78740Y-4921D02*
D03*
X150591Y-26575D02*
D03*
Y41339D02*
D03*
Y34449D02*
D03*
Y27559D02*
D03*
Y20669D02*
D03*
Y13780D02*
D03*
Y48228D02*
D03*
X78740Y13780D02*
D03*
X78740Y20669D02*
D03*
X78740Y27559D02*
D03*
X78740Y34449D02*
D03*
X78740Y41339D02*
D03*
X78740Y48228D02*
D03*
D46*
X-100689Y24754D02*
D03*
X-107972Y18553D02*
D03*
Y24754D02*
D03*
X-100689Y18553D02*
D03*
D47*
X126079Y-129921D02*
D03*
X114079D02*
D03*
D48*
X230000Y-72835D02*
D03*
Y-56299D02*
D03*
X235000Y-72835D02*
D03*
Y-56299D02*
D03*
X240000Y-72835D02*
D03*
Y-56299D02*
D03*
X245000Y-72835D02*
D03*
Y-56299D02*
D03*
X250000Y-72835D02*
D03*
Y-56299D02*
D03*
D49*
X-152461Y128937D02*
D03*
X-170374D02*
D03*
Y119095D02*
D03*
X-152461D02*
D03*
D50*
X-69819Y146653D02*
D03*
X-77819D02*
D03*
X-101315Y85630D02*
D03*
X-109315D02*
D03*
D51*
X-67677Y136142D02*
D03*
X-77677D02*
D03*
X-97677D02*
D03*
Y96142D02*
D03*
X-67677D02*
D03*
D52*
X-120276Y121516D02*
D03*
Y131516D02*
D03*
X-141535Y116516D02*
D03*
Y121516D02*
D03*
Y126516D02*
D03*
X-120276Y116516D02*
D03*
Y126516D02*
D03*
X-141535Y131516D02*
D03*
D53*
X-132343Y84449D02*
D03*
X-142343D02*
D03*
X-127343Y63189D02*
D03*
X-132343D02*
D03*
X-137343D02*
D03*
X-127343Y84449D02*
D03*
X-137343D02*
D03*
X-142343Y63189D02*
D03*
D54*
X106299Y2953D02*
D03*
Y-2953D02*
D03*
X112205D02*
D03*
Y2953D02*
D03*
D55*
X106299Y984D02*
D03*
Y-984D02*
D03*
X112205D02*
D03*
Y984D02*
D03*
D56*
X108268Y-2953D02*
D03*
X110236D02*
D03*
Y2953D02*
D03*
X108268D02*
D03*
D57*
X-147638Y-37170D02*
D03*
Y-41570D02*
D03*
X-139764Y-37170D02*
D03*
Y-41570D02*
D03*
X-155512Y-37170D02*
D03*
Y-41570D02*
D03*
M02*
