M48
;Layer_Color=9474304
;FILE_FORMAT=2:5
INCH,LZ
;TYPE=PLATED
T1F00S00C0.01181
T2F00S00C0.03543
T3F00S00C0.03937
T4F00S00C0.04724
T5F00S00C0.05118
T6F00S00C0.09055
T7F00S00C0.12598
;TYPE=NON_PLATED
T8F00S00C0.04535
T9F00S00C0.05000
T10F00S00C0.06102
T11F00S00C0.09252
T12F00S00C0.11024
%
T01
X000689Y-0150591
X0010827
X0014764
X0065945
X0069882
X0073819
X0077756
X0081693
X008563
X0089567
X0093504
X0097441
X0101575Y-0148721
X0002953Y-0150591
X-0000984
X-0004921
X-0008858
X-0012795
X-0026575
X-0030512
X-0034449
X-0038386
X-0042323
X-004626
X-0050197
X-0054134
X-0058071
X-0062008
X-0065945
X-0083661
X-0087598
X-0091535
X-0095472
X-009941
X-0135911Y-0148622
X-0139848
X-0155512Y-0148622
X-0159449
X-0163386
X-0167323
X-017126
X-0175197
X-0179134
X-0183071
X-0187008
X-0190945
X-0194882
X-0198819
X-0215551Y-0148622
X-0219488
X-0223425Y-0148622
X-0227362
X-0231299
X-0235236Y-0148622
X-0239173
X-024311
X-0247047
X-0250984
X-0250984Y-0143996
Y-013937
Y-0134843
X-0247047
X-024311
X-0239173
X-0234948Y-0134452
X-0231263Y-0133269
X-022769Y-0131359
X-0224558Y-0128789
X-0224558Y-0128789
X-0221987Y-0125656
X-0220077Y-0122083
X-0218894Y-0118399
X-0218504Y-0114173
X-0218504Y-0110236
X-0218393Y-0106037
X-0218504Y-0102362
X-0214567
X-0210236Y-0101673
X-0205906Y-0100492
X-0202165Y-0098524
X-0198819Y-0095768
X-0195768Y-0092618
X-0193209Y-0089173
X-0191339Y-0085433
X-0190157Y-0081102
X-0189961Y-0076772
Y-0072835
Y-0068898
Y-0064961
Y-0061024
Y-0057087
Y-005315
Y-0049213
Y-0045276
Y-0041339
Y-0037402
Y-0033465
Y-0029528
Y-0025591
Y-0021654
Y-0017717
Y-001378
Y-0009843
Y-0005906
Y-0001969
Y0001969
Y0005906
X-0185354Y-0004252
Y-0035748
X-0180151Y-0046227
Y-0050164
X-0174245
Y-0046227
X-0161732Y-0051496
X-0153858Y-0067244
X-0161732Y-0082992
X-0153858Y-009874
X-0155512Y-003248
X-0161732Y-002
X-0208976Y-0114488
X-0229331Y-0114173
X-023008Y-0110407
X-0232214Y-0107213
X-0235407Y-010508
X-0239173Y-0104331
X-024294Y-010508
X-0246133Y-0107213
X-0248267Y-0110407
X-0249016Y-0114173
X-0248267Y-011794
X-0246133Y-0121133
X-024294Y-0123266
X-0239173Y-0124016
X-0235407Y-0123266
X-0232214Y-0121133
X-023008Y-011794
X-0145984Y-0114488
X-0130236
X-013811Y-009874
X-0145984Y-0082992
X-0130236
X-0122047Y-0087599
X-011811Y-0072047
X-0122047Y-0062992
X-0121653Y-0055512
X-0127559Y-0049114
X-0127657Y-0031594
X-0125Y-00335
X-0122441Y-0033465
X-0125327Y-0026173
X-0133957Y-0020669
X-0136803Y-0016331
X-0149213Y-0020669
X-0147638Y-0031496
Y-0045935
X-0145984Y-0051496
X-013811Y-0067244
X-0104331Y-0077756
X-0083661Y-007874
Y-0074803
Y-0070866
Y-0066929
Y-0062992
Y-0059055
Y-0055118
Y-0051181
Y-0047244
X-0083465Y-0043307
X-0082284Y-0038976
X-0079528Y-0035433
X-0082783Y-0027632
X-0083047Y-0020268
X-0083366Y-0017224
X-0083114Y-0014362
X-0093905Y-0010425
X-00972Y-00074
X-0103Y-00054
X-0107382Y-0004724
X-0115226Y-0004852
X-0136614Y0001575
Y0004823
X-0149409Y0001575
X-0098002Y0007313
X-0099541Y-0026541
X-0102756Y-0036614
X-0104331Y-0042323
X-0107283Y-003937
X-011063Y-0037402
X-0112157Y-0040402
X-0089764Y-0038583
X-0073623Y-0029332
X-007441Y-0025591
X-0070177Y-0026673
X-006624Y-0025098
X-0062106Y-0024508
X-0058169
X-0054134Y-0024606
X-0050197
X-004626
X-0042323
X-0038386
X-0034449
X-0030512
X-0026575
X-0022638
X-0018701
X-0014764
X-0010827
X-000689
X0
X0003937
X0002953Y-0042323
X-0000984
X-0004921
X-0008858
X-0012795
X-0016732
X-0020669
X-0024606
X-0028543
X-003248
X-0036417
X-0040354
X-0044291
X-0048228
X-0052165
X-0056102
X-0060039
X-0063287Y-004498
X-0065945Y-0048228
Y-0052165
Y-0056102
Y-0060039
Y-0063976
Y-0067913
Y-007185
Y-0075787
Y-0079724
Y-0083661
Y-0087598
Y-0091535
Y-0095473
Y-009941
X-005937Y-009874
X-0043622
X-0027874
X-0012126
X-002Y-0114488
X-0035748
X-0051496
X-0065945Y-0115157
Y-0119095
Y-0123031
Y-0126969
Y-0130905
Y-0134843
Y-0138779
Y-0142717
Y-0146653
X-0051496Y-0145984
X-0035748
X-0025492Y-0146653
X-0022047Y-0144193
X-0017717Y-0144291
X-0014469Y-0146752
X-0004252Y-0145984
X-0012126Y-0130236
X-0027874
X-0043622
X-005937
X-0083661Y-0130905
Y-0126969
Y-0123031
Y-0119095
Y-0115157
X-0088976Y-0106496
X-00977Y-01075
X-01Y-01051
X-0107283Y-0096457
X-0083661Y-0094488
Y-0098425
Y-0090551
Y-0086614
Y-0082677
X-0051673Y-0087303
X-0052165Y-0074803
X-0051673Y-0062303
X-0051496Y-0051496
X-0043622Y-0067244
X-0027874
X-0012126
X0003622
X-0004252Y-0051496
X-002
X-0019685Y-0057087
Y-0082284
X-0035748Y-002
X-0051496
X-0043622Y-0004252
X-0004508Y-0
X0004508
X-0083661Y-0134843
Y-0138779
Y-0142717
Y-0146653
X-009874Y-0145984
X-0102461Y-014813
X-0105681Y-0146063
X-0109336Y-0144685
X-0113273
X-011721
X-0121147
X-0125084
X-0129022
X-0132677Y-0146063
X-0115748Y-013189
X-0096063
X0014764Y-0130905
Y-0134843
Y-0138779
Y-0142717
Y-0146653
X0011496Y-0145984
X0015748Y-0126969
X0017717Y-0123031
X0024606Y-0119095
X0028543
X003248
X0036417
X0040354
X0044291
X0048228
Y-0115157
Y-0111221
Y-0107283
Y-0103347
Y-009941
Y-0095473
Y-0091535
Y-0087598
Y-0083661
Y-0079724
Y-0075787
Y-007185
Y-0067913
Y-0063976
Y-0060039
Y-0056102
Y-0052165
Y-0048228
X0045571Y-004498
X0042323Y-0042323
X0038386
X0034449
X0030512
X0026575
X0022638
X0018701
X0014764
X0010827
X000689
X0011496Y-0051496
X0027244
X0042992
X0065945Y-0052165
Y-0048228
Y-0044291
X0065059Y-0040059
X0062795Y-0036319
X0059842Y-0032874
X0056693Y-0029724
X0053051Y-0026673
X0048819Y-0025098
X0044291Y-0024606
X0040354
X0042992Y-002
X0031496Y-0020669
X0027559
X0023622
X0023622Y-0024606
X0019685
X0015748
X0011811
X0007874
X0027559
X0031496
X0066614Y-0004252
X0082677Y-0004921
X0082874Y0001969
X0100394Y0002953
X0112205Y-0007874
X0105984Y-002
X0121732
X013189Y-0007874
X0144095Y-0014567
X0162598Y-0014961
X0150591Y-0031496
X0129606Y-0035748
X0113858
X009811
X0082362
X0090236Y-002
X0065945Y-0056102
Y-0060039
Y-0063976
Y-0067913
Y-007185
Y-0075787
Y-0079724
Y-0083661
Y-0087598
Y-0091535
Y-0095472
Y-009941
Y-0103347
Y-0107283
Y-0111221
Y-0115157
Y-0119095
Y-0123031
Y-0126969
Y-0130905
Y-0134843
Y-0138779
Y-0142717
Y-0146653
X0074488Y-0145984
X0090236
X0105217Y-0146161
X0109336Y-0144685
X0113273
X011721
X0121147
X0125084
X0129022
X0133366Y-014626
X0137795Y-0147638
X0141732
X0145669
X0149606
X0153543
X015748
X0161417
X0153228Y-0114488
X0121732
X0105984
X0090236
X009811Y-009874
X0113858
X0129606
X011811Y-0129921
X0082362Y-009874
X0035118
X001937
X0027244Y-0082992
X0042992
Y-0114488
X0027244
X0150787Y0001969
X0151181Y0007087
X0166535Y-0014961
X0165355Y-0031496
X0180315Y-0027165
X018622Y-0021654
X0192126Y-002874
X0198032Y-0028346
X0192598Y-0004252
X0228346Y-0001221
X0225394Y0001732
X0228346Y0004685
X0225394Y0007638
X0231299
X0234252Y0004685
X0237205Y0007638
Y0001732
X0234252Y-0001221
X0231299Y0001732
X0262795Y0
Y-0003937
Y-0007874
Y-0011811
Y-0015748
Y-0019685
Y-0023622
Y-0027559
Y-0042323
Y-004626
Y-0050197
Y-0054134
Y-0058071
Y-0062008
Y-0065945
Y-0069882
Y-0073819
Y-0077756
Y-0081693
X0260925Y-0085827
X0258366Y-008937
X025502Y-0092421
X0250984Y-0093504
X0247047
X024311
X0239173Y-0093504
X0234948Y-0093894
X0231263Y-0095077
X022769Y-0096987
X0224558Y-0099558
X0224558Y-0099558
X0221987Y-010269
X0220077Y-0106264
X0218894Y-0109948
X0218504Y-0114173
X0218894Y-0118399
X0220077Y-0122083
X0221987Y-0125656
X0224558Y-0128789
X0224558Y-0128789
X022769Y-0131359
X0231263Y-0133269
X0234948Y-0134452
X0239173Y-0134843
X024311
X0247047
X0250984
Y-0138779
Y-0142717
X0247146Y-0144488
X0244094Y-0147638
X0240158
X0236221
X0232283
X0228346
X022441
X0220472
X0216535
X0212598
X0192913
X0188976
X0185039
X0181102
X0187008Y-0110236
X0168976Y-0114488
X0181102Y-0072441
X0187598Y-0070891
X0184301Y-0055167
X0206693Y-0063779
X0206693Y-0068898
X0200472Y-0082992
X021622
X023Y-0081417
X0240158Y-0081693
X0239173Y-0104331
X024294Y-010508
X0246133Y-0107213
X0248267Y-0110407
X0249016Y-0114173
X0248267Y-011794
X0246133Y-0121133
X024294Y-0123266
X0239173Y-0124016
X0235407Y-0123266
X0232214Y-0121133
X023008Y-011794
X0229331Y-0114173
X023008Y-0110407
X0232214Y-0107213
X0235407Y-010508
X0208346Y-009874
X0224016Y-0056693
X0227559Y-0040157
X0244882Y-0041732
X025Y-0048031
X0262795Y0003937
Y0007874
Y0011811
Y0015748
Y0019685
Y0023622
Y0027559
Y0042323
Y004626
Y0050197
Y0054134
Y0058071
Y0062008
Y0065945
Y0069882
Y0073819
Y0077756
Y0081693
X0260925Y0085827
X0258366Y008937
X025502Y0092421
X0250984Y0093504
X0247047
X024311
X0239173Y0093504
X0234948Y0093894
X0231263Y0095077
X022769Y0096987
X0224558Y0099558
X0224558Y0099558
X0221987Y010269
X0220077Y0106263
X021622Y0105984
X0218894Y0109948
X0218504Y0114173
X0218894Y0118398
X0220077Y0122083
X0221987Y0125656
X0224558Y0128788
X0224558Y0128788
X022769Y0131359
X0231263Y0133269
X0234948Y0134452
X0239173Y0134842
X024311
X0247047
X0250984
Y0138779
Y0142716
X0247146Y0144488
X0246063Y0148622
X0242126
X0238189
X0234252
X0230315
X0226378
X0222441
X0218504
X0214567
X021063
X0206693
X0202756
X0198819
X0194882
X0190945
X0187008
X0183071
X0179134
X0175197
X017126
X0167323
X0163386
X0168976Y013748
X0184724
X0200472
X021622
X0231968
X0232214Y0121133
X023008Y011794
X0229331Y0114173
X023008Y0110406
X0232214Y0107213
X0235407Y010508
X0239173Y0104331
X024294Y010508
X0246133Y0107213
X0248267Y0110406
X0249016Y0114173
X0248267Y011794
X0246133Y0121133
X024294Y0123266
X0239173Y0124015
X0235407Y0123266
X0208346Y0121732
X0192598
X017685
X0168976Y0105984
X0184724
X0200472
X0224094Y0090236
X021622Y0074488
X0231968
X0253937Y0071555
X0258957Y0057185
X0248917
X0251181Y0040157
X0257087Y0038976
X0234252Y001059
X0228346
X0189764Y0023622
X0192126Y0028346
X0182283Y0025984
X0169685Y0048425
X0132874Y0048228
Y0037894
X0116142Y0061024
X0107283Y0064961
X0082677Y0048228
Y0041339
Y0034449
Y0027559
Y0020669
Y001378
X005874Y0011496
X0050866Y0027244
X0042992Y0074488
X005874
X0066614Y0090236
X0050866
X0035118
X001937
X0027244Y0105984
X000696Y0107213
X0009093Y0110407
X0009843Y0114173
X0009093Y011794
X000696Y0121133
X0011496Y013748
X0011727Y0148622
X0015664
X0019601
X0023538
X0027475
X0031412
X0035349
X0039286
X0043223
X004716
X0051097
X0055034
X0058971
X0062908
X0066845
X0070782
X0074719
X0078656
X0082593
X008653
X0090467
X0094404
X0098341
X0102278
X0105512Y0146063
X0109168Y0144685
X0113104
X0117042
X0121063Y0144685
X0125
X0128937
X0132593Y0146063
X0135827Y0148622
X0139764
X0143701
X0147638
X0151575
X0155512
X0159449
X0148453Y0135437
X0148458Y0110827
X0113858Y0121732
X009811
X0082362
X0090236Y013748
X0105984
Y0105984
X0090236
X0056102Y0114567
Y0139173
X0027244Y013748
X000779Y0148622
X0109252Y0011811
X0113189
X0004508Y0009016
X-0004508
X-0035748Y0011496
X-0051496
X-0067244
X-0082992
X-009708Y0015142
X-0113189Y0027311
X-011811Y0036417
X-0120079Y003937
X-0122047Y0042323
X-0124016Y0045276
X-0125984Y0048228
X-0127953Y0051181
X-0130905Y0056102
X-0137402Y0053937
X-01425Y0056
X-0146653Y0064961
X-0147638Y0082677
X-0145984Y0090236
X-0130236
X-0122441Y0082677
X-0118504
X-0114567
X-0111221Y0064961
X-0107283Y0064961
X-0103347
X-0099409
X-0095472
X-0091535Y0064961
X-0087205Y0065354
X-0083169Y0067126
X-0080315Y0070374
X-0078248Y0074213
X-0077264Y0078347
X-0067244Y0074488
X-0051496
X-0043622Y0090236
X-0027874
X-0012126
X-000696Y0107213
X-0003767Y010508
X-0Y0104331
X0003767Y010508
Y0123266
X-0Y0124016
X-0003767Y0123266
X-000696Y0121133
X-0009093Y011794
X-0009843Y0114173
X-0009093Y0110407
X-0027874Y0121732
X-0043622
X-0051496Y013748
X-0051266Y0148622
X-0055203
X-0047328
X-0043391
X-0039454
X-0035517
X-003158
X-0027643
X-0023707
X-001977
X-0015833
X-0011895
X-0007958
X-0004021
X-0000084
X0003853
X-002Y013748
X-0035748
X-0062147Y0142531
X-0065008Y0149559
X-0094488Y0148622
X-0098425
X-0102362
X-0106299Y0145669
X-0111221Y0144685
X-0115157
X-0119095
X-0123031
X-0126969
X-013189Y0145669
X-0135827Y0148622
X-0139764
X-0143701
X-0147638
X-013811Y013748
X-0122362
X-0106614
X-0095472Y0127953
Y0124016
Y0120079
Y0116142
Y0112205
Y0108268
Y0104331
X-0077756Y0105118
Y0109055
Y0112992
Y0116929
Y0120866
Y0124803
Y0101181
Y0097244
Y0093307
X-0051496Y0105984
X-0035748
X-0036417Y0033465
Y0029528
X-0040354
Y0033465
X-0116094Y0058594
X-0124016Y0058071
X-0145984Y0042992
X-013811Y0105984
X-0125Y0102362
X-0130236Y0121732
X-0153858Y013748
X-0155512Y0148622
X-0159449
X-0163386
X-0167323
X-0169606Y013748
X-0151575Y0148622
X-0153858Y0105984
X-0161732Y0090236
X-0163386Y0082677
X-0167323
X-017126
X-0175197
X-0179134Y0082677
X-0183071
X-0187008
X-0190945
X-0192224Y0087106
X-0194783Y0091142
X-0197835Y0094488
X-0201181Y0097539
X-0205217Y0100098
X-0209646Y0101575
X-0214567Y0102362
X-0218504
Y0106299
Y0110236
X-0218504Y0114173
X-0218894Y0118399
X-0220077Y0122083
X-0221987Y0125656
X-0224558Y0128789
X-0224558Y0128789
X-022769Y0131359
X-0231263Y0133269
X-0234948Y0134452
X-0239173Y0134843
X-024311
X-0247047
X-0250984
Y0138779
Y0142717
X-0247047Y0144685
X-0245079Y0148622
X-0241142
X-0237205
X-0233268
X-0229331
X-0225394
X-0221457
X-021752
X-0213583
X-0209646
X-0205709
X-0201772
X-021685Y013748
X-0232598
X-0232214Y0121133
X-0235407Y0123266
X-0239173Y0124016
X-024294Y0123266
X-0246133Y0121133
X-0248267Y011794
X-0249016Y0114173
X-0248267Y0110407
X-0246133Y0107213
X-024294Y010508
X-0239173Y0104331
X-0235407Y010508
X-0232214Y0107213
X-023008Y0110407
X-0229331Y0114173
X-023008Y011794
X-0208976Y0121732
X-0201102Y0105984
X-0185354
X-017748Y0090236
X-0159449Y0082677
X-0155512
X-0151575
X-0150591Y0064961
X-0154527
X-0158465
X-0162402Y0064961
X-0166339
X-0170276
X-0174213
X-017815Y0064961
X-0182087
X-0186024
X-0189961
Y0061024
Y0057087
Y005315
Y0049213
Y0045276
Y0041339
Y0037402
Y0033465
Y0029528
Y0025591
Y0021654
Y0017717
Y001378
Y0009843
X-017748Y0011496
X-0169606Y0027244
X-0153858
X-0161732Y0042992
X-017748
X-0169606Y005874
X-0153858
X-0185354
Y0027244
T02
X-0184213Y0143701
X-0174213
T03
X-0035138Y-0087323
Y-0077323
Y-0067323
Y-0057323
X0035138
Y-0067323
Y-0077323
Y-0087323
X0182087Y-0115197
Y-0123071
X0191929
Y-0115197
X-0202756Y0113189
Y0125
Y0136811
T04
X-0025965Y-0118032
T05
X-0184155Y-013423
X-0170218Y-0134168
X-0177165Y-0127165
X-0184134Y-0120197
X-0170197
T06
X017126Y-0140748
X0202756
T07
X-0239173Y-0114173
X0239173
Y0114173
X-0Y0114173
X-0239173
T08
X0251969Y-0149606
Y0149606
X-0251969Y0149606
T09
X-0195039Y0101378
Y0148622
T10
X-002Y-0151339
X002Y-0116319
T11
X-0206693Y-0127165
X-0147638
T12
X-0206693Y-0142913
X-0147638
M30
